<svg width="1280" height="718" viewBox="0 0 1280 718" fill="none" xmlns="http://www.w3.org/2000/svg">
<g clip-path="url(#clip0_43_51562)">
<rect width="1280" height="718" fill="white"/>
<rect width="1280" height="718" fill="url(#paint0_linear_43_51562)"/>
<g clip-path="url(#clip1_43_51562)">
<path d="M1434.18 567.742C1425.78 549.059 1410.55 532.49 1400.49 521.533C1380.73 500.008 1366.68 476.2 1358.74 450.763C1356.84 444.641 1355.3 438.422 1353.67 431.838C1349.8 416.168 1345.82 399.939 1336.36 384.026C1331.96 376.64 1327.45 370.251 1323.05 364.08C1312.27 348.896 1304.49 337.939 1303.96 320.374C1303.53 305.676 1305.91 290.637 1308.43 274.7C1309.8 266.076 1311.19 257.159 1312.15 248.17C1317.29 199.994 1307.52 150.579 1281.44 92.6605L1280.29 90.0853C1263.5 52.7445 1238.15 -3.66764 1179.8 0.195202C1140.08 2.84332 1123.87 32.1426 1110.86 55.6841C1110.09 57.0932 1109.32 58.478 1108.55 59.8385C1008.57 21.8174 896.788 29.6889 806.382 81.8494C791.615 90.3525 774.47 90.5712 754.636 90.8141C744.743 90.9356 734.514 91.0571 723.924 92.2475L722.748 92.369C701.497 94.7499 672.37 98.0054 654.409 120.697C639.377 139.671 638.777 157.138 640.914 168.435C647.181 201.525 682.527 223.827 711.078 240.348C696.694 279.073 691.243 318.868 694.869 358.857C698.975 404.288 708.604 434.51 719.866 454.65C723.684 461.477 727.694 467.162 731.752 471.851L771.877 529.939C759.87 545.245 752.667 564.559 752.667 585.574C752.667 613.974 765.393 639.848 786.236 655.761C836.397 694.074 942.531 706.27 992.477 708.189C1118.95 713.024 1230.85 670.945 1240.52 668.759C1262.3 664.41 1289.1 664.556 1312.73 664.702C1318.54 664.726 1324.47 664.945 1330.74 665.163C1365.8 666.402 1405.58 667.836 1428.44 635.524C1442.95 615.043 1444.94 591.599 1434.18 567.718V567.742Z" fill="url(#paint1_linear_43_51562)"/>
<path d="M1386.4 534.773C1365.58 512.107 1349.63 486.208 1340.39 456.618C1333.71 435.263 1331.48 413.592 1319.86 394.059C1304.97 368.987 1285.66 353.025 1284.73 320.956C1284.01 295.836 1290.37 270.934 1293.04 246.08C1298.49 194.989 1284.73 146.861 1263.93 100.726C1248.13 65.6443 1227.24 16.5206 1181.02 19.5817C1143.18 22.1083 1134.22 57.5299 1116.47 84.011C1020.02 42.1514 908.12 45.5284 815.865 98.7336C788.251 114.671 757.276 108.063 725.988 111.561C706.442 113.748 682.622 116.104 669.367 132.843C633.06 178.687 702.936 212.87 735.208 231.917C717.872 271.323 709.996 313.449 713.958 357.083C717.007 390.755 727.164 451.516 759.293 470.32C770.314 476.758 784.626 478.288 795.671 471.948C806.741 465.582 810.631 456.083 818.123 445.223C818.123 445.223 841.198 397.46 894.554 413.203C910.858 418.014 928.627 435.87 941.233 447.386C966.878 470.806 1030.63 513.321 1078.94 494.517C1101.9 485.601 1122.96 465.898 1137.32 445.977C1151.89 425.739 1149.42 406.328 1142.67 383.564C1137.58 366.436 1128.67 355.309 1150.57 353.584C1170.14 352.029 1187.33 352.612 1201.33 367.262C1222.34 389.224 1236.92 424.039 1251.26 453.532C1222.22 473.964 1218.33 506.397 1227.92 541.576C1227.92 541.576 1234.13 559.7 1226.5 576.657C1217.69 596.263 1181.33 630.203 1125.12 637.515C1092.32 641.791 1096.74 674.978 1125.48 676.678C1150.14 678.136 1169.95 670.945 1194.32 662.442C1212.72 656.028 1221.7 653.137 1236.51 649.809C1260.04 645.071 1287.9 645.193 1312.77 645.338C1349.92 645.557 1392.62 652.797 1412.79 624.299C1436.56 590.724 1408.18 558.582 1386.37 534.846L1386.4 534.773ZM750.552 195.086C746.686 193.92 735.521 189.231 730.214 186.413C721.641 181.845 703.272 173.051 704.401 160.952C705.625 148.222 727.404 144.602 737.562 143.8C759.965 142.051 785.922 144.602 785.682 147.444C785.49 149.558 777.926 153.445 766.328 172.152C756.603 187.846 757.06 197.054 750.552 195.086ZM820.26 347.486C802.923 354.24 776.173 349.187 765.896 329.557C754.322 307.449 759.893 229.682 790.941 222.66C818.027 218.336 830.729 275.185 834.475 300.573C835.555 307.91 836.564 315.101 836.372 322.536C835.964 338.449 832.434 342.773 820.26 347.51V347.486ZM997.278 331.16C971.489 377.15 888.166 371.878 902.069 301.569C902.069 301.569 925.505 195.329 991.299 212.7C1030.85 224.823 1010.96 306.768 997.254 331.185L997.278 331.16ZM1251.02 217.048C1234.85 202.01 1227.41 176.136 1213.75 160.005C1203.86 148.295 1197.47 142.367 1180.8 137.605C1160.99 131.969 1138.04 128.592 1135.54 122.348C1133.57 117.149 1147.59 109.302 1160.39 83.5737C1163.32 77.6701 1167.98 68.0009 1173.48 63.725C1190.96 50.1443 1205.58 72.5683 1213.84 86.6349C1236.1 124.534 1253.56 168.24 1254.81 212.675C1254.81 212.675 1255.43 221.154 1251.02 217.048Z" fill="black"/>
<path d="M841.223 515.411C802.923 515.411 771.852 546.824 771.852 585.598C771.852 624.372 802.899 655.785 841.223 655.785C879.546 655.785 910.594 624.372 910.594 585.598C910.594 546.824 879.546 515.411 841.223 515.411Z" fill="black"/>
</g>
<path d="M731.166 426.919C708.412 428.857 701.71 378.963 701.204 353.773C705.009 336.933 803.608 332.664 825.724 337.662C847.841 342.66 840.847 394.18 836.09 415.23C831.334 436.28 759.609 424.497 731.166 426.919Z" stroke="#2299E1" stroke-width="9.59621" stroke-linecap="square"/>
<path d="M957.452 413.113C934.698 415.051 927.996 365.156 927.49 339.967C931.296 323.126 1029.89 318.858 1052.01 323.856C1074.13 328.854 1067.13 380.374 1062.38 401.424C1057.62 422.474 985.895 410.691 957.452 413.113Z" stroke="#2299E1" stroke-width="9.59621" stroke-linecap="square"/>
<path d="M845.28 374.542C852.33 366.858 886.856 356.83 926.5 369.5" stroke="#2299E1" stroke-width="9.59621" stroke-linecap="round"/>
<path d="M1077.81 284.05C1099.72 280.464 1104.08 259.564 1103.53 249.562C1107.11 271.468 1128.6 275.015 1138.9 274.051C1114.46 278.051 1111.92 300.816 1113.7 311.699C1109.84 288.108 1088.17 283.437 1077.81 284.05Z" fill="#FFE842"/>
</g>
<defs>
<linearGradient id="paint0_linear_43_51562" x1="1104.5" y1="18.4999" x2="227.5" y2="561" gradientUnits="userSpaceOnUse">
<stop stop-color="#166EC7"/>
<stop offset="1" stop-color="#1D62A7"/>
</linearGradient>
<linearGradient id="paint1_linear_43_51562" x1="713.015" y1="88.579" x2="1201.02" y2="659.038" gradientUnits="userSpaceOnUse">
<stop stop-color="#FFFDEE"/>
<stop offset="0.535427" stop-color="#F3F3F3"/>
<stop offset="1" stop-color="#DEDEDE"/>
</linearGradient>
<clipPath id="clip0_43_51562">
<rect width="1280" height="718" fill="white"/>
</clipPath>
<clipPath id="clip1_43_51562">
<rect width="801" height="708.577" fill="white" transform="translate(640)"/>
</clipPath>
</defs>
</svg>
