<svg xmlns="http://www.w3.org/2000/svg" viewBox="0 0 156 168.29"><defs><style>.cls-1{fill:#4cde8d;}.cls-2{fill:#d8effd;}.cls-3{fill:#46dc84;}.cls-4{fill:#cfe0e9;}.cls-5{fill:#43cc7e;}.cls-6{fill:#45c57c;}.cls-7{fill:#43c179;}.cls-8{fill:#c5dae7;}.cls-9{fill:#42b274;}.cls-10{fill:#bdcbd4;}.cls-11{fill:#163c4d;}.cls-12{fill:#42c17d;}.cls-13{fill:#42b477;}.cls-14{fill:#44b178;}.cls-15{fill:#cbe0ee;}.cls-16{fill:#48d484;}.cls-17{fill:#d0e0ea;}.cls-18{fill:#48d984;}.cls-19{fill:#45b576;}.cls-20{fill:#b5c4cd;}.cls-21{fill:#c6dce8;}.cls-22{fill:#b4c4ce;}.cls-23{fill:#43ab75;}.cls-24{fill:#44be7e;}</style></defs><g id="Layer_2" data-name="Layer 2"><g id="Layer_3" data-name="Layer 3"><path class="cls-1" d="M27.24,137.16a77.62,77.62,0,0,1-23-34,75.3,75.3,0,0,1-3.73-17A76.35,76.35,0,0,1,.2,72.38,78,78,0,0,1,65.61,1,75.62,75.62,0,0,1,81.29.08a76.62,76.62,0,0,1,43.86,15.83A77.58,77.58,0,0,1,155.53,69.6a74.94,74.94,0,0,1,.13,15.56,78.13,78.13,0,0,1-22.88,48.32c-.2.19-.41.36-.61.54a2.54,2.54,0,0,1-1,.4c-.84.21-1.24.05-1.59-.73a39,39,0,0,1-2.62-6.62,9.11,9.11,0,0,1-.28-3.65,18.17,18.17,0,0,1,1.15-4.56c1.79-3.92,4.47-7.32,6.3-11.22a71,71,0,0,0,5.63-16.24,12.78,12.78,0,0,0-.11-5.5C139.23,84,138,82.62,137,81.12a2.56,2.56,0,0,0-.93-.65c-.28-.16-.61-.27-.77-.6-.36-1.5-.36-1.5-2-1.5H120.6a3.52,3.52,0,0,1-1.29-.12c-.35-.2-.35-.4,0-.55a2.7,2.7,0,0,1,1.06-.1h13a2.67,2.67,0,0,0,1-.09c-.09-.36-.4-.56-.63-.79L108.91,51.78c-.76-.75-1.45-1.57-2.25-2.27q-2.32-2.34-4.66-4.67a8.88,8.88,0,0,0-3.1-3.11c-4.09-4.06-8.15-8.15-12.23-12.21-.23-.23-.45-.5-.83-.41H71.31c-1.16,0-1.18,0-1.19,1.2,0,3.15,0,6.29,0,9.44,0,1.44-.23,1.67-1.66,1.67H59.6a5.84,5.84,0,0,0-5.89,5.8c0,.6,0,1.2,0,1.81q0,13.81,0,27.65a2.47,2.47,0,0,0,.81,1.95c1.13,1.07,2.21,2.19,3.31,3.3a2.91,2.91,0,0,1,.75,1,.92.92,0,0,1-.17.8C49.89,98.49,41.32,113.26,32.8,128c-1.56,2.71-3.14,5.4-4.68,8.11C27.9,136.53,27.77,137,27.24,137.16Z"/><path class="cls-2" d="M119.06,78l15.81,0c.46,0,.64.14.61.61s0,.93,0,1.39c.44.6.16,1.28.13,1.9a26.73,26.73,0,0,1-.64,5.27,46.32,46.32,0,0,0-1.2,4.67A61,61,0,0,1,129,104a56.19,56.19,0,0,1-11.28,14.92,57,57,0,0,1-25,13.93,58.62,58.62,0,0,1-13.2,1.87A57.36,57.36,0,0,1,55,130c-1-.41-1.9-.84-2.84-1.3s-1-.49-1.59.48c-.92,1.58-1.81,3.18-2.74,4.75-2.17,3.69-4.28,7.42-6.44,11.12-2.53,4.33-5,8.69-7.53,13l-1.27,2.19a3.08,3.08,0,0,1-1.13,1.05c-3.27,1.89-6.53,3.79-9.81,5.66a3.72,3.72,0,0,1-1.37.51,1.88,1.88,0,0,1-2.34-1.4q0-6.2,0-12.37a1.59,1.59,0,0,1,.32-.82L26.79,138c.16-.28.3-.57.45-.86q15-26,30-52c.3-.52.61-1,.92-1.54.46,0,.5.37.36.62-.93,1.68.22,2.7,1.18,3.77,2.29,2.53,4.75,4.9,7.15,7.32.35.35.66.73,1,1.1a1.89,1.89,0,0,1,.5,1.66A45.1,45.1,0,0,1,66,102.47c-2.07,3.62-4.17,7.22-6.25,10.83a.83.83,0,0,0,0,1.06,9.12,9.12,0,0,0,1.84.94,44.84,44.84,0,0,0,7.21,2.4,42.8,42.8,0,0,0,8.19,1,39.36,39.36,0,0,0,9.43-.87,41.59,41.59,0,0,0,9.87-3.44,2,2,0,0,0,.67-.31,40.8,40.8,0,0,0,9.59-7,21.15,21.15,0,0,0,3-3.44c.86-1,1.55-2.07,2.36-3.09a44.78,44.78,0,0,0,4.49-9,39.26,39.26,0,0,0,2-9.08c.08-.76.17-1.51.24-2.27a4.07,4.07,0,0,0,.13-1.55.86.86,0,0,1,.15-.64Z"/><path class="cls-3" d="M115.15,146.55a76.88,76.88,0,0,1-29.43,9,49.91,49.91,0,0,1-5.86.31,23,23,0,0,1-3.71,0,41,41,0,0,1-7.5-.53c-.29-.32-.64-.22-1-.14l-.65,0a1.64,1.64,0,0,0-1-.44,38.31,38.31,0,0,1-6.33-1.67c-.95-.28-1.91-.48-2.86-.71a8,8,0,0,1-3.79-1.85.79.79,0,0,1-.25-1.12c1-1.8,1.88-3.64,2.86-5.45A6,6,0,0,1,63,141a14.43,14.43,0,0,0,3.76.69c1,0,2-.44,3.08-.35,1.89.15,3.8-.08,5.71.21a8.32,8.32,0,0,0,2.93-.19,6.69,6.69,0,0,1,2.35-.19,15.77,15.77,0,0,0,4.39-.35c.94-.13,1.88-.19,2.82-.4,1.34-.28,2.61-.79,3.95-1.06,2-.39,3.75-1.33,5.67-1.86,2.18-.6,4.34-1.28,6.54-1.78a13.86,13.86,0,0,1,4.8.11,1.06,1.06,0,0,1,.51.4c1.8,3.12,3.59,6.24,5.4,9.36C115.08,145.85,115.32,146.16,115.15,146.55Z"/><path class="cls-4" d="M128.78,137.16c2.69,4.69,5.34,9.41,8.11,14.06a8.11,8.11,0,0,1,1.24,4.67c-.11,3.33,0,6.66,0,10a2.11,2.11,0,0,1-3.21,1.33c-.86-.42-1.65-1-2.48-1.43-2.49-1.42-5-2.9-7.47-4.29a4.82,4.82,0,0,1-1.92-1.93c-3.26-5.77-6.6-11.48-9.93-17.21-1.24-2.15-2.46-4.31-3.72-6.45-.24-.46-.53-.89-.75-1.36a1.2,1.2,0,0,1,.56-1.85c1.5-.88,3-1.75,4.48-2.7a64.49,64.49,0,0,0,5.57-4.16,2.08,2.08,0,0,0,1-2.16c-.06-.31,0-.62.48-.58a4.22,4.22,0,0,1,1.21,1.63c2.18,3.79,4.39,7.57,6.57,11.37A1.36,1.36,0,0,1,128.78,137.16Z"/><path class="cls-5" d="M128.78,137.16q-4.05-7-8.11-14a7.13,7.13,0,0,1-1.58-2.33,3.64,3.64,0,0,1-.85-2,2,2,0,0,1,.65-.92,58.69,58.69,0,0,0,9.7-13.23,61.16,61.16,0,0,0,6-16.77c.05-.24,0-.5.06-.73a18.23,18.23,0,0,0,.51-3.27c.15-1.32.23-2.64.35-4a3.31,3.31,0,0,1,2.08,1.39c.62.85,1.22,1.73,1.85,2.59a1.61,1.61,0,0,1,.34,1.05,1.58,1.58,0,0,0,.09.72c.92,1.92.62,3.9.19,5.85a57.72,57.72,0,0,1-1.76,6.72c-.88,2.54-1.88,5-3,7.52a76.89,76.89,0,0,1-5.26,9.43,10.94,10.94,0,0,0-1.51,3,2.73,2.73,0,0,1-.52.92,2.69,2.69,0,0,0-.53,1,15.08,15.08,0,0,0,.31,8.67c.64,1.66,1.6,3.15,2.14,4.84a.68.68,0,0,0,1,.44,2.94,2.94,0,0,1,1.21-.17A43.75,43.75,0,0,1,128.78,137.16Z"/><path class="cls-6" d="M109,136c-1.24-.05-2.49,0-3.72-.15a6.89,6.89,0,0,0-2.92.67,37,37,0,0,1-3.58.94,12.46,12.46,0,0,0-3,.93c-2.13,1-4.47,1.31-6.69,2a6.55,6.55,0,0,1-3.4.55,5.89,5.89,0,0,0-1.84.32,13.1,13.1,0,0,1-3.07.14c-1.6-.15-3.17.39-4.77.43a2.22,2.22,0,0,1-.57,0c-2-.5-4-.16-5.94-.23-1.32,0-2.58.43-3.92.29a14.21,14.21,0,0,1-2.64-.69,5.73,5.73,0,0,0-6.94,2.63c-1,1.94-2.1,3.88-3.14,5.82-.06.11-.17.24,0,.36a8.25,8.25,0,0,0,3.93,2,43.26,43.26,0,0,1,4.34,1.14,28.37,28.37,0,0,0,4.65,1.21c.46.05,1.1,0,1.17.77a75.09,75.09,0,0,1-18.21-4.88,3.12,3.12,0,0,1-.35-.2c-.08-.08-.14-.17-.21-.25-1.25-1.42-1.57-1.2-.42-3.4a78.25,78.25,0,0,1,4.47-7.54c.61-.91,1.4-1.66,2-2.62s2.72-1.58,3.81-1.24a6,6,0,0,0,2.27,0,17.42,17.42,0,0,1,5.48.88,27.37,27.37,0,0,0,5.09.64c2.31.18,4.64.11,6.94.47a8.83,8.83,0,0,0,1.78-.21,18.62,18.62,0,0,0,4-.55c1-.27,2.07,0,3.09-.25a3.92,3.92,0,0,0,.95-.25,3.32,3.32,0,0,1,1.66-.24,6.23,6.23,0,0,0,3-.65,18.29,18.29,0,0,1,4-1.38,2.5,2.5,0,0,0,.77-.26,6.54,6.54,0,0,1,4-.9.71.71,0,0,0,.25,0c1.71-.7,3.5-.26,5.25-.41a.8.8,0,0,1,.63.46c.61,1,1.16,2,1.72,3.05A.5.5,0,0,1,109,136Z"/><path class="cls-7" d="M106.76,132c-.1.1-.21.29-.27.28-1-.29-2.06.22-3.08-.05a.79.79,0,0,0-.48,0,12.58,12.58,0,0,1-3.22.51,53.42,53.42,0,0,0-6.13,2A19.15,19.15,0,0,1,90,135.88c-.08,0-.16.08-.23.07-1.92-.34-3.66.89-5.61.59-.84-.13-1.72.41-2.63.47a31.33,31.33,0,0,1-5.31.18,48.7,48.7,0,0,0-5-.28,12.49,12.49,0,0,0-2.8-.11,4.09,4.09,0,0,1-2-.4,36.24,36.24,0,0,0-4.46-1,14.24,14.24,0,0,0-3,0c-.33,0-.65.13-1,0s-.59-.51-1-.31c-.86.46-2.1.44-2.56,1.33a24.34,24.34,0,0,1-1.78,2.42,77.5,77.5,0,0,0-5.14,8.76c-.27.54-.31.95.25,1.33a1.36,1.36,0,0,1,.64,1.17,15.86,15.86,0,0,1-3-1.26,13.37,13.37,0,0,0-.91-1.55c-.34-.4-.18-.83,0-1.23.44-.82.9-1.63,1.38-2.42,1.71-2.83,3.16-5.84,5.4-8.31a9,9,0,0,1,4.11-3c.64-.18,1.16-.62,1.8-.8a2,2,0,0,1,1,.18,57.78,57.78,0,0,0,15.65,3.35,57.06,57.06,0,0,0,24.67-3.7,50.91,50.91,0,0,0,5-2.25,3.16,3.16,0,0,1,1.22-.45.71.71,0,0,1,.59.37c.51.79,1,1.61,1.41,2.45A.47.47,0,0,1,106.76,132Z"/><path class="cls-8" d="M104.91,128.8a58.31,58.31,0,0,1-18.15,6,56.51,56.51,0,0,1-10.15.64A53.85,53.85,0,0,1,62,133.22c-1.61-.49-3.21-1-4.81-1.5a11.36,11.36,0,0,1-3.64-1.4c-.4-.17-.77-.41-1.16-.61-1.17-.59-1.18-.6-1.86.57q-1.7,3-3.4,5.89l-5.61,9.72a1.44,1.44,0,0,1-.74.74L32.44,161a2,2,0,0,1-.74.83L21.07,168a2,2,0,0,1-3.13-1.91c1.26,1.43,1.9,1.59,3.6.63,3.31-1.86,6.57-3.79,9.87-5.68,1.13-.65,1.5-1.85,2.09-2.86,4-6.82,7.89-13.66,11.83-20.49,1.78-3.08,3.57-6.14,5.33-9.22.3-.53.56-.59,1.09-.32a58,58,0,0,0,11.76,4.5,70.57,70.57,0,0,0,7.78,1.45,47.64,47.64,0,0,0,6.52.39,45.71,45.71,0,0,0,6.6-.36c2.29-.33,4.57-.66,6.83-1.19a57.06,57.06,0,0,0,22.18-10.67,58.2,58.2,0,0,0,8.24-7.92,57.29,57.29,0,0,0,8.2-12.58,58.5,58.5,0,0,0,4.63-14.11c0-.13.09-.26.13-.38a21.41,21.41,0,0,1-.87,4.7,57,57,0,0,1-15.39,27,1.86,1.86,0,0,1-.56.89A55.23,55.23,0,0,1,106,128.53,1.25,1.25,0,0,1,104.91,128.8Z"/><path class="cls-9" d="M40.75,146.63l10-17.38c.13-.23.23-.51.61-.3,1.87,1,3.82,1.88,5.75,2.77a3.89,3.89,0,0,1-1.86,1,8.14,8.14,0,0,0-3.62,2.71c-2.58,2.9-4.26,6.4-6.22,9.7-.15.26-.31.52-.47.77-.37.59-.61,1.13.1,1.7a1.26,1.26,0,0,1,.39,1.28c-1.35-.52-2.61-1.25-3.9-1.89A2.23,2.23,0,0,0,40.75,146.63Z"/><path class="cls-10" d="M109.54,135.83c1.2,1.76,2.15,3.66,3.22,5.5,2.11,3.59,4.19,7.21,6.27,10.82,1.36,2.34,2.77,4.64,4,7a5.76,5.76,0,0,0,2.47,2.37c3,1.75,6.09,3.51,9.15,5.24,1.48.84,2.75.52,3.41-.9a2,2,0,0,1-1,2.1,2.11,2.11,0,0,1-2.31-.1q-5.19-3-10.4-6a2.14,2.14,0,0,1-.79-.79q-4-7-8-13.89c-.14-.23-.3-.44-.46-.66q-2.79-4.89-5.59-9.77c-.08-.14-.12-.3-.19-.44S109.3,135.94,109.54,135.83Z"/><path class="cls-6" d="M76.15,155.89h3.71A13.56,13.56,0,0,1,76.15,155.89Z"/><path class="cls-6" d="M67.66,155.22c.4-.48.74-.51,1,.14A1.42,1.42,0,0,1,67.66,155.22Z"/><path class="cls-11" d="M58.46,83.14c-1.53-1.56-3.06-3.12-4.61-4.67a1.44,1.44,0,0,1-.48-1.14q0-15.06,0-30.12a6.1,6.1,0,0,1,6-6.11c3.14,0,6.29,0,9.43,0,.73,0,1-.14,1-.93,0-3.56,0-7.11,0-10.67,0-.48.06-.74.65-.74,5.25,0,10.51,0,15.76,0a2.23,2.23,0,0,1,.35,1.4q0,4.68,0,9.36c0,1.18,0,1.21,1.18,1.21,2.85,0,5.69,0,8.54,0a4,4,0,0,1,2.75.83,7.07,7.07,0,0,1,3.13,3.13,4,4,0,0,1,.82,2.68V76.84a2.92,2.92,0,0,1-.17,1.21,2.38,2.38,0,0,1-.43.56c-1.59,1.53-3.13,3.11-4.69,4.67-4,4-8,8-12,12-1.08,1.13-2.17,2.24-3.3,3.3a6.32,6.32,0,0,1-7.83.68c-1.51-1.21-2.77-2.67-4.15-4a3.13,3.13,0,0,0-.59-.5,18.2,18.2,0,0,1-2.15-2.24q-4.23-4.2-8.45-8.44A2.16,2.16,0,0,1,58.46,83.14Z"/><path class="cls-12" d="M102.14,78.53a.54.54,0,0,1,.33-.33,15.43,15.43,0,0,1,3.37-.64c1-.22.93-.25,1.11-1.27.47-2.66.17-5.33.29-8a19.6,19.6,0,0,0,.32-2.84c-.15-1.47.08-2.94-.1-4.41a5.39,5.39,0,0,1,.23-2.11,15.4,15.4,0,0,0,.16-6,4.58,4.58,0,0,0-1-2.8.63.63,0,0,1-.13-.82c.25.22.5.42.73.65l23.21,23.21,4,4c.16.17.49.31.36.58s-.44.14-.67.14H120c-.31,0-.66-.11-.93.16h0a1.16,1.16,0,0,1-.71.15c-2.62-.11-5.23.17-7.85.16a4.58,4.58,0,0,0-.74,0c-1.19.13-1.37.31-1.39,1.53a8.87,8.87,0,0,1-.62,2.86,9.43,9.43,0,0,0-.6,3.1,19.55,19.55,0,0,1-.25,2.52c-.24,1.46.47,2.77.61,4.17.21,2.07,1.37,3.72,2.44,5.38a6.3,6.3,0,0,1,1.19,1.89c.05.21.32.28.49.41s.47.31.39.65a20.74,20.74,0,0,1-2.31,3c-.59,0-.74-.5-1-.88-2.09-3.61-4.19-7.21-6.25-10.84-.34-.61-.89-1.13-.82-1.92.07-2.63.4-5.25.57-7.88a19.51,19.51,0,0,0-.15-3.16A1.58,1.58,0,0,1,102.14,78.53Z"/><path class="cls-13" d="M106.74,49.3c.07.15.09.33.2.43,1,1,1.1,2.23,1.29,3.5a18.51,18.51,0,0,1-.46,7c-.13.55.15,1.1.09,1.62-.21,1.88.19,3.76-.21,5.67a21.27,21.27,0,0,0-.1,4.38,13,13,0,0,1-.22,3.57,2.22,2.22,0,0,0-.08,1c.16.8-.18,1.08-.94,1.24-1.12.25-2.27.21-3.38.54-.13,0-.3-.08-.46-.13a1.46,1.46,0,0,0,.17-.94q0-14.93,0-29.83a10,10,0,0,0-.49-2.72C103.75,46.17,105.27,47.71,106.74,49.3Z"/><path class="cls-14" d="M99,41.58a9.64,9.64,0,0,0-3.7-.5c-2.76,0-5.52,0-8.28,0-.64,0-.84-.18-.84-.83,0-3.83,0-7.65,0-11.48a3.64,3.64,0,0,1,.45.35L98.71,41.2A3.68,3.68,0,0,1,99,41.58Z"/><path class="cls-15" d="M58.46,83.14l8.08,8c1.15,1.15,2.28,2.34,3.42,3.5a.74.74,0,0,1,0,.85c-.42.78-.86,1.56-1.33,2.32-.1.15-.22.31-.46.24.19-1-.54-1.56-1.1-2.15-1.51-1.57-3.08-3.1-4.62-4.64-1.33-1.33-2.56-2.75-3.82-4.14a2.13,2.13,0,0,1-.37-2.73c.14-.26.34-.55-.06-.77Z"/><path class="cls-16" d="M96.55,114.63a41.05,41.05,0,0,1-12,3.89,39.68,39.68,0,0,1-15.91-.6,5.07,5.07,0,0,1-.84-4.72,15.26,15.26,0,0,1,4-6.87c.08-.08.18-.14.22-.24.63-1.46,1.93-1.9,3.3-2.37,1.2-.42,2.49-.39,3.64-.91a1.13,1.13,0,0,1,.57-.09,20.14,20.14,0,0,0,5.48-.3.75.75,0,0,1,.33,0c1.44.3,2.88-.12,4.32,0,.43.08.6.44.79.77,2,3.44,4,6.91,6,10.34C96.62,113.85,96.88,114.21,96.55,114.63Z"/><path class="cls-17" d="M101.81,90.36q1.72,3.06,3.46,6.11,1.92,3.36,3.88,6.7c.14.25.23.57.55.69a17.65,17.65,0,0,1-3.36,3.85,46.7,46.7,0,0,1-5,4,36.55,36.55,0,0,1-4.34,2.59,8.2,8.2,0,0,1-1.5-2.31c-2-3.54-4.11-7.08-6.12-10.64a1.49,1.49,0,0,1,.3-2.13c2.59-2.35,5-4.92,7.47-7.36.64-.63,1.26-1.29,1.92-1.91a1.67,1.67,0,0,0,.57-1.61c-.06-.37-.2-.87.48-.87A5.77,5.77,0,0,1,101.81,90.36Z"/><path class="cls-18" d="M112,100.89c-.11-.26-.34-.32-.58-.41a1,1,0,0,1-.76-1,.77.77,0,0,0-.24-.68c-1.48-1.09-1.94-2.85-2.83-4.32-.35-.59-.21-1.33-.44-2a12.69,12.69,0,0,1-.3-6.56,3.07,3.07,0,0,0,0-1.13,1.32,1.32,0,0,1,.09-.88,10,10,0,0,0,1.1-4.87.62.62,0,0,1,.54-.7,9.26,9.26,0,0,1,1.35-.28c2.69-.08,5.39-.12,8.08-.17a1.83,1.83,0,0,1,1,.16l0,.67c-.14.55.06,1.12-.11,1.67a38.41,38.41,0,0,1-2.38,11.76A37,37,0,0,1,112,100.89Z"/><path class="cls-19" d="M89.68,102.47a.45.45,0,0,1-.43.19c-1.15-.2-2.28.45-3.45,0a2.67,2.67,0,0,0-1.5.19,9.24,9.24,0,0,1-2.24.1,2.37,2.37,0,0,0-1.2.21c-.19.12-.45.21-.62.06-.63-.56-1.21-.14-1.83,0-1.19.31-2.39.59-3.59.81a4.76,4.76,0,0,0-2.4,1.91.88.88,0,0,1-.29.48A13.73,13.73,0,0,0,68,113.79a4,4,0,0,0,.44,3.19,1.49,1.49,0,0,1,.23.94,31.84,31.84,0,0,1-7.22-2.44,4.79,4.79,0,0,1,.25-2.46,48.11,48.11,0,0,1,4.21-8.66c.12-.21.28-.46.52-.49a1.84,1.84,0,0,0,1.4-1.14,6.17,6.17,0,0,1,3.07-2.45,8.08,8.08,0,0,1,3.69-1.22,6.18,6.18,0,0,0,7.72-.73c1.1-1.06,2.18-2.13,3.27-3.19.36,0,.47.35.62.6,1.11,1.9,2.16,3.83,3.26,5.74A1.17,1.17,0,0,1,89.68,102.47Z"/><path class="cls-20" d="M89.68,102.47l-4.13-7.33,9.54-9.59c.81-.81,1.64-1.6,2.46-2.4a.7.7,0,0,1,.57.41c.7,1.12,1.32,2.29,2,3.43.09.17.24.38,0,.58-.44.18-.22.48-.16.76a1.66,1.66,0,0,1-.5,1.69c-2.92,2.88-5.81,5.79-8.7,8.68l-.12.12c-1.55,1.49-1.55,1.49-.48,3.35l6.55,11.33a5.9,5.9,0,0,1,.34.82l-.5.31a.84.84,0,0,0-.18-.68l-6.54-11.3A1.3,1.3,0,0,0,89.68,102.47Z"/><path class="cls-19" d="M74.56,99.06c-.13.25-.35.29-.61.33a8.57,8.57,0,0,0-3.33,1.41,5.33,5.33,0,0,1-.9.37c-1.06.46-1.43,1.52-2.11,2.32-.26.3-.38.74-.94.54-.25-.09-.39.12-.5.32a57.6,57.6,0,0,0-4.29,8.79c-.28.77,0,1.63-.46,2.34l-2-.83a1.41,1.41,0,0,1,.23-1.3q3.72-6.48,7.47-12.95c.91-1.58,1.8-3.17,2.73-4.73.14-.24.25-.5.57-.54Z"/><path class="cls-21" d="M70.46,95.13,59.83,113.61c-.18.32-.51.6-.37,1a1.57,1.57,0,0,1,.17-1.74q4.27-7.41,8.52-14.84A15.06,15.06,0,0,0,70,94.66C70.2,94.74,70.32,95,70.46,95.13Z"/><path class="cls-1" d="M118.91,80.38a3.92,3.92,0,0,1,.11-1.67A4.27,4.27,0,0,1,118.91,80.38Z"/><path class="cls-22" d="M109.54,135.83l-.18.51L109,136l-2.28-4a28.54,28.54,0,0,0-1.85-3.22,54.21,54.21,0,0,0,11-7.65c.82-.73,1.56-1.53,2.4-2.23a29,29,0,0,0,1.87,3.42c.16.29.3.58.44.87-.18,0-.33.14-.25.33.51,1.22-.3,1.91-1.08,2.56a62.39,62.39,0,0,1-9.92,6.75c-1,.52-1,.72-.55,1.68C109.08,135,109.47,135.32,109.54,135.83Z"/><path class="cls-6" d="M54.18,148.42a.88.88,0,0,1-.27.77,4.89,4.89,0,0,1-.47.57A2.9,2.9,0,0,1,54.18,148.42Z"/><path class="cls-23" d="M77.51,75.9a9.65,9.65,0,0,1-8.67-5.66A10.2,10.2,0,0,1,76,55.62a10.34,10.34,0,0,1,12,7.73,2.67,2.67,0,0,1,0,.4c-.28.21-.47,0-.63-.17a3.75,3.75,0,0,0-2.76-1.33,17,17,0,0,0-4.4.21c-3.52.58-6.25,5.11-5.35,8.13A6.27,6.27,0,0,0,76,72.94c.57.69.88,1.56,1.53,2.21A.52.52,0,0,1,77.51,75.9Z"/><path class="cls-24" d="M77.51,75.9c0-.14,0-.33-.07-.4-.91-.71-1.2-1.86-1.94-2.69a4.8,4.8,0,0,1-1-3.76A7.59,7.59,0,0,1,79,62.52a5.27,5.27,0,0,1,2.14-.5,18.36,18.36,0,0,1,3.56,0,6,6,0,0,1,2.39.81c.39.25.42.85.94,1a10.17,10.17,0,0,1-7.43,11.87A9.66,9.66,0,0,1,77.51,75.9Z"/><path class="cls-13" d="M100.12,87.57l-2.57-4.42c1.47-1.6,3-3.12,4.59-4.62a9.15,9.15,0,0,1,.44,3.38c-.06,1.38-.29,2.74-.31,4.12a42.4,42.4,0,0,1-.46,4.33Z"/></g></g></svg>