<svg xmlns="http://www.w3.org/2000/svg" viewBox="0 0 155 174.91"><defs><style>.cls-1{fill:#1572b5;}.cls-2{fill:#35a7da;}.cls-3{fill:#f8f8f7;}.cls-4{fill:#fefefd;}.cls-5{fill:#e8e8e7;}</style></defs><g id="Layer_2" data-name="Layer 2"><g id="Layer_3" data-name="Layer 3"><path class="cls-1" d="M77.53,0h76.52a2.54,2.54,0,0,0,.39,0c.47-.06.6.08.55.59-.38,4.06-.73,8.12-1.09,12.19s-.73,8.08-1.1,12.12q-.59,6.69-1.18,13.38-.54,6.06-1.09,12.12-.6,6.69-1.18,13.38c-.36,4-.74,8.08-1.1,12.13s-.71,8.08-1.07,12.13-.73,8.08-1.09,12.12q-.6,6.69-1.18,13.38-.56,6.06-1.1,12.12t-1.07,12.13q-.54,6.07-1.1,12.13c-.2,2.3-.41,4.61-.59,6.92a.7.7,0,0,1-.59.74q-12.54,3.45-25.09,6.94l-36.9,10.23a3.86,3.86,0,0,1-2.13,0l-61.16-17c-1.12-.31-1.15-.3-1.25-1.44-.34-3.64-.66-7.29-1-10.93l-1-10.77c-.33-3.65-.65-7.29-1-10.94s-.64-7.21-1-10.82l-1-10.83-1-10.82c-.33-3.65-.65-7.29-1-10.94s-.64-7.22-1-10.82l-1-10.83-1-10.82c-.33-3.65-.65-7.29-1-10.94S2.62,29.63,2.3,26s-.64-7.22-1-10.83L.37,4.35C.25,3,.14,1.7,0,.38,0,.11.06,0,.34,0H77.53Z"/><path class="cls-2" d="M77.51,31.32V11.85c0-.9,0-.9.92-.9h63.81c.84,0,.83,0,.76.81-.36,4-.7,8.08-1.06,12.12-.32,3.59-.66,7.17-1,10.76-.29,3.19-.55,6.38-.84,9.57s-.58,6.34-.87,9.51c-.24,2.78-.47,5.55-.72,8.33s-.51,5.51-.76,8.27-.47,5.47-.72,8.21c-.2,2.32-.42,4.64-.63,7s-.41,4.72-.62,7.08-.41,4.61-.62,6.91l-.63,7-.63,7.08c-.21,2.31-.41,4.61-.62,6.91s-.41,4.65-.61,7-.43,4.68-.64,7-.43,4.79-.65,7.19c-.19,2.21-.41,4.42-.58,6.63a.78.78,0,0,1-.69.8c-6.6,1.81-13.2,3.65-19.79,5.47l-32,8.87c-.79.22-.8.21-.8-.6V143.6a.63.63,0,0,1,.22-.33c1.6-.59,3.26-1,4.9-1.48L108,134.4l8.69-2.53c1-.29,1.12-.43,1.21-1.44.29-3,.53-6.08.8-9.12.29-3.23.57-6.46.86-9.68.25-2.87.49-5.74.74-8.61.2-2.34.41-4.69.62-7s.41-4.75.62-7.13q.36-4.27.74-8.56c.17-2,.36-4,.51-6,0-.6.11-1.21.17-1.81s-.17-1-.89-1c-.26,0-.53,0-.8,0H78.91c-.32,0-.64,0-1,0s-.42,0-.45-.34c.15-.36.5-.46.82-.6,3.49-1.52,7-3,10.52-4.5Q98.9,61.69,109,57.4c4.8-2,9.59-4.13,14.4-6.14l0,0a2,2,0,0,0,1.51-2q.57-6.09,1.22-12.17c.16-1.48.3-3,.44-4.47.07-.66-.14-.9-.81-.94H125q-23.21,0-46.39,0C78.26,31.61,77.8,31.77,77.51,31.32Z"/><path class="cls-3" d="M77.64,71.07c.21.24.5.12.74.12h44.11c.82,0,.85,0,.78.82-.2,2.44-.43,4.87-.64,7.3-.17,1.93-.32,3.85-.49,5.78s-.35,4-.52,5.94-.33,3.85-.5,5.77-.36,4-.53,6.06-.33,3.81-.5,5.72-.35,4-.53,6-.33,3.78-.49,5.66l-.54,6.17c-.13,1.53-.27,3.06-.37,4.59a.84.84,0,0,1-.7.91q-19.68,5.7-39.35,11.44l-.38.08c-.37.1-.41-.19-.47-.41a2.16,2.16,0,0,1,0-.57q0-9.66,0-19.31c0-.35-.09-.73.29-1v0a1.39,1.39,0,0,1,.81-.5q9.66-2.75,19.34-5.44l.87-.25c.88-.26,1.08-.54,1.12-1.47.16-3.1.36-6.2.54-9.3.14-2.27.26-4.54.39-6.81s.24-4.31.39-6.47c.06-.82-.16-1.11-1-1.11-2.69,0-5.39.07-8.08,0-4.49-.15-9,0-13.48-.09-.32,0-.65,0-.88-.27l-.74,0Q55,90.36,33.3,90.32c-.48,0-.61-.15-.64-.6Q32,81.59,31.38,73.45c-.05-.57-.06-1.14-.16-1.7-.06-.39.06-.55.42-.7,3.42-1.41,6.82-2.84,10.22-4.26l35.28-14.7.37-.13c.25.11.26.34.27.57,0,.42,0,.84,0,1.25V69.87A2.86,2.86,0,0,1,77.64,71.07Z"/><path class="cls-4" d="M77.64,71.07a2,2,0,0,1-.13-1V52a13.27,13.27,0,0,1,2.26-1c-.08-.24-.28-.12-.43-.13-.51,0-1,0-1.53,0s-.56-.15-.57-.52c0-.18,0-.35,0-.52q0-8.72,0-17.43c0-.36-.1-.77.28-1v0h48.83c.46,0,.68,0,.61.61-.32,2.6-.56,5.21-.82,7.82-.2,2.07-.38,4.14-.58,6.2-.15,1.53-.31,3-.45,4.57,0,.34-.26.41-.51.52l-10.85,4.64L78.12,70.91A4.5,4.5,0,0,1,77.64,71.07Z"/><path class="cls-5" d="M77.52,122.22q0,10.31,0,20.6c0,.24,0,.5.22.67l-.22.11c-2.25-.67-4.49-1.36-6.75-2l-33.61-9.91a.61.61,0,0,1-.54-.64c-.34-4.37-.72-8.73-1.08-13.1s-.71-8.66-1.07-13c-.09-1.12-.18-2.23-.3-3.35,0-.37,0-.54.45-.54H53.85c.29,0,.43.06.45.4.25,3.1.52,6.2.78,9.3.16,1.91.32,3.81.46,5.72,0,.37.25.41.52.48l13.78,3.41L77,122.12A5,5,0,0,0,77.52,122.22Z"/><path class="cls-5" d="M77.51,31.36V50c0,.8,0,.83.84.85a5.49,5.49,0,0,1,1.46.06s0,0,0,0,0,.05-.06.08c-1-.05-2-.13-3-.13H30.27c-.85,0-.84,0-.94-.83q-1-8-2-16.08c-.09-.73-.17-1.47-.27-2.2,0-.3.06-.43.36-.4H77.51Z"/><path class="cls-2" d="M77.51,90.44l11.21,0c4,0,8,0,12,0,.46,0,.63.09.59.59-.15,2.29-.28,4.58-.41,6.87l-.39,6.75q-.21,3.41-.41,6.81c-.08,1.34-.17,2.68-.24,4a.47.47,0,0,1-.41.5q-10.92,3-21.82,6.12h-.12Z"/></g></g></svg>