<svg xmlns="http://www.w3.org/2000/svg" viewBox="0 0 149 171.16"><defs><style>.cls-1{fill:#00a818;}.cls-2{fill:#fff;}</style></defs><g id="Layer_2" data-name="Layer 2"><g id="Layer_3" data-name="Layer 3"><path class="cls-1" d="M75.29,0A75.48,75.48,0,0,0,60.92,149.55v21.61c45.06-6.81,85-42.68,87.93-89.76,1.79-28.34-12.3-57.27-36.07-71.31-1.36-.81-2.74-1.61-4.16-2.31s-2.94-1.41-4.46-2l-1.43-.57c-1.32-.49-2.66-1-4-1.44A74.3,74.3,0,0,0,75.29,0Z"/><path class="cls-2" d="M90.88,27.9a8.21,8.21,0,0,0-7.2,2.88,33.6,33.6,0,0,0-3.16,5.49,17.74,17.74,0,0,0,2.3,18.48,20.28,20.28,0,0,0,14.68-12,14.42,14.42,0,0,0,1.44-6.06c.29-4.91-3.76-8.36-8.06-8.8Zm-33.54.43c-4.21.4-8.21,3.75-8.21,8.37a14.57,14.57,0,0,0,1.44,6.06,21,21,0,0,0,15.12,12,19.18,19.18,0,0,0-1.3-23.53,8.06,8.06,0,0,0-7-2.89ZM34.73,50.56a8,8,0,0,0-4.46,14.29,34,34,0,0,0,5.47,3.32A20.72,20.72,0,0,0,55.18,66.3c-1.38-6-6.08-11.52-12.53-14.3a16.48,16.48,0,0,0-6.48-1.44,8.65,8.65,0,0,0-1.44,0Zm71,28A21,21,0,0,0,93.76,82c1.38,6,6.08,11.52,12.53,14.29a16.32,16.32,0,0,0,6.48,1.45c8.29.46,12.35-9.82,5.9-14.44a34,34,0,0,0-5.47-3.17,19.9,19.9,0,0,0-7.49-1.59ZM42.8,79a19.9,19.9,0,0,0-7.49,1.59,15.63,15.63,0,0,0-5.47,3.32c-6,5.08-2,14.75,6.33,14.29a14.86,14.86,0,0,0,6.48-1.44c6.45-2.77,11-8.29,12-14.29A20.56,20.56,0,0,0,42.8,79ZM66.12,93.15a20.24,20.24,0,0,0-14.68,12A13.85,13.85,0,0,0,50,111.05c-.47,7.85,10.22,12.07,14.82,6.06A32.49,32.49,0,0,0,68,111.63a19,19,0,0,0-1.87-18.48Zm17.13.43a19.18,19.18,0,0,0,1.3,23.53c5.07,5.55,15.72,1.45,15.26-5.48a14.65,14.65,0,0,0-1.44-6.07,21,21,0,0,0-15.12-12Z"/></g></g></svg>