<svg xmlns="http://www.w3.org/2000/svg" viewBox="0 0 149 145.27"><defs><style>.cls-1{fill:#460136;}.cls-2{fill:#fe61f5;}.cls-3{fill:#470137;}</style></defs><g id="Layer_2" data-name="Layer 2"><g id="Layer_3" data-name="Layer 3"><path class="cls-1" d="M0,120.57V24.71c.11-1,.1-2.08.2-3.11a20.23,20.23,0,0,1,1.63-5.7A26,26,0,0,1,8.48,6.59,25.66,25.66,0,0,1,20.74.32,23.46,23.46,0,0,1,24,.06,1.51,1.51,0,0,0,24.71,0h99.58c1,.11,2.08.1,3.11.2a19.92,19.92,0,0,1,5.7,1.64,26.08,26.08,0,0,1,9.31,6.63,26.83,26.83,0,0,1,5.2,8.52,20,20,0,0,1,1.33,7.36.51.51,0,0,0,.06.36v95.86c-.1,1-.1,2.07-.2,3.1a20.15,20.15,0,0,1-1.64,5.7,26.32,26.32,0,0,1-6.64,9.31,26.7,26.7,0,0,1-8.51,5.21,20.17,20.17,0,0,1-7.36,1.32.51.51,0,0,0-.36.06H24.71c-1-.11-2.08-.09-3.11-.2a20.56,20.56,0,0,1-5.7-1.63,26.52,26.52,0,0,1-8.84-6.15,27,27,0,0,1-5.61-8.83,19.74,19.74,0,0,1-1.39-7.35C.06,120.93.12,120.73,0,120.57Z"/><path class="cls-2" d="M14.15,69.9V38.5c0-1,.15-1.19,1.19-1.22C21.89,37.12,28.45,36.9,35,37A38.49,38.49,0,0,1,49.47,39.8,27.12,27.12,0,0,1,66.05,59.34a38.49,38.49,0,0,1-1.34,23.53c-3.44,8.76-9.88,14.55-18.63,17.83a36.63,36.63,0,0,1-12.83,2.18c-6,0-11.95,0-17.93-.18-1,0-1.16-.16-1.16-1.2Q14.15,85.71,14.15,69.9Z"/><path class="cls-2" d="M89.31,89c.19-1.15.36-2.31.59-3.46C92,75.09,94,64.57,96.77,54.23a3.15,3.15,0,0,0,.09-.42.9.9,0,0,1,1-.86q5.86,0,11.73,0a.86.86,0,0,1,1,.8c1.88,8.21,3.71,16.44,5.18,24.74.63,3.53,1.27,7.07,1.7,10.64a4,4,0,0,0,.11.4,10.21,10.21,0,0,0,.59-2.5c1.77-11.14,4-22.19,6.62-33.17.19-.83.37-1,1.24-1h10c1.09,0,1.24.2.94,1.27q-3.4,12.17-6.82,24.33-3.21,11.45-6.43,22.9c0,.12-.06.24-.1.36-.33.89-.4.94-1.33.94H111.5c-1,0-1.25-.22-1.46-1.15-.67-2.9-1.34-5.8-2-8.7-1.58-7-3-14.15-4.31-21.25-.26-1.38-.48-2.77-.73-4.19-.28.24-.24.58-.3.85-2.3,11.19-5.07,22.27-7.87,33.34-.25,1-.44,1.1-1.42,1.1h-11c-1,0-1.3-.21-1.56-1.22L72.14,67.12l-3.29-13c-.22-.88-.08-1.06.86-1.06H81.07c.89,0,1,.1,1.21,1,1.64,7.25,3.26,14.51,4.59,21.83C87.64,80,88.32,84.25,89,88.46c0,.2.09.4.14.6Z"/><path class="cls-3" d="M27.25,70V50.3c0-1,0-1,.95-1a52.41,52.41,0,0,1,8.68,0c4.4.55,8.44,1.92,11.63,5.21a17.46,17.46,0,0,1,4.55,9.14,27.54,27.54,0,0,1-1.34,15.66c-2.49,6.28-7.24,9.92-13.86,11.21a33.65,33.65,0,0,1-9,.23,5.49,5.49,0,0,0-1,0c-.52.06-.61-.18-.6-.64Q27.27,80,27.25,70Z"/></g></g></svg>