<svg xmlns="http://www.w3.org/2000/svg" viewBox="0 0 100 149.68"><defs><style>.cls-1{fill:#f24e1e;}.cls-2{fill:#fd7161;}.cls-3{fill:#a159fe;}.cls-4{fill:#0bcd82;}.cls-5{fill:#1bbbfb;}.cls-6{fill:#f4f9fb;}</style></defs><g id="Layer_2" data-name="Layer 2"><g id="Layer_3" data-name="Layer 3"><path class="cls-1" d="M19.64,49.77C2.26,41.93-4.22,28.46,2.76,14.15,7,5.56,14,.56,23.58.15,32.36-.23,41.18.22,50,.3c.35.39,1,.74,1,1.16,2.18,16.12,3.09,32.23-.48,48.3A41.54,41.54,0,0,1,19.64,49.77Z"/><path class="cls-2" d="M49.88,49.57q0-24.63.1-49.27C58,.21,66.05,0,74.08.06,87.23.19,97.46,8.53,99.62,20.65c2.07,11.68-4.41,22.61-16.4,27.68a29.25,29.25,0,0,0-2.68,1.48C77.16,53,72.91,51.75,69,52.1c-5.68-.59-11.46.68-17.1-.84A4.06,4.06,0,0,1,49.88,49.57Z"/><path class="cls-3" d="M19.64,49.77l30.24-.2a.91.91,0,0,0,.07.85c4.49,5.64,1.25,12.3,2.46,18.38-.1,4.39.81,9-2.23,12.84l-.39,18.14a42.63,42.63,0,0,1-30.2,0c-2.94-1.54-6.1-2.77-8.78-4.67-15.57-11-13.72-34,3.34-42.66C16,51.53,17.81,50.67,19.64,49.77Z"/><path class="cls-4" d="M19.59,99.79h30.2c.1,8,.34,16.09.26,24.13-.13,13.38-9.14,23.9-21.62,25.56S4,142.84.81,130.48c-3-11.74,3.32-23.83,15.29-29.06C17.28,100.91,18.43,100.33,19.59,99.79Z"/><path class="cls-5" d="M50.18,81.64q0-6.7,0-13.4C51.89,57.61,58,51.5,68.7,50l11.85-.23c5.57,2.72,11.17,5.25,14.82,10.77,8.11,12.25,5,27.81-7.22,35.39-12.49,7.72-28.31,3.29-35.34-9.78C52,84.65,52.09,82.54,50.18,81.64Z"/><path class="cls-6" d="M68.7,50a32.36,32.36,0,0,0-18.48,18.2L50,50.42C56.18,49.26,62.45,49.87,68.7,50Z"/></g></g></svg>