<svg xmlns="http://www.w3.org/2000/svg" viewBox="0 0 156 125.41"><defs><style>.cls-1{fill:#ea4335;}.cls-2{fill:#4285f4;}.cls-3{fill:#34a853;}.cls-4{fill:#fbbc05;}</style></defs><g id="Layer_2" data-name="Layer 2"><g id="Layer_3" data-name="Layer 3"><path class="cls-1" d="M103.75,34.62l13.56-13.56.9-5.71C93.5-7.12,54.22-4.57,31.94,20.67A62.81,62.81,0,0,0,18.72,45.44l4.85-.68,27.12-4.47,2.1-2.15a34,34,0,0,1,46.39-3.75Z"/><path class="cls-2" d="M136.62,45a61.08,61.08,0,0,0-18.41-29.69l-19,19A33.83,33.83,0,0,1,111.6,61.22V64.6a16.85,16.85,0,1,1,0,33.69H77.67l-3.33,3.61v20.32l3.33,3.19H111.6a43.94,43.94,0,0,0,25-80.37"/><path class="cls-3" d="M43.8,125.41H77.67V98.29H43.8a16.49,16.49,0,0,1-6.95-1.53L32,98.24,18.39,111.8l-1.19,4.61a43.93,43.93,0,0,0,26.6,9"/><path class="cls-4" d="M43.8,37.43a44.06,44.06,0,0,0-26.6,79L36.85,96.76A16.94,16.94,0,1,1,59.26,74.35L78.91,54.7A44,44,0,0,0,43.8,37.43"/></g></g></svg>