<svg xmlns="http://www.w3.org/2000/svg" viewBox="0 0 219.86 64"><defs><style>.cls-1{fill:#5e79f5;fill-rule:evenodd;}.cls-2{fill:#2c46be;}.cls-3{fill:#8f98bb;}</style></defs><g id="Layer_2" data-name="Layer 2"><g id="Layer_1-2" data-name="Layer 1"><path class="cls-1" d="M40.46,49.28A27.35,27.35,0,0,0,51.67,27c0-14.92-11.57-27-25.84-27S0,12.09,0,27A27.37,27.37,0,0,0,10.53,48.77h0L25.51,64Zm0,0,.33-.33L30,38a11.86,11.86,0,0,0,7.15-11A11.61,11.61,0,0,0,25.83,15.15,11.61,11.61,0,0,0,14.49,27a11.88,11.88,0,0,0,7,11l-11,10.8a24.93,24.93,0,0,0,29.93.51ZM21.49,38A10.92,10.92,0,0,0,30,38l-4.24-4.3Z"/><path class="cls-2" d="M19.67,42.57a1.28,1.28,0,0,0,.71,1.76,15.53,15.53,0,0,0,5.23.88,15.74,15.74,0,0,0,5.23-.93,1.29,1.29,0,0,0,.69-1.77,1.5,1.5,0,0,0-1.85-.73,12.79,12.79,0,0,1-8.17,0A1.5,1.5,0,0,0,19.67,42.57Z"/><circle class="cls-2" cx="25.54" cy="30.24" r="2.05"/><path class="cls-2" d="M16.26,46.85a1.28,1.28,0,0,0,.18,1.88,15.54,15.54,0,0,0,18,.16A1.28,1.28,0,0,0,34.62,47a1.49,1.49,0,0,0-2-.23,12.83,12.83,0,0,1-14.41-.13A1.5,1.5,0,0,0,16.26,46.85Z"/><path class="cls-3" d="M64.29,52.14a4.1,4.1,0,0,1-1.54-.3A3.86,3.86,0,0,1,61.46,51l.81-1a3.53,3.53,0,0,0,1,.65,2.64,2.64,0,0,0,1.08.24,1.63,1.63,0,0,0,1-.27.91.91,0,0,0,.35-.74.72.72,0,0,0-.1-.4.7.7,0,0,0-.25-.29A1.55,1.55,0,0,0,65,49l-.48-.22-1.08-.47a4,4,0,0,1-.58-.3,2.53,2.53,0,0,1-.5-.43,2,2,0,0,1-.37-.59,2,2,0,0,1-.14-.76,2,2,0,0,1,.2-.87,2.23,2.23,0,0,1,.55-.71,2.47,2.47,0,0,1,.83-.46A3,3,0,0,1,64.44,44a3.32,3.32,0,0,1,1.32.27,3.5,3.5,0,0,1,1.1.72l-.71.89a3.54,3.54,0,0,0-.79-.49,2.29,2.29,0,0,0-.92-.18,1.48,1.48,0,0,0-.9.25.79.79,0,0,0-.33.67.82.82,0,0,0,.09.4,1.9,1.9,0,0,0,.28.29c.12.08.26.15.41.23l.47.19,1.06.44a3.51,3.51,0,0,1,.64.34,2.08,2.08,0,0,1,.49.44,1.82,1.82,0,0,1,.34.59,2.2,2.2,0,0,1,.12.76,2.27,2.27,0,0,1-.19.9,2.23,2.23,0,0,1-.57.74,2.55,2.55,0,0,1-.89.5A3.51,3.51,0,0,1,64.29,52.14ZM68.78,52V44.15H73.5v1.18H70.17v2H73v1.18H70.17v2.31h3.45V52Zm6.69,0V44.15H76.9l2.45,4.42.8,1.67h0c0-.41-.07-.85-.12-1.31S80,48,80,47.56V44.15h1.33V52H79.92l-2.44-4.42-.81-1.66h0c0,.41.07.85.11,1.3a12.46,12.46,0,0,1,.07,1.35V52Zm10.41.14a4.1,4.1,0,0,1-1.54-.3A4,4,0,0,1,83.05,51l.81-1a3.53,3.53,0,0,0,1,.65,2.64,2.64,0,0,0,1.08.24,1.63,1.63,0,0,0,1-.27.88.88,0,0,0,.35-.74.82.82,0,0,0-.09-.4.72.72,0,0,0-.26-.29,1.55,1.55,0,0,0-.38-.24c-.14-.07-.3-.15-.48-.22L85,48.3a4.6,4.6,0,0,1-.58-.3,2.53,2.53,0,0,1-.5-.43,2,2,0,0,1-.37-.59,2,2,0,0,1-.13-.76,2,2,0,0,1,.19-.87,2.23,2.23,0,0,1,.55-.71,2.47,2.47,0,0,1,.83-.46A3.08,3.08,0,0,1,86,44a3.39,3.39,0,0,1,1.32.27,3.57,3.57,0,0,1,1.09.72l-.71.89A3.54,3.54,0,0,0,87,45.4a2.24,2.24,0,0,0-.91-.18,1.44,1.44,0,0,0-.9.25.77.77,0,0,0-.34.67.72.72,0,0,0,.1.4,1.45,1.45,0,0,0,.27.29c.12.08.26.15.41.23l.47.19,1.07.44a3.77,3.77,0,0,1,.63.34,2.08,2.08,0,0,1,.49.44,1.82,1.82,0,0,1,.34.59,2.2,2.2,0,0,1,.12.76,2.11,2.11,0,0,1-.19.9,2.23,2.23,0,0,1-.57.74,2.6,2.6,0,0,1-.88.5A3.61,3.61,0,0,1,85.88,52.14Zm7.53,0a3.53,3.53,0,0,1-1.4-.27,3.14,3.14,0,0,1-1.09-.82,3.83,3.83,0,0,1-.71-1.29A5.41,5.41,0,0,1,90,48a5.18,5.18,0,0,1,.25-1.69,3.47,3.47,0,0,1,.71-1.27,3.08,3.08,0,0,1,1.09-.8,3.53,3.53,0,0,1,1.4-.27,3.58,3.58,0,0,1,1.41.27,3.08,3.08,0,0,1,1.09.8,3.49,3.49,0,0,1,.72,1.27A5.18,5.18,0,0,1,96.88,48a5.41,5.41,0,0,1-.25,1.72,3.85,3.85,0,0,1-.72,1.29,3.14,3.14,0,0,1-1.09.82A3.58,3.58,0,0,1,93.41,52.14Zm0-1.21a1.74,1.74,0,0,0,.84-.2,2,2,0,0,0,.64-.58,2.93,2.93,0,0,0,.41-.91,4.94,4.94,0,0,0,.14-1.2A3.36,3.36,0,0,0,94.89,46a1.82,1.82,0,0,0-3,0A3.43,3.43,0,0,0,91.39,48a4.49,4.49,0,0,0,.14,1.2,2.93,2.93,0,0,0,.41.91,1.93,1.93,0,0,0,.63.58A1.8,1.8,0,0,0,93.41,50.93ZM98.69,52V44.15h2.65a5.11,5.11,0,0,1,1.14.12,2.41,2.41,0,0,1,.92.4,1.83,1.83,0,0,1,.6.71,2.4,2.4,0,0,1,.22,1.1,2.19,2.19,0,0,1-1.56,2.24L104.54,52H103l-1.7-3.07h-1.2V52Zm1.39-4.18h1.12a1.93,1.93,0,0,0,1.22-.33,1.21,1.21,0,0,0,.44-1,1,1,0,0,0-.44-.95,2.35,2.35,0,0,0-1.22-.26h-1.12Zm10.2,0-.27,1h2l-.27-1c-.13-.41-.26-.84-.38-1.28L111,45.23h0l-.34,1.32C110.53,47,110.41,47.41,110.28,47.82ZM107.66,52l2.55-7.85h1.63L114.4,52h-1.46l-.62-2.12h-2.64L109.07,52Zm10.24.14a4.1,4.1,0,0,1-1.54-.3,4,4,0,0,1-1.29-.85l.81-1a3.53,3.53,0,0,0,1,.65,2.64,2.64,0,0,0,1.08.24,1.63,1.63,0,0,0,1-.27.88.88,0,0,0,.35-.74.72.72,0,0,0-.1-.4.63.63,0,0,0-.25-.29,1.55,1.55,0,0,0-.38-.24l-.48-.22L117,48.3a4,4,0,0,1-.58-.3,2.53,2.53,0,0,1-.5-.43,2,2,0,0,1-.37-.59,2,2,0,0,1-.13-.76,2,2,0,0,1,.19-.87,2.23,2.23,0,0,1,.55-.71,2.47,2.47,0,0,1,.83-.46,3.08,3.08,0,0,1,1.07-.17,3.39,3.39,0,0,1,1.32.27,3.57,3.57,0,0,1,1.09.72l-.71.89a3.54,3.54,0,0,0-.79-.49,2.27,2.27,0,0,0-.91-.18,1.49,1.49,0,0,0-.91.25.79.79,0,0,0-.33.67.72.72,0,0,0,.1.4,1.45,1.45,0,0,0,.27.29c.12.08.26.15.41.23l.47.19,1.07.44a3.77,3.77,0,0,1,.63.34,2.08,2.08,0,0,1,.49.44,1.82,1.82,0,0,1,.34.59,2.2,2.2,0,0,1,.12.76,2.27,2.27,0,0,1-.19.9,2.23,2.23,0,0,1-.57.74,2.55,2.55,0,0,1-.89.5A3.51,3.51,0,0,1,117.9,52.14Zm6.59,0A4.06,4.06,0,0,1,121.66,51l.81-1a3.53,3.53,0,0,0,1,.65,2.64,2.64,0,0,0,1.08.24,1.69,1.69,0,0,0,1-.27.9.9,0,0,0,.34-.74.82.82,0,0,0-.09-.4.78.78,0,0,0-.25-.29,1.84,1.84,0,0,0-.39-.24c-.14-.07-.3-.15-.48-.22l-1.08-.47A4.6,4.6,0,0,1,123,48a2.53,2.53,0,0,1-.5-.43,2.19,2.19,0,0,1-.37-.59,2,2,0,0,1-.13-.76,2,2,0,0,1,.19-.87,2.23,2.23,0,0,1,.55-.71,2.47,2.47,0,0,1,.83-.46,3.08,3.08,0,0,1,1.07-.17,3.39,3.39,0,0,1,1.32.27,3.57,3.57,0,0,1,1.09.72l-.71.89a3.32,3.32,0,0,0-.79-.49,2.24,2.24,0,0,0-.91-.18,1.44,1.44,0,0,0-.9.25.77.77,0,0,0-.34.67.72.72,0,0,0,.1.4,1.45,1.45,0,0,0,.27.29c.12.08.26.15.41.23l.47.19,1.07.44a3.77,3.77,0,0,1,.63.34,2.13,2.13,0,0,1,.5.44,2,2,0,0,1,.33.59,2.2,2.2,0,0,1,.12.76,2.11,2.11,0,0,1-.19.9,2.34,2.34,0,0,1-.56.74,2.65,2.65,0,0,1-.89.5A3.61,3.61,0,0,1,124.49,52.14ZM129,52V44.15h4.73v1.18h-3.34v2h2.82v1.18h-2.82v2.31h3.46V52Zm8.28,0V45.33H135V44.15h5.93v1.18h-2.27V52Zm7.85,0V44.15h1.57L148.07,48c.09.25.17.51.25.77s.17.51.26.77h0c.09-.26.17-.51.24-.77s.17-.52.26-.77l1.35-3.84h1.59V52h-1.29V48.41c0-.18,0-.38,0-.6l.05-.65c0-.22,0-.44.06-.64s.05-.42.06-.6h0l-.63,1.82L149,51.27h-.82l-1.3-3.53-.62-1.82h-.05c0,.18,0,.38.05.6s0,.42.06.64,0,.44,0,.65,0,.42,0,.6V52Zm10.79-4.18-.28,1h2l-.28-1c-.13-.41-.25-.84-.37-1.28s-.23-.88-.34-1.31h0l-.33,1.32C156.15,47,156,47.41,155.9,47.82ZM153.27,52l2.56-7.85h1.63L160,52h-1.46l-.61-2.12H155.3L154.69,52Zm7.95,0V44.15h1.43l2.45,4.42.8,1.67h0c0-.41-.07-.85-.12-1.31s-.06-.93-.06-1.37V44.15h1.33V52h-1.43l-2.44-4.42-.81-1.66h0c0,.41.07.85.11,1.3a12.46,12.46,0,0,1,.07,1.35V52Zm9.72-4.18-.27,1h2l-.27-1c-.13-.41-.26-.84-.38-1.28l-.33-1.31h-.05l-.34,1.32C171.19,47,171.07,47.41,170.94,47.82ZM168.32,52l2.55-7.85h1.63L175.06,52H173.6L173,49.88h-2.64L169.73,52Zm11.12.14a4,4,0,0,1-1.48-.26,3.34,3.34,0,0,1-1.17-.78,3.52,3.52,0,0,1-.77-1.27,5.36,5.36,0,0,1,0-3.45,3.77,3.77,0,0,1,.78-1.29,3.55,3.55,0,0,1,1.18-.81,3.91,3.91,0,0,1,1.46-.27,3,3,0,0,1,1.42.31,3.8,3.8,0,0,1,1,.68l-.75.9a2.92,2.92,0,0,0-.67-.48,1.89,1.89,0,0,0-.91-.2,2.32,2.32,0,0,0-1,.2,2,2,0,0,0-.73.57,2.51,2.51,0,0,0-.47.89,3.91,3.91,0,0,0-.17,1.18,3.38,3.38,0,0,0,.6,2.12,2.19,2.19,0,0,0,1.8.75,2.67,2.67,0,0,0,.64-.08,1.36,1.36,0,0,0,.49-.27V48.89h-1.49V47.75H182v3.46a3.33,3.33,0,0,1-1.06.67A3.75,3.75,0,0,1,179.44,52.14Zm4.49-.14V44.15h4.72v1.18h-3.33v2h2.82v1.18h-2.82v2.31h3.45V52Zm6.69,0V44.15h1.57l1.4,3.84c.08.25.17.51.25.77s.16.51.25.77h0c.09-.26.17-.51.24-.77s.16-.52.25-.77L196,44.15h1.58V52h-1.28V48.41c0-.18,0-.38,0-.6l0-.65a6.33,6.33,0,0,1,.06-.64q0-.33.06-.6h-.05l-.64,1.82-1.28,3.53h-.83l-1.3-3.53-.62-1.82h-.05c0,.18,0,.38.05.6s0,.42.06.64,0,.44.05.65,0,.42,0,.6V52Zm9.18,0V44.15h4.73v1.18H201.2v2H204v1.18H201.2v2.31h3.45V52Zm6.7,0V44.15h1.43l2.45,4.42.8,1.67h0c0-.41-.07-.85-.12-1.31s-.06-.93-.06-1.37V44.15h1.33V52H211l-2.44-4.42-.81-1.66h0c0,.41.07.85.11,1.3a12.46,12.46,0,0,1,.07,1.35V52Zm9.7,0V45.33h-2.27V44.15h5.93v1.18h-2.27V52Z"/><path class="cls-2" d="M71.54,35.24a11.55,11.55,0,0,1-4.49-.85,7.38,7.38,0,0,1-3.13-2.45,6.5,6.5,0,0,1-1.19-3.77h5.1a3.36,3.36,0,0,0,1,2.31,3.79,3.79,0,0,0,2.59.85,4,4,0,0,0,2.62-.78,2.67,2.67,0,0,0,1-2.11,2.45,2.45,0,0,0-.65-1.74,4.33,4.33,0,0,0-1.63-1.05,21.38,21.38,0,0,0-2.65-.88,33.65,33.65,0,0,1-3.78-1.33,6.9,6.9,0,0,1-2.48-2,5.83,5.83,0,0,1-1-3.6,6.34,6.34,0,0,1,1.06-3.67,6.55,6.55,0,0,1,3-2.38,10.54,10.54,0,0,1,4.36-.85,9.33,9.33,0,0,1,6,1.8,6.55,6.55,0,0,1,2.55,5H74.43a2.68,2.68,0,0,0-1.05-2,3.78,3.78,0,0,0-2.55-.82,3.38,3.38,0,0,0-2.25.72,2.6,2.6,0,0,0-.81,2.07,2.24,2.24,0,0,0,.61,1.6,5.4,5.4,0,0,0,1.56,1c.64.25,1.52.54,2.65.88a29,29,0,0,1,3.78,1.36,6.91,6.91,0,0,1,2.51,2,5.64,5.64,0,0,1,1.06,3.57,6.71,6.71,0,0,1-1,3.54,7.09,7.09,0,0,1-2.89,2.62A10,10,0,0,1,71.54,35.24ZM100,30.48H90.52L89,35H84L92.5,11.23H98L106.57,35h-5Zm-1.3-3.81-3.43-9.93-3.43,9.93ZM137,11.27V35h-4.76V19.56L125.88,35h-3.6l-6.4-15.44V35h-4.76V11.27h5.41l7.55,17.64,7.54-17.64Z"/></g></g></svg>