<svg xmlns="http://www.w3.org/2000/svg" viewBox="0 0 155 172.76"><defs><style>.cls-1{fill:#e24f26;}.cls-2{fill:#ee652a;}.cls-3{fill:#eaeaea;}.cls-4{fill:#fefefe;}.cls-5{fill:#e24209;}.cls-6{fill:#e94e00;}.cls-7{fill:#ed590b;}.cls-8{fill:#ed5b14;}</style></defs><g id="Layer_2" data-name="Layer 2"><g id="Layer_3" data-name="Layer 3"><path class="cls-1" d="M1.22,0h152c1.75,1.35,1.89,3.29,1.69,5.22-1.28,12.46-2.16,25-3.38,37.41S149.36,67.57,148.21,80c-1.5,16.28-2.81,32.58-4.38,48.86q-1,10.68-1.82,21.39c-.38,5.23-1.1,6.36-6.15,7.84q-22.28,6.54-44.69,12.57c-4.3,1.15-8.83,1.07-13.18,2.06H76.46c-19.88-2.49-38.55-9.74-57.82-14.63-3.56-.91-5.22-2.86-5.57-6.68q-1.92-21-3.75-42C8.22,97,7,84.57,5.93,72.11,4.81,59.26,3.53,46.43,2.51,33.58,1.73,23.78.47,14,0,4.19,0,2.62-.2,1.11,1.22,0Z"/><path class="cls-2" d="M78,30.7c-1.4-5-.72-10.15-.5-15.24.1-2.28,1.62-3.19,3.94-3.19q27.24.08,54.48,0c3.07,0,3.72,1.6,3.5,4.13-.58,6.87-1.15,13.73-1.77,20.59-.92,10.29-1.88,20.57-2.82,30.85Q133,87.65,131.2,107.45c-.87,9.78-1.69,19.57-2.52,29.35-.07.77,0,1.54-.06,2.3-.52,6.5-.57,6.45-6.86,8.15-13,3.5-25.88,7.13-38.83,10.63-4.76,1.29-5.68.65-5.63-4.4,0-4.57-.79-9.21.68-13.71.23-2.59,2.5-2.7,4.2-3.24,8.29-2.61,16.74-4.67,25.1-7,7.43-2.09,7.38-2.27,8.14-9.75,1.33-13.08,2.06-26.21,3.5-39.27.3-2.63.85-5.34-.39-7.91a9.53,9.53,0,0,1-.92-.87c-1.45-1.75-3.46-1.42-5.33-1.43-10.33,0-20.66,0-31,0-1.61,0-3.34.38-4.76-.87a30.63,30.63,0,0,1,0-18.06c1.33-1.39,3.08-1,4.69-1,8.65,0,17.3-.07,26,0a52.86,52.86,0,0,0,13.14-1.9c2.44-2.69,3.32-10.65,1.53-14.36a4.46,4.46,0,0,1-1-.76c-1.49-1.68-3.49-1.4-5.38-1.41-10.88,0-21.75,0-32.63,0-1.51,0-3.09.29-4.49-.61Z"/><path class="cls-3" d="M121.71,70.05a2.38,2.38,0,0,1-.16.58c-1.35,2.1-3.54,1.8-5.54,1.82-10,.11-19.94,0-29.91.07-2.38,0-5.42-.58-6.36,2.28-1.16,3.51-1.41,7.34.38,10.8.85,1.64,2.82,1.54,4.49,1.58,4.34.1,8.7-.15,13,.18,1.69.13,3.81.07,3.23,2.88a6.63,6.63,0,0,1-3.93,1.31c-5.36.23-10.71.24-16.07,0a4.41,4.41,0,0,1-3.63-1.79c-12.78-.08-25.55-.29-38.32-.14-3.55,0-4.43-1.11-4.69-4.49-1.37-17.82-3-35.62-4.56-53.43,1.19-1.16,2.67-.56,4-.56,14.76-.05,29.53,0,44.29,0q21.38,0,42.74,0c1.38,0,2.8-.34,4.13.36l.05.74c-1.56,2-3.8,1.85-6,1.87-10.84.07-21.67,0-32.5,0-6.43,0-7.18.89-7.37,7.28-.09,3.11.81,6.42-1.37,9.24-1.82,1.61-4.06,1.16-6.18,1.17-5.81,0-11.66-.32-17.14,2.21-2.55,4-.62,8.13.15,12.09C54.85,67.89,57,68,58.73,68q5.91.11,11.81,0a14.65,14.65,0,0,1,7.35,1.48c13.4,0,26.79,0,40.19,0C119.29,69.52,120.64,69,121.71,70.05Z"/><path class="cls-4" d="M100.94,90c-1.47-1.5-3.36-.92-5.08-1-5-.07-9.94-.13-14.91,0-2.86.08-3.86-1.1-3.75-3.86.14-3.43.18-6.88,0-10.31-.18-3.19,1.09-4.22,4.22-4.2,13.38.1,26.76,0,40.14,0l-3.3,38.08c-.47,5.46-1,10.92-1.34,16.4-.17,2.74-1.09,4.09-4.06,4.86-11.68,3-23.26,6.5-34.87,9.8a3.08,3.08,0,0,1-.73-.22A3.84,3.84,0,0,1,75.71,137c-.32-5.57-1.06-11.17.56-16.68,3.38-4.61,8.91-4.48,13.64-6,6.58-2.08,7-2.12,7.57-9,.3-3.68,1-7.33,1-11C98.49,92.36,98.92,90.7,100.94,90Z"/><path class="cls-3" d="M77.26,119.89q0,9.84,0,19.66-18.58-5-37.18-10A2.55,2.55,0,0,1,38,126.86q-.93-12.58-2.1-25.15c-.2-2.13.39-2.94,2.63-2.86,4.46.15,8.94.16,13.4,0,2.39-.09,3.05.8,3.08,3.08,0,3,.55,6.09.69,9.14.09,2.06.75,3.18,3,3.68,5.7,1.29,11.32,2.87,17,4.33C76.06,119.54,77,119.13,77.26,119.89Z"/><path class="cls-2" d="M77.26,119.89l-1.66-.82c2-.88,1.62-2.67,1.63-4.27q0-12.52,0-25c7.9-.14,15.8-.52,23.7.2-.72,7.07-1.54,14.12-2.09,21.2-.17,2.14-.81,3.06-2.93,3.59C89.66,116.31,83.47,118.15,77.26,119.89Z"/><path class="cls-5" d="M78,31.39l-42.55.19c-1.92,0-3.83.07-5.75.11,1.39-1.25,3.11-1,4.74-1q21.78,0,43.57,0v0C78.52,31,78.52,31.19,78,31.39Z"/><path class="cls-4" d="M77.26,50.54c0-4.22,0-8.44,0-12.66,0-5.59,0-5.6,5.44-5.61l42.2-.06c.14,6.22-.73,12.35-1.57,18.49-1.59.72-3.27.33-4.9.34q-18.74.06-37.47,0C79.71,51,78.37,51.5,77.26,50.54Z"/><path class="cls-1" d="M77.22,69.86c-7.49.07-15,.07-22.47.24-2.11.05-2.6-1-2.7-2.73-.34-5.31-.7-10.63-1-15.94a167.33,167.33,0,0,1,26.3.09q0,8.77,0,17.54C77.76,69.35,77.74,69.62,77.22,69.86Z"/><path class="cls-6" d="M77.3,51.52,51,51.43c.89-1.43,2.31-.71,3.45-.73,7.6-.11,15.21-.12,22.81-.16l46,.16c-1.49,1-3.19.72-4.82.72Q97.9,51.5,77.3,51.52Z"/><path class="cls-7" d="M78,31.39c0-.22,0-.44,0-.66h42.39c1.52,0,3.08-.21,4.44.75Z"/><path class="cls-8" d="M77.22,69.86c0-.27,0-.53,0-.8q19.86,0,39.71,0c1.63,0,3.35-.29,4.74.94Z"/></g></g></svg>