<svg xmlns="http://www.w3.org/2000/svg" viewBox="0 0 149 145.27"><defs><style>.cls-1{fill:#320000;}.cls-2{fill:#fe9900;}.cls-3{fill:#300;}</style></defs><g id="Layer_2" data-name="Layer 2"><g id="Layer_3" data-name="Layer 3"><path class="cls-1" d="M149,24.58v96.11c-.12,1-.1,2-.2,2.94a19.49,19.49,0,0,1-1.65,5.79,26.69,26.69,0,0,1-18.48,15.47,21.49,21.49,0,0,1-3.59.32c-.22,0-.45-.06-.67.06H24.59c-1-.11-2-.09-2.94-.19a20.28,20.28,0,0,1-5.8-1.66A26.69,26.69,0,0,1,.37,124.89a22,22,0,0,1-.31-3.54c0-.22.07-.45-.06-.66V24.58c.12-1,.11-1.95.2-2.93A19.41,19.41,0,0,1,1.8,16,25.9,25.9,0,0,1,8.47,6.59a25.69,25.69,0,0,1,12-6.22A23.68,23.68,0,0,1,23.92.06c.22,0,.45.07.67-.06h99.82c1,.12,2,.11,2.94.2a19.55,19.55,0,0,1,5.8,1.65,25.92,25.92,0,0,1,9.22,6.58,26.13,26.13,0,0,1,6.25,11.9,22.6,22.6,0,0,1,.32,3.59C149,24.14,148.87,24.37,149,24.58Z"/><path class="cls-2" d="M84.7,102.63H78.56c-.89,0-1.07-.13-1.36-1C75.61,97,74,92.42,72.42,87.78a.75.75,0,0,0-.85-.63q-10.92,0-21.85,0a.7.7,0,0,0-.81.59q-2.2,6.87-4.43,13.73c-.33,1-.53,1.16-1.61,1.16H32.06c-1.31,0-1.5-.27-1.06-1.52q8.31-23.92,16.61-47.87c1.21-3.49,2.49-7,3.6-10.48a17,17,0,0,0,.62-4.59c0-.86.13-1,1-1H68.14a1.08,1.08,0,0,1,1.22.84q11.19,31.62,22.4,63.24a2.8,2.8,0,0,1,.13.41c.15.68,0,.91-.73.95-.19,0-.37,0-.56,0Z"/><path class="cls-2" d="M112.37,77.85v23.52c0,1.17-.15,1.32-1.31,1.32H99.7c-1,0-1.24-.25-1.24-1.25V54.14c0-1,.17-1.12,1.12-1.12h11.66c.93,0,1.13.19,1.13,1.12Z"/><path class="cls-2" d="M105.53,47.8c-4.65,0-7.76-3.18-7.75-7.89a7.53,7.53,0,0,1,7.83-7.68c4.74,0,7.66,3.09,7.63,8A7.42,7.42,0,0,1,105.53,47.8Z"/><path class="cls-3" d="M60.54,48.73l.6,2.1c2,7.16,4.32,14.23,6.59,21.3.2.63.36,1.28.59,1.9s0,.55-.42.55c-3.48,0-7,0-10.43,0-1.37,0-2.73,0-4.1,0-.57,0-.63-.13-.46-.65,2.34-7.14,4.52-14.33,6.62-21.55.35-1.2.59-2.43.88-3.64Z"/></g></g></svg>