<svg xmlns="http://www.w3.org/2000/svg" viewBox="0 0 140.01 189.04"><defs><style>.cls-1{fill:#ec2025;}.cls-2{fill:#0d8ac7;}</style></defs><g id="Layer_2" data-name="Layer 2"><g id="Layer_3" data-name="Layer 3"><path class="cls-1" d="M69,102l-.84-.83A180,180,0,0,1,54.21,85.75a75.06,75.06,0,0,1-6.31-8.94,32.1,32.1,0,0,1-2.19-4.44,11.18,11.18,0,0,1-.05-8.09,24.55,24.55,0,0,1,4.16-7.11,72,72,0,0,1,8.48-8.72c5-4.45,10.11-8.66,15.27-12.86a72,72,0,0,0,7-6.24A34.2,34.2,0,0,0,89.7,11.71a30.11,30.11,0,0,0,0-10.5,7,7,0,0,1-.11-.8c0-.15,0-.35.17-.4s.29.09.39.22a9.6,9.6,0,0,1,1.7,3.3,38.18,38.18,0,0,1,1.5,10.89,30.22,30.22,0,0,1-4.87,16A41.09,41.09,0,0,1,82,38c-4.58,4.33-9.17,8.66-13.64,13.11a93.16,93.16,0,0,0-8.27,9.15,35.74,35.74,0,0,0-3.82,6.11,13.36,13.36,0,0,0-1,9.69,50.06,50.06,0,0,0,4,10.16A125.83,125.83,0,0,0,67.06,99c.5.74,1,1.44,1.58,2.17A1.36,1.36,0,0,1,69,102Z"/><path class="cls-2" d="M29.11,160.18c-2.75.56-5.49,1-8.19,1.71A32.33,32.33,0,0,0,15,164a7.43,7.43,0,0,0-2.28,1.53,3.7,3.7,0,0,0-.37.42,1.68,1.68,0,0,0,.44,2.76,11.67,11.67,0,0,0,3.87,1.62,74.07,74.07,0,0,0,9.79,1.85c2.42.31,4.83.61,7.25.87,2.18.23,4.37.41,6.55.58s4.1.31,6.15.43q4.14.22,8.28.2c7.31-.05,14.62-.2,21.92-.49,4.65-.19,9.3-.42,14-.74q6.19-.42,12.37-1a128,128,0,0,0,17.29-2.75,28.86,28.86,0,0,0,5.91-2,9.71,9.71,0,0,0,2.14-1.3,2.62,2.62,0,0,0,.9-3.39l-.34-.91a4.72,4.72,0,0,1,2.44,2.67,1.91,1.91,0,0,1-.44,1.82,9.77,9.77,0,0,1-2.05,2,32.73,32.73,0,0,1-7.93,4,88.91,88.91,0,0,1-14.25,3.73c-3.62.69-7.26,1.18-10.92,1.59-2.8.3-5.6.52-8.41.73-4.67.35-9.34.57-14,.74-8.82.31-17.64.44-26.47.22-4.57-.12-9.14-.26-13.71-.54s-8.91-.61-13.34-1.14a87.61,87.61,0,0,1-13.15-2.39,20.67,20.67,0,0,1-4.23-1.63,7,7,0,0,1-1.47-1,2.54,2.54,0,0,1-.75-2.87,6,6,0,0,1,2.09-2.83,19.08,19.08,0,0,1,5.53-3,62.41,62.41,0,0,1,12.56-3.13,42.08,42.08,0,0,1,7.52-.6A3.16,3.16,0,0,1,29.11,160.18Z"/><path class="cls-1" d="M77.14,109.25a15,15,0,0,1,1.17-1.7,39.43,39.43,0,0,0,3.09-5,9.09,9.09,0,0,0,0-8.65A30.22,30.22,0,0,0,79,90l-3.66-5.16a26.7,26.7,0,0,1-4.19-8.73A19.1,19.1,0,0,1,73.89,60.2a33.4,33.4,0,0,1,7.26-7.7,68.15,68.15,0,0,1,14-8.43,110.73,110.73,0,0,1,15.26-5.72,7,7,0,0,1,.79-.19c.07,0,.15,0,.27,0-.13.33-.44.42-.68.57-4,2.51-8,5-11.79,7.76a84.26,84.26,0,0,0-11.89,9.93,27.73,27.73,0,0,0-4.53,6,12.69,12.69,0,0,0-1.28,3.31,9.59,9.59,0,0,0,.66,6,39.78,39.78,0,0,0,3.5,6,62.15,62.15,0,0,1,3.89,6.46A26.53,26.53,0,0,1,91,88.36a11.25,11.25,0,0,1-1.15,9.29A25.78,25.78,0,0,1,85,103.53a48.24,48.24,0,0,1-7.2,5.52A.76.76,0,0,1,77.14,109.25Z"/><path class="cls-2" d="M43.77,146.23a1.8,1.8,0,0,1-.39.81,2,2,0,0,0,.55,2.87,5.78,5.78,0,0,0,1.87.94,18.93,18.93,0,0,0,4.54.83c5.35.33,10.71.41,16.06.31,2.82-.05,5.63-.22,8.43-.42s5.5-.45,8.23-.86a33.55,33.55,0,0,0,4.77-1,3.12,3.12,0,0,1,2.76.41,52.34,52.34,0,0,0,6.3,3.5c.86.4,1.73.77,2.63,1.16-.19.28-.5.32-.76.42-2.18.8-4.43,1.4-6.66,2a108.81,108.81,0,0,1-12.74,2.8,78.18,78.18,0,0,1-13.59.88,116.69,116.69,0,0,1-12.54-.87,50.85,50.85,0,0,1-10.9-2.43,16.59,16.59,0,0,1-4-1.95A6.51,6.51,0,0,1,36.59,154a3.35,3.35,0,0,1-.08-3.88,5.26,5.26,0,0,1,1.32-1.42,14.49,14.49,0,0,1,5.49-2.53A.6.6,0,0,1,43.77,146.23Z"/><path class="cls-2" d="M102.42,134.41a10.82,10.82,0,0,1-2.2.85A124.89,124.89,0,0,1,84.11,139a103.35,103.35,0,0,1-19.17,1.22c-3.43-.12-6.87-.18-10.3-.38a96.78,96.78,0,0,1-17-2.25,22.81,22.81,0,0,1-4.86-1.77,5.38,5.38,0,0,1-1.63-1.2,3,3,0,0,1-.71-2.71,6.2,6.2,0,0,1,2.43-3.63,15.16,15.16,0,0,1,6.37-2.7,2.24,2.24,0,0,1,.37,0,4.2,4.2,0,0,1-.77,1,5.37,5.37,0,0,0-.84,1.37,2,2,0,0,0,.47,2.32A6.17,6.17,0,0,0,41,131.7a21.33,21.33,0,0,0,4.59,1,125.8,125.8,0,0,0,18.82.38q4.91-.18,9.8-.56c3-.23,6-.52,9-.88,3.46-.42,6.91-.9,10.34-1.54a2.94,2.94,0,0,1,2.62.73,16.83,16.83,0,0,0,4.3,2.87A18.54,18.54,0,0,0,102.42,134.41Z"/><path class="cls-2" d="M109.57,110.39c-.1.41-.38.52-.62.67-1.75,1.08-3.53,2.11-5.24,3.25a8.49,8.49,0,0,1-3.69,1.31c-3.38.44-6.75,1-10.12,1.41-3,.39-5.91.69-8.87,1s-6,.66-9,.91c-2.32.19-4.64.37-7,.49-4.11.22-8.22.46-12.33.35-3.52-.09-7-.22-10.55-.41-3.3-.17-6.59-.38-9.87-.72a86.47,86.47,0,0,1-11.87-1.76,24.36,24.36,0,0,1-3.24-1,4.56,4.56,0,0,1-1.58-1,1.24,1.24,0,0,1-.14-1.81,6.35,6.35,0,0,1,1.83-1.59,30.14,30.14,0,0,1,3.74-2,76.92,76.92,0,0,1,13.31-4.33,74.67,74.67,0,0,1,10.4-1.71,2.24,2.24,0,0,1,1.4.16l-.75.24c-3.12.88-6.25,1.75-9.29,2.9a34.4,34.4,0,0,0-4.43,2,7.58,7.58,0,0,0-1.9,1.38,3.68,3.68,0,0,0-.56.69,1.18,1.18,0,0,0,.36,1.76,5.52,5.52,0,0,0,1.54.71,20,20,0,0,0,3.89.79,200,200,0,0,0,29.67,1c3.08-.08,6.16-.33,9.23-.57,2.38-.19,4.75-.34,7.12-.56,3-.27,5.92-.58,8.88-.91s5.7-.65,8.54-1,5.51-.8,8.26-1.21Z"/><path class="cls-2" d="M26.7,183.33a23.13,23.13,0,0,1,3.07.21c4.05.33,8.09.74,12.13,1,3.46.25,6.92.4,10.38.58q7.62.39,15.26.44,9.38.08,18.74-.42c3.87-.2,7.73-.49,11.58-.9A143.24,143.24,0,0,0,118,180.91a69.63,69.63,0,0,0,14.63-5.2,46.88,46.88,0,0,0,6.41-4,1.35,1.35,0,0,1,.69-.4c.16.21,0,.41,0,.61a8.25,8.25,0,0,1-1.79,2.77,22,22,0,0,1-5.57,4.3,53.46,53.46,0,0,1-14.52,5.43c-4,.92-8.07,1.58-12.14,2.16q-5.13.73-10.31,1.22c-3.23.31-6.47.53-9.71.74-6.3.41-12.6.54-18.91.43q-6.09-.1-12.16-.57c-3.35-.27-6.68-.59-10-1.05a114.64,114.64,0,0,1-17.27-3.68C27.09,183.63,26.87,183.62,26.7,183.33Z"/><path class="cls-2" d="M111,138.43c.54-.34,1.08-.7,1.62-1a70.86,70.86,0,0,0,10.47-7.64,35,35,0,0,0,7.06-8.11,14.5,14.5,0,0,0,2.06-5.52,10.43,10.43,0,0,0-2.94-9.22,10.28,10.28,0,0,0-5.48-2.63,21.2,21.2,0,0,0-7.74-.07.86.86,0,0,1-.55,0c0-.27.24-.34.4-.46a10.3,10.3,0,0,1,4-1.68,17.89,17.89,0,0,1,10.07.4,15.63,15.63,0,0,1,7.41,5.18c3.17,4.2,3.38,8.72,1,13.36a23.42,23.42,0,0,1-6,7.26,48.23,48.23,0,0,1-13.13,7.63,79.23,79.23,0,0,1-7.52,2.56c-.22.06-.46.09-.69.14Z"/></g></g></svg>