<svg xmlns="http://www.w3.org/2000/svg" viewBox="0 0 159 159.26"><defs><style>.cls-1{fill:#fefefe;}.cls-2{fill:#fed142;}.cls-3{fill:#3771a0;}</style></defs><g id="Layer_2" data-name="Layer 2"><g id="Layer_3" data-name="Layer 3"><path class="cls-1" d="M50.84,41c8.95,0,17.9,0,26.84,0,1,0,1.39-.22,1.3-1.28a20.7,20.7,0,0,1,0-3.15c0-.8-.21-1.06-1-1-3.07,0-6.14,0-9.22,0-8.94,0-17.89,0-26.84,0-1,0-1.23-.26-1.22-1.23.05-5.49.09-11,0-16.46A12.24,12.24,0,0,1,45,8.23C48.94,4.72,53.73,3,58.74,1.89A91.12,91.12,0,0,1,81.57.05c7.21.19,14.35,1,21.18,3.46a24.69,24.69,0,0,1,10.49,6.71,14.67,14.67,0,0,1,4,9.84c0,12.29.16,24.59,0,36.88-.13,9.83-6.21,16.73-16,18.69a32.08,32.08,0,0,1-6.26.6c-12.44,0-24.89,0-37.34,0A21.81,21.81,0,0,0,45,79.79c-5,3.44-7.46,8.48-8.57,14.29A31,31,0,0,0,36,99.77c0,5.56,0,11.12,0,16.68,0,.5.22,1.12-.71,1.11-4.55,0-9.11.12-13.65-.09-5.26-.24-9.46-2.81-12.85-6.73a32.49,32.49,0,0,1-7-15.08,76.73,76.73,0,0,1,.33-34.44A29.69,29.69,0,0,1,8.75,48.16a21.44,21.44,0,0,1,17.12-7.22C34.19,41.1,42.52,41,50.84,41Z"/><path class="cls-2" d="M108.52,118.17c-9.18,0-18.36,0-27.54,0-1.09,0-1.45.3-1.34,1.37.08.8,0,1.63,0,2.44,0,1.66,0,1.66,1.6,1.66h18.79c5.56,0,11.12,0,16.69,0,1,0,1.23.28,1.22,1.24,0,5.29-.18,10.59,0,15.87s-2.14,8.85-6.15,11.7a33.33,33.33,0,0,1-13.93,5.33,96.63,96.63,0,0,1-35.24-.18A34,34,0,0,1,49,152c-4.08-3-6.8-6.79-7.22-12-.08-1,0-2.1,0-3.14,0-11.28,0-22.56,0-33.85,0-5.58,1.61-10.59,5.85-14.47,3.68-3.36,8.17-4.85,13-5.42A27.56,27.56,0,0,1,63.78,83h36.87a24.77,24.77,0,0,0,10.67-2.08c6.2-2.89,9.46-8,11-14.49a29.44,29.44,0,0,0,.73-6.94c0-5.57,0-11.13,0-16.69,0-.85.18-1.14,1.08-1.13,4.35.05,8.72-.11,13.07.06,5.88.22,10.36,3.2,13.89,7.72a34.65,34.65,0,0,1,6.41,15.21,78.62,78.62,0,0,1-.12,31.5c-1.34,6.17-3.76,11.86-8.48,16.29a20.84,20.84,0,0,1-15.73,5.77c-4.23-.16-8.48,0-12.72,0Z"/><path class="cls-3" d="M57.12,12a6.82,6.82,0,0,1,6.82,6.7,6.81,6.81,0,1,1-13.61,0A6.83,6.83,0,0,1,57.12,12Z"/><path class="cls-3" d="M110,138.62a6.77,6.77,0,0,1-6.66,6.83,6.78,6.78,0,1,1-.1-13.56A6.76,6.76,0,0,1,110,138.62Z"/></g></g></svg>