<svg xmlns="http://www.w3.org/2000/svg" viewBox="0 0 169 168.96"><defs><style>.cls-1{fill:#292929;}.cls-2{fill:#00dafb;}.cls-3{fill:#292a2a;}.cls-4{fill:#29292a;}</style></defs><g id="Layer_2" data-name="Layer 2"><g id="Layer_3" data-name="Layer 3"><path class="cls-1" d="M84.39,169C38.34,169.09-.19,131.32,0,84.17a84.5,84.5,0,1,1,169,1.3C168.57,131.12,131,169.17,84.39,169Z"/><path class="cls-2" d="M52.64,114.29A47.09,47.09,0,0,1,54,103.85c.34-1.26.23-1.91-1.28-2.38a44.3,44.3,0,0,1-14.2-7.24c-7.69-6-7.78-13.38-.2-19.47a39.86,39.86,0,0,1,14.26-7.05C54.32,67.2,54.4,66.53,54,65c-1.32-5.44-2-11-.85-16.51,1.94-9.33,8.12-12.41,16.95-8.74a45.12,45.12,0,0,1,13,8.49c1.15,1,1.77,1.2,3,0A43.08,43.08,0,0,1,99,39.66c8.9-3.71,15.17-.27,16.72,9.19a43.41,43.41,0,0,1-.68,16.34c-.34,1.58-.1,2.19,1.52,2.66a42.31,42.31,0,0,1,13.77,6.68c8,6,8,13.57.07,19.64A46.26,46.26,0,0,1,117.19,101c-1.51.52-2.07,1.09-1.66,3,1.28,5.87,1.75,11.83.17,17.76a13.38,13.38,0,0,1-3.57,6.35c-3.28,3.15-7.15,2.85-11.06,1.71-5.67-1.65-10.31-5.08-14.57-9-1.35-1.25-2.12-1.3-3.54,0-4.7,4.31-9.9,7.93-16.26,9.37-6.76,1.52-11.15-1.24-13.1-7.92A34.34,34.34,0,0,1,52.64,114.29Z"/><path class="cls-1" d="M84.57,100.94c-2.67,0-5.34,0-8,0a2.08,2.08,0,0,1-2-1.15,134.7,134.7,0,0,1-8.08-14,3,3,0,0,1,.09-2.92c2.39-4.79,5.21-9.31,8-13.83a2,2,0,0,1,1.82-1.11c5.48-.24,10.95-.25,16.43,0a2.07,2.07,0,0,1,1.88,1c3,4.53,5.76,9.14,8.31,13.92a2.4,2.4,0,0,1,.06,2.54c-2.6,4.83-5.21,9.64-8.18,14.25A2.42,2.42,0,0,1,92.57,101c-2.66-.08-5.33,0-8,0Z"/><path class="cls-1" d="M57.19,55.4a23.28,23.28,0,0,1,1-8.11c1.41-3.87,3.56-5.09,7.52-4.09,5.91,1.48,10.56,5.07,14.93,9.11.74.69.47,1.15-.08,1.73a82.1,82.1,0,0,0-7,8.72A3.26,3.26,0,0,1,71,64.25a73.26,73.26,0,0,0-10.39,1.59c-1.15.29-1.83.22-2.16-1.29A58,58,0,0,1,57.19,55.4Z"/><path class="cls-1" d="M37.1,84.4c.14-2.27,1.45-3.85,3-5.23,4.22-3.83,9.42-5.76,14.72-7.48.77-.26.93.1,1.14.71,1.29,3.78,2.69,7.53,4.33,11.18a2.35,2.35,0,0,1-.09,2,92,92,0,0,0-4.22,11c-.24.85-.56,1.19-1.45.87-5.31-1.92-10.55-4-14.66-8A8.16,8.16,0,0,1,37.1,84.4Z"/><path class="cls-1" d="M57.11,114.9a62.69,62.69,0,0,1,1.37-10.37c.22-1.06.69-1.12,1.61-.9a67,67,0,0,0,10.84,1.52,3,3,0,0,1,2.51,1.23,85.26,85.26,0,0,0,7.3,9c.42.43,1,.81.17,1.5-4.76,4.26-9.75,8.11-16.29,9.18-3,.5-4.77-.53-6.08-3.29C57.42,120.43,57.29,117.9,57.11,114.9Z"/><path class="cls-1" d="M111.92,54.09a70.2,70.2,0,0,1-1.17,10.31c-.24,1.24-.68,1.67-2,1.36a66.29,66.29,0,0,0-10.19-1.61,4,4,0,0,1-3.25-1.93A70.54,70.54,0,0,0,88.76,54c-.54-.59-1.1-1-.18-1.83,3.9-3.51,8-6.72,13-8.51,5.77-2.07,8.4-.53,9.71,5.5C111.67,51,111.77,52.88,111.92,54.09Z"/><path class="cls-1" d="M112,113.51a20.92,20.92,0,0,1-1.35,8.92c-1.25,3-2.89,3.91-6.12,3.58a17.77,17.77,0,0,1-7-2.62,50.83,50.83,0,0,1-8.24-6.21c-.86-.77-1-1.3-.12-2.19a82.65,82.65,0,0,0,7-8.73A2.88,2.88,0,0,1,98.33,105c3.68-.49,7.37-1,11-1.7,1.07-.2,1.51-.11,1.65,1C111.4,107.46,112.18,110.55,112,113.51Z"/><path class="cls-1" d="M131.91,84.34a7.64,7.64,0,0,1-2.68,5c-4,3.93-9.09,6-14.27,7.8-.8.28-1.25.11-1.55-.78A97,97,0,0,0,108.88,85a1.88,1.88,0,0,1,.16-1.78,99,99,0,0,0,4.06-10.37c.35-1.08.77-1.45,1.92-1,4.5,1.6,9,3.33,12.75,6.31C129.83,79.76,131.7,81.58,131.91,84.34Z"/><path class="cls-3" d="M63.28,90a82.25,82.25,0,0,0,6,10.15A48.07,48.07,0,0,1,60.75,99c-.89-.17-.65-.63-.47-1.2A57.38,57.38,0,0,1,63.28,90Z"/><path class="cls-4" d="M78.61,105.87h11.7a47,47,0,0,1-5.19,6.59c-.55.64-.84,0-1.13-.29C82.3,110.21,80.63,108.24,78.61,105.87Z"/><path class="cls-1" d="M105.83,89.67c1.13,3,2.13,5.52,3.11,8.09.25.65.11,1-.68,1.12-2.61.42-5.2.92-8.41,1.5A105.32,105.32,0,0,0,105.83,89.67Z"/><path class="cls-3" d="M90.42,63.32H78.56L84,56.84c.6-.72,1-.14,1.32.27C86.9,59,88.49,61,90.42,63.32Z"/><path class="cls-3" d="M105.67,78.8,99.84,68.67c2.91.52,5.51,1,8.09,1.45,1.08.2.78,1,.56,1.64A48.75,48.75,0,0,1,105.67,78.8Z"/><path class="cls-3" d="M69.22,68.7l-5.77,10a46.28,46.28,0,0,1-3-7.54c-.28-.74.23-1,.86-1.1Z"/><path class="cls-2" d="M93.78,84.41A9.29,9.29,0,1,1,84.46,75,9.27,9.27,0,0,1,93.78,84.41Z"/></g></g></svg>