<svg xmlns="http://www.w3.org/2000/svg" xmlns:xlink="http://www.w3.org/1999/xlink" viewBox="0 0 149 148.59"><defs><style>.cls-1{fill:url(#linear-gradient);}.cls-2{fill:url(#linear-gradient-2);}.cls-3{fill:url(#linear-gradient-3);}.cls-4{fill:url(#linear-gradient-4);}.cls-5{fill:url(#linear-gradient-5);}.cls-6{fill:url(#linear-gradient-6);}.cls-7{fill:url(#linear-gradient-7);}.cls-8{fill:url(#linear-gradient-8);}.cls-9{fill:#fff;}.cls-10{fill:url(#linear-gradient-9);}.cls-11{fill:url(#linear-gradient-10);}.cls-12{fill:url(#linear-gradient-11);}.cls-13{fill:url(#linear-gradient-12);}.cls-14{fill:#9e1209;}.cls-15{fill:url(#radial-gradient);}.cls-16{fill:url(#radial-gradient-2);}.cls-17{fill:url(#linear-gradient-13);}.cls-18{fill:url(#linear-gradient-14);}</style><linearGradient id="linear-gradient" x1="1766.09" y1="4524.75" x2="1765.93" y2="4525.03" gradientTransform="matrix(202.93, 0, 0, -202.78, -358269.83, 917692.69)" gradientUnits="userSpaceOnUse"><stop offset="0" stop-color="#fb7655"/><stop offset="0.41" stop-color="#e42b1e"/><stop offset="0.99" stop-color="#900"/><stop offset="1" stop-color="#900"/></linearGradient><linearGradient id="linear-gradient-2" x1="1744.46" y1="4539.19" x2="1743.79" y2="4539.43" gradientTransform="matrix(60.31, 0, 0, -111.78, -105058.25, 507497.22)" gradientUnits="userSpaceOnUse"><stop offset="0" stop-color="#871101"/><stop offset="0.99" stop-color="#911209"/><stop offset="1" stop-color="#911209"/></linearGradient><linearGradient id="linear-gradient-3" x1="1765.35" y1="4667.42" x2="1765.13" y2="4668.66" gradientTransform="matrix(188.32, 0, 0, -21.99, -332335.44, 102783.64)" xlink:href="#linear-gradient-2"/><linearGradient id="linear-gradient-4" x1="1747.42" y1="4544.33" x2="1747.52" y2="4543.91" gradientTransform="matrix(65.22, 0, 0, -97.1, -113941.39, 441349.56)" gradientUnits="userSpaceOnUse"><stop offset="0" stop-color="#fff"/><stop offset="0.23" stop-color="#e57252"/><stop offset="0.46" stop-color="#de3b20"/><stop offset="0.99" stop-color="#a60003"/><stop offset="1" stop-color="#a60003"/></linearGradient><linearGradient id="linear-gradient-5" x1="1757.57" y1="4540.7" x2="1757.59" y2="4540.31" gradientTransform="matrix(105.32, 0, 0, -106.83, -185035.32, 485119.99)" gradientUnits="userSpaceOnUse"><stop offset="0" stop-color="#fff"/><stop offset="0.23" stop-color="#e4714e"/><stop offset="0.56" stop-color="#be1a0d"/><stop offset="0.99" stop-color="#a80d00"/><stop offset="1" stop-color="#a80d00"/></linearGradient><linearGradient id="linear-gradient-6" x1="1755.17" y1="4560.06" x2="1755.24" y2="4559.61" gradientTransform="matrix(94.32, 0, 0, -66.42, -165438.9, 302891.41)" gradientUnits="userSpaceOnUse"><stop offset="0" stop-color="#fff"/><stop offset="0.18" stop-color="#e46342"/><stop offset="0.4" stop-color="#c82410"/><stop offset="0.99" stop-color="#a80d00"/><stop offset="1" stop-color="#a80d00"/></linearGradient><linearGradient id="linear-gradient-7" x1="1748.61" y1="4649.14" x2="1749.03" y2="4649.76" gradientTransform="matrix(70.77, 0, 0, -24.3, -123653.57, 112986.13)" gradientUnits="userSpaceOnUse"><stop offset="0" stop-color="#fff"/><stop offset="0.54" stop-color="#c81f11"/><stop offset="0.99" stop-color="#bf0905"/><stop offset="1" stop-color="#bf0905"/></linearGradient><linearGradient id="linear-gradient-8" x1="1676.99" y1="4556.21" x2="1677.12" y2="4555.87" gradientTransform="matrix(18.18, 0, 0, -72.64, -30480.13, 331070.38)" gradientUnits="userSpaceOnUse"><stop offset="0" stop-color="#fff"/><stop offset="0.31" stop-color="#de4024"/><stop offset="0.99" stop-color="#bf190b"/><stop offset="1" stop-color="#bf190b"/></linearGradient><linearGradient id="linear-gradient-9" x1="1763.08" y1="4529.4" x2="1763.81" y2="4530.15" gradientTransform="matrix(158.16, 0, 0, -157.94, -278867.13, 715478.39)" gradientUnits="userSpaceOnUse"><stop offset="0" stop-color="#bd0012"/><stop offset="0.07" stop-color="#fff"/><stop offset="0.17" stop-color="#fff"/><stop offset="0.27" stop-color="#c82f1c"/><stop offset="0.33" stop-color="#820c01"/><stop offset="0.46" stop-color="#a31601"/><stop offset="0.72" stop-color="#b31301"/><stop offset="0.99" stop-color="#e82609"/><stop offset="1" stop-color="#e82609"/></linearGradient><linearGradient id="linear-gradient-10" x1="1760.65" y1="4543.87" x2="1760.38" y2="4543.96" gradientTransform="matrix(127.07, 0, 0, -97.41, -223658.13, 442741.17)" gradientUnits="userSpaceOnUse"><stop offset="0" stop-color="#8c0c01"/><stop offset="0.54" stop-color="#990c00"/><stop offset="0.99" stop-color="#a80d0e"/><stop offset="1" stop-color="#a80d0e"/></linearGradient><linearGradient id="linear-gradient-11" x1="1755.35" y1="4540.81" x2="1755.02" y2="4541.08" gradientTransform="matrix(94.01, 0, 0, -105.6, -164888.06, 479611.33)" gradientUnits="userSpaceOnUse"><stop offset="0" stop-color="#7e110b"/><stop offset="0.99" stop-color="#9e0c00"/><stop offset="1" stop-color="#9e0c00"/></linearGradient><linearGradient id="linear-gradient-12" x1="1751.81" y1="4549.88" x2="1751.62" y2="4550.08" gradientTransform="matrix(79.7, 0, 0, -81.79, -139476.99, 372176.86)" gradientUnits="userSpaceOnUse"><stop offset="0" stop-color="#79130d"/><stop offset="0.99" stop-color="#9e120b"/><stop offset="1" stop-color="#9e120b"/></linearGradient><radialGradient id="radial-gradient" cx="1754.73" cy="4580.21" r="0.46" gradientTransform="matrix(82.09, 0, 0, -42.9, -143944.16, 196538.34)" gradientUnits="userSpaceOnUse"><stop offset="0" stop-color="#a80d00"/><stop offset="0.99" stop-color="#7e0e08"/><stop offset="1" stop-color="#7e0e08"/></radialGradient><radialGradient id="radial-gradient-2" cx="1755.74" cy="4554.69" r="0.59" gradientTransform="matrix(85.9, 0, 0, -66.87, -150768.79, 304690.73)" gradientUnits="userSpaceOnUse"><stop offset="0" stop-color="#a30c00"/><stop offset="0.99" stop-color="#800e08"/><stop offset="1" stop-color="#800e08"/></radialGradient><linearGradient id="linear-gradient-13" x1="1730.44" y1="4550.92" x2="1730.13" y2="4551.45" gradientTransform="matrix(40.14, 0, 0, -81.14, -69434.26, 369424.25)" gradientUnits="userSpaceOnUse"><stop offset="0" stop-color="#8b2114"/><stop offset="0.43" stop-color="#9e100a"/><stop offset="0.99" stop-color="#b3100c"/><stop offset="1" stop-color="#b3100c"/></linearGradient><linearGradient id="linear-gradient-14" x1="1750.97" y1="4613.28" x2="1751.33" y2="4612.9" gradientTransform="matrix(78.1, 0, 0, -32.62, -136633.58, 150510.77)" gradientUnits="userSpaceOnUse"><stop offset="0" stop-color="#b31000"/><stop offset="0.44" stop-color="#910f08"/><stop offset="0.99" stop-color="#791c12"/><stop offset="1" stop-color="#791c12"/></linearGradient></defs><g id="Layer_2" data-name="Layer 2"><g id="Layer_3" data-name="Layer 3"><path class="cls-1" d="M115.44,98.07,30.37,148.59l110.15-7.48L149,30Z"/><path class="cls-2" d="M140.7,141l-9.47-65.35-25.79,34.05Z"/><path class="cls-3" d="M140.82,141l-69.35-5.45L30.74,148.44Z"/><path class="cls-4" d="M30.83,148.46,48.16,91.7,10,99.85Z"/><path class="cls-5" d="M105.43,109.93,89.49,47.48,43.87,90.25Z"/><path class="cls-6" d="M145.38,48.36,102.25,13.14,90.24,52Z"/><path class="cls-7" d="M125.21.58l-25.36,14L83.84.39Z"/><path class="cls-8" d="M0,118.89,10.63,99.51,2,76.42Z"/><path class="cls-9" d="M1.46,75.69l8.65,24.53,37.58-8.43,42.9-39.87L102.7,13.46,83.63,0,51.22,12.13c-10.21,9.5-30,28.29-30.74,28.65S7.39,64.53,1.46,75.69Z"/><path class="cls-10" d="M31.83,31.62C54,9.68,82.49-3.29,93.44,7.76s-.66,37.9-22.79,59.83S20.33,103.21,9.39,92.16s.3-38.6,22.44-60.54Z"/><path class="cls-11" d="M30.83,148.44,48,91.49l57.1,18.34c-20.64,19.36-43.6,35.73-74.29,38.61Z"/><path class="cls-12" d="M90.66,51.81l14.66,58.05c17.25-18.13,32.72-37.62,40.3-61.73l-55,3.68Z"/><path class="cls-13" d="M145.47,48.42c5.87-17.7,7.22-43.1-20.44-47.81L102.34,13.15l43.13,35.27Z"/><path class="cls-14" d="M0,118.63c.81,29.22,21.89,29.66,30.87,29.91L10.13,100.1,0,118.63Z"/><path class="cls-15" d="M90.75,51.9C104,60,130.7,76.4,131.24,76.7c.85.47,11.52-18,13.94-28.43L90.75,51.9Z"/><path class="cls-16" d="M48,91.49l23,44.34c13.59-7.37,24.23-16.35,34-26L48,91.49Z"/><path class="cls-17" d="M10,100.16,6.78,138.94c6.15,8.39,14.6,9.12,23.47,8.47C23.83,131.44,11,99.52,10,100.16Z"/><path class="cls-18" d="M102.2,13.24l45.66,6.41c-2.44-10.32-9.92-17-22.68-19.07l-23,12.66Z"/></g></g></svg>