<svg xmlns="http://www.w3.org/2000/svg" viewBox="0 0 285.24 123.37"><defs><style>.cls-1{fill:#343b4a;}</style></defs><g id="Layer_2" data-name="Layer 2"><g id="_12" data-name="12"><path class="cls-1" d="M114.42,39.79a1.55,1.55,0,0,1,.37-1,1.36,1.36,0,0,1,1.12-.44h10a1.9,1.9,0,0,1,1.08.4,1.28,1.28,0,0,1,.57,1.09V87.1c0,1-.55,1.49-1.65,1.49h-10a1.32,1.32,0,0,1-1.49-1.49Z"/><path class="cls-1" d="M169.82,52.49a14.67,14.67,0,0,0-3.69-1.9,12.84,12.84,0,0,0-4.2-.68,12.21,12.21,0,0,0-9.16,4,13.29,13.29,0,0,0-2.62,4.28,14.84,14.84,0,0,0,0,10.45,13.26,13.26,0,0,0,2.62,4.25,12.29,12.29,0,0,0,4,2.86,12.45,12.45,0,0,0,5.15,1,15.52,15.52,0,0,0,2.36-.17c.78-.11,1.61-.26,2.49-.44V67.29a1.55,1.55,0,0,1,.37-1.07,1.42,1.42,0,0,1,1.12-.42h9.21a1.88,1.88,0,0,1,1.08.4,1.28,1.28,0,0,1,.58,1.09V83.68a1.7,1.7,0,0,1-1,1.49A18.63,18.63,0,0,1,174.63,87a28.73,28.73,0,0,1-4,1.29,37.05,37.05,0,0,1-8.43,1,25.67,25.67,0,0,1-13.07-3.53,26,26,0,0,1-9.28-9.26,25.31,25.31,0,0,1-2.61-6.16,25.93,25.93,0,0,1,2.61-20,26,26,0,0,1,4-5.27,25.4,25.4,0,0,1,5.24-4,26.88,26.88,0,0,1,6.18-2.61,26.19,26.19,0,0,1,14.56.21A25.77,25.77,0,0,1,176.63,42a2.28,2.28,0,0,1,.88.89,1.22,1.22,0,0,1-.13,1.27l-5.49,7.93a2.47,2.47,0,0,1-.88.73A1.38,1.38,0,0,1,169.82,52.49Z"/><path class="cls-1" d="M188.76,39.79a1.55,1.55,0,0,1,.37-1,1.36,1.36,0,0,1,1.12-.44h11.07a2.41,2.41,0,0,1,1,.23,2.14,2.14,0,0,1,.88.82q4.31,6.94,8.54,13.68t8.57,13.68V39.58a1.64,1.64,0,0,1,.54-.94,1.4,1.4,0,0,1,.95-.34h9.65a1.79,1.79,0,0,1,1.18.39,1.33,1.33,0,0,1,.48,1.1V87.27a1.21,1.21,0,0,1-.41,1,1.78,1.78,0,0,1-1.12.32h-10.8a1.16,1.16,0,0,1-.78-.3,6.25,6.25,0,0,1-.71-.82l-8.91-14.73Q206,65.47,201.42,58V87.1a1.3,1.3,0,0,1-1.56,1.49h-9.61a1.42,1.42,0,0,1-1.14-.42,1.54,1.54,0,0,1-.35-1Z"/><path class="cls-1" d="M243.86,39.86a1.65,1.65,0,0,1,.37-1.14,1.42,1.42,0,0,1,1.12-.42h21.88a16.41,16.41,0,0,1,6.53,1.3,17.07,17.07,0,0,1,5.32,3.54,16.64,16.64,0,0,1,3.57,5.23A15.85,15.85,0,0,1,284,54.76a15.06,15.06,0,0,1-.63,4.38,16.27,16.27,0,0,1-4.4,7.18,17.17,17.17,0,0,1-3.37,2.53l8.7,16.39c.16.31.36.69.61,1.12a2.26,2.26,0,0,1,.37,1.11,1,1,0,0,1-.35.83,1.46,1.46,0,0,1-1,.29H272.31a1.68,1.68,0,0,1-1-.34,1.54,1.54,0,0,1-.59-.91l-8.23-15.48H257V87.13c0,1-.52,1.46-1.55,1.46H245.35a1.64,1.64,0,0,1-1.09-.35,1.41,1.41,0,0,1-.4-1.11Zm26.51,15a5.86,5.86,0,0,0-.37-2A6.57,6.57,0,0,0,269,51a6,6,0,0,0-1.62-1.42,5.51,5.51,0,0,0-2.1-.75l-1.78-.12c-.55,0-1.16-.05-1.81-.05H257V61.09h6.24q.6,0,1.08,0l1.05-.1a5.52,5.52,0,0,0,2.13-.7,5.46,5.46,0,0,0,1.59-1.39A6.15,6.15,0,0,0,270,57,6.91,6.91,0,0,0,270.37,54.89Z"/><path class="cls-1" d="M95.78,42.58C93.43,38.48,88,32,86,29.65v-14A12.11,12.11,0,0,0,73.85,3.61,12,12,0,0,0,66.4,6.2a12.1,12.1,0,0,0-21.13,0,12,12,0,0,0-7.47-2.6A12.12,12.12,0,0,0,25.69,15.72V16a12,12,0,0,0-5.56-1.54l-.17,0h-.3l-.23,0a12.08,12.08,0,0,0-9,4.36,25.21,25.21,0,0,0-4.77,7.47C-3.18,46.45-.58,90,6,97.69a16,16,0,0,1,3.69,8.58c1.1,10.45,12.3,17.1,28.65,17.1h1c15.46-.24,31.6-7,32.73-19.66.77-.91,3-3,5.09-4.93C83.28,93,91.72,85.17,94.73,78.94,101.37,65.18,101.72,53,95.78,42.58ZM73.9,9.79a5.91,5.91,0,0,1,5.9,5.9v11.5C76.16,26.64,68,25.36,68,25.36V15.69A5.92,5.92,0,0,1,73.9,9.79ZM55.84,6.19a5.92,5.92,0,0,1,5.92,5.92V24.89c-5.1-.48-9.54-.67-11.36-.14-.18.05-.32.12-.49.17V12.11A5.93,5.93,0,0,1,55.84,6.19ZM49.91,44.63a48.68,48.68,0,0,0,4.69,4l7.16,3.3v8.31a5.93,5.93,0,0,1-11.85,0Zm-18-28.91a5.93,5.93,0,1,1,11.85,0v13.8a7,7,0,0,0-.66,1.92,8.8,8.8,0,0,0,.66,4.81V63.81a5.93,5.93,0,1,1-11.85,0V15.72ZM25.69,54.8a4.12,4.12,0,0,1-8.24,0L13.84,26.36a5.89,5.89,0,0,1,1.43-3.64,7.15,7.15,0,0,1,4.24-2.08h.06c1.24.28,6.05,1.65,6.12,6ZM89.16,76.25c-2.5,5.19-10.78,12.89-16.26,18-4.93,4.59-6.38,6-6.81,7.52a6.19,6.19,0,0,0-.22,1.33C65.22,112,51.64,117,39.19,117.18c-11,.19-22.49-3.33-23.36-11.55a22.37,22.37,0,0,0-5.14-12C6.93,89.28,3.7,57,8.88,36.2L11.26,55a10.29,10.29,0,0,0,14.45,9.21,12.1,12.1,0,0,0,22.66,5.5A12.09,12.09,0,0,0,68,60.21v-6l6,2.5L76.3,51,58,43.4c-4.54-3.42-9.21-8.63-8.81-10.87a1.25,1.25,0,0,1,.43-.62l.32-.26a8.07,8.07,0,0,1,2.2-1c2.38-.62,16.76,1,29.18,3,1.91,2.23,7,8.37,9.12,12C95.28,54.15,94.86,64.44,89.16,76.25Z"/></g></g></svg>