<svg xmlns="http://www.w3.org/2000/svg" viewBox="0 0 183 183"><defs><style>.cls-1{fill:#1a3948;}.cls-2{fill:#84e82d;}</style></defs><g id="Layer_2" data-name="Layer 2"><g id="Layer_3" data-name="Layer 3"><path class="cls-1" d="M81,0H101.3c.22.2.41.55.65.58a89.89,89.89,0,0,1,46.14,19.15,90.73,90.73,0,0,1,32,49.21c1.11,4.21,1.93,8.5,2.89,12.76v2c-.81.65-.37,1.3,0,2V102c-.49.15-.59.53-.65,1-2.9,20.23-11.21,37.85-25.55,52.49A89.91,89.91,0,0,1,115,179.85c-4.52,1.2-9.12,2.11-13.69,3.15H80.39c-.17-.7-.76-.63-1.28-.71-16.57-2.67-31.66-8.76-44.79-19.38A91.74,91.74,0,0,1,3.21,115.64C2,111.33,1.68,106.8,0,102.61V79.74c.89-.24.63-1,.73-1.6C3.57,62.2,9.49,47.61,19.66,34.86a90.87,90.87,0,0,1,48-31.66C72.09,2,76.59,1.06,81,0ZM91.6,8.71c-46,.18-82,36.84-82.9,80.69a82.79,82.79,0,0,0,82.62,84.9c45.1.23,82.85-36.88,83-82A82.91,82.91,0,0,0,91.6,8.71Z"/><path class="cls-2" d="M183,85.62c-.37-.66-.81-1.31,0-2Z"/><path class="cls-2" d="M91.6,8.71a82.91,82.91,0,0,1,82.68,83.61c-.11,45.1-37.86,82.21-83,82A82.79,82.79,0,0,1,8.7,89.4C9.57,45.55,45.56,8.89,91.6,8.71Zm-45.33,107a65.28,65.28,0,0,0,.65,10.08c1.54,8.36,5.48,11.88,13.92,12.23,6.51.26,6.34.26,6.57-6.29.11-3.05-.83-3.85-3.78-3.73-4.14.17-5.29-1-5.59-5-.3-4.23-.36-8.48-.58-12.71-.36-6.78-1.69-13.22-7.33-17.78-1.37-1.11-.53-1.41.24-2.08,4.25-3.7,6.08-8.48,6.68-14,.48-4.46.38-8.9.47-13.36.14-6.58,1.13-7.72,7.59-8.09,1.92-.11,2.37-.89,2.31-2.61-.3-8.88,1.62-7.16-7.28-7.31a14.83,14.83,0,0,0-1.63.08c-5.31.47-8.76,3.31-10.44,8.4-1.43,4.31-1.57,8.76-1.66,13.22a68.37,68.37,0,0,1-1.26,13.62c-.58,2.6-2.29,4.65-4.76,4.74-4.56.17-4.9,2.69-4.47,6.17a16,16,0,0,1,0,3.59c-.17,1.83.6,2.37,2.38,2.56,4.59.49,6.76,2.71,7.38,7.26A55.17,55.17,0,0,1,46.27,115.73ZM147.05,91.45c0-1.31,0-2.61,0-3.92s-.41-1.68-1.64-1.92c-6.45-1.22-7.31-2.32-8.25-8.8-.89-6.07-.28-12.19-.92-18.25-1-9.11-5.64-13.38-14.76-13.56-6-.13-5.84-.12-6.12,5.87-.15,3.33.83,4.31,4.13,4.14,4-.21,5.19,1.14,5.54,5.17.44,5.1.77,10.2,1.11,15.3.4,5.8,1.65,11.24,6.62,15,1.49,1.11.69,1.49-.21,2.32a19.54,19.54,0,0,0-6.57,14.4c-.15,4.46-.38,8.92-.51,13.38-.17,6-1.28,7.23-7.21,7.59-.9.05-2.36-.41-2.47.88a78.92,78.92,0,0,0-.07,8.14c0,.65.66.79,1.22.82,10,.55,17.45-.23,19-13.2.78-6.36.83-12.81,1.24-19.22.32-5,2.43-7.46,7.28-8,2.24-.27,2.74-1.21,2.55-3.14C147,93.42,147.06,92.43,147.05,91.45ZM62.63,91c-.19,4,2.2,6.65,6.18,6.91a6.68,6.68,0,0,0,7-6.21,6.8,6.8,0,0,0-6.37-6.58A6.1,6.1,0,0,0,62.63,91Zm57.79.23c-.07-3.57-2.83-6.11-6.65-6.12a6.82,6.82,0,0,0-6.57,6.39c0,3.48,3.39,6.51,7.22,6.46C118,97.89,120.48,95.08,120.42,91.22ZM91.54,85.09a6.07,6.07,0,0,0-6.46,6.18c-.07,4,2.54,6.62,6.7,6.63,3.58,0,6-2.4,6.08-6.16A6.11,6.11,0,0,0,91.54,85.09Z"/><path class="cls-1" d="M46.27,115.73a55.17,55.17,0,0,0-.59-11.07c-.62-4.55-2.79-6.77-7.38-7.26-1.78-.19-2.55-.73-2.38-2.56a16,16,0,0,0,0-3.59c-.43-3.48-.09-6,4.47-6.17,2.47-.09,4.18-2.14,4.76-4.74a68.37,68.37,0,0,0,1.26-13.62c.09-4.46.23-8.91,1.66-13.22,1.68-5.09,5.13-7.93,10.44-8.4A14.83,14.83,0,0,1,60.14,45c8.9.15,7-1.57,7.28,7.31.06,1.72-.39,2.5-2.31,2.61-6.46.37-7.45,1.51-7.59,8.09-.09,4.46,0,8.9-.47,13.36-.6,5.54-2.43,10.32-6.68,14-.77.67-1.61,1-.24,2.08,5.64,4.56,7,11,7.33,17.78.22,4.23.28,8.48.58,12.71.3,4,1.45,5.21,5.59,5,2.95-.12,3.89.68,3.78,3.73-.23,6.55-.06,6.55-6.57,6.29-8.44-.35-12.38-3.87-13.92-12.23A65.28,65.28,0,0,1,46.27,115.73Z"/><path class="cls-1" d="M147.05,91.45c0,1-.07,2,0,2.94.19,1.93-.31,2.87-2.55,3.14-4.85.57-7,3.08-7.28,8-.41,6.41-.46,12.86-1.24,19.22-1.6,13-9.09,13.75-19,13.2-.56,0-1.2-.17-1.22-.82a78.92,78.92,0,0,1,.07-8.14c.11-1.29,1.57-.83,2.47-.88,5.93-.36,7-1.55,7.21-7.59.13-4.46.36-8.92.51-13.38a19.54,19.54,0,0,1,6.57-14.4c.9-.83,1.7-1.21.21-2.32-5-3.73-6.22-9.17-6.62-15-.34-5.1-.67-10.2-1.11-15.3-.35-4-1.57-5.38-5.54-5.17-3.3.17-4.28-.81-4.13-4.14.28-6,.07-6,6.12-5.87,9.12.18,13.78,4.45,14.76,13.56.64,6.06,0,12.18.92,18.25.94,6.48,1.8,7.58,8.25,8.8,1.23.24,1.67.75,1.64,1.92S147.05,90.14,147.05,91.45Z"/><path class="cls-1" d="M62.63,91a6.1,6.1,0,0,1,6.8-5.88,6.8,6.8,0,0,1,6.37,6.58,6.68,6.68,0,0,1-7,6.21C64.83,97.64,62.44,95,62.63,91Z"/><path class="cls-1" d="M120.42,91.22c.06,3.86-2.45,6.67-6,6.73-3.83,0-7.23-3-7.22-6.46a6.82,6.82,0,0,1,6.57-6.39C117.59,85.11,120.35,87.65,120.42,91.22Z"/><path class="cls-1" d="M91.54,85.09a6.11,6.11,0,0,1,6.32,6.65c-.12,3.76-2.5,6.17-6.08,6.16-4.16,0-6.77-2.59-6.7-6.63A6.07,6.07,0,0,1,91.54,85.09Z"/></g></g></svg>