<svg xmlns="http://www.w3.org/2000/svg" viewBox="0 0 149 145.27"><defs><style>.cls-1{fill:#460136;}.cls-2{fill:#fe61f5;}.cls-3{fill:#470137;}</style></defs><g id="Layer_2" data-name="Layer 2"><g id="Layer_3" data-name="Layer 3"><path class="cls-1" d="M0,120.57V24.71c.11-1,.1-2.08.2-3.11a20.23,20.23,0,0,1,1.63-5.7A26,26,0,0,1,8.48,6.59,25.66,25.66,0,0,1,20.74.32,23.46,23.46,0,0,1,24,.06,1.51,1.51,0,0,0,24.71,0h99.58c1,.11,2.08.1,3.11.2a19.92,19.92,0,0,1,5.7,1.64,26.08,26.08,0,0,1,9.31,6.63,26.83,26.83,0,0,1,5.2,8.52,20,20,0,0,1,1.33,7.36.51.51,0,0,0,.06.36v95.86c-.1,1-.1,2.07-.2,3.1a20.15,20.15,0,0,1-1.64,5.7,26.32,26.32,0,0,1-6.64,9.31,26.7,26.7,0,0,1-8.51,5.21,20.17,20.17,0,0,1-7.36,1.32.51.51,0,0,0-.36.06H24.71c-1-.11-2.08-.09-3.11-.2a20.56,20.56,0,0,1-5.7-1.63,26.52,26.52,0,0,1-8.84-6.15,27,27,0,0,1-5.61-8.83,19.74,19.74,0,0,1-1.39-7.35C.06,120.93.12,120.73,0,120.57Z"/><path class="cls-2" d="M127,63.88q0,12.66,0,25.32c0,3.09.14,6.16.35,9.24.07,1-.07,1.18-1,1.55a50.48,50.48,0,0,1-21,3.65,27.07,27.07,0,0,1-14.62-4.48,21.39,21.39,0,0,1-9.21-14.38A29,29,0,0,1,82,70.66c3-9.31,9.36-15.12,18.76-17.63a33.09,33.09,0,0,1,11.69-.9c.56,0,.71-.08.71-.67,0-6.18,0-12.37,0-18.55,0-1,.06-1,1.06-1H126c.9,0,1,.08,1,1Z"/><path class="cls-2" d="M50,78.05a1.36,1.36,0,0,0-.38.56c-4,7.79-8.14,15.51-12.36,23.18a1.18,1.18,0,0,1-1.08.69l-4.53,0H22.35c-.67,0-.84-.26-.49-.87.45-.79.93-1.56,1.41-2.34Q32,84.93,40.81,70.57a1,1,0,0,0,0-1.21Q31.62,53.83,22.46,38.3c-.46-.77-.32-1,.57-1H36.87a1.73,1.73,0,0,1,1.78,1.14,160.47,160.47,0,0,0,7.87,14.83q2.32,4,4.37,8.2l.14.25c.17,0,.2-.1.23-.18,3.67-7.69,8-15,11.84-22.62a2.43,2.43,0,0,1,2.62-1.59c4,.11,8,0,12,0,.29,0,.59,0,.76.27s-.06.5-.19.73Q69.1,53.43,59.94,68.53a.69.69,0,0,0,.05.83q9.67,15.84,19.33,31.7c.09.14.18.28.26.43.33.66.2.88-.54.88-4.86,0-9.72,0-14.58,0A2.12,2.12,0,0,1,62.34,101c-3.77-7.64-7.9-15.08-12.05-22.51C50.21,78.36,50.12,78.23,50,78.05Z"/><path class="cls-3" d="M113.12,77.66c0,4.34,0,8.69,0,13,0,.46-.12.68-.59.73-3.75.44-7.47.54-11-1.17A10.72,10.72,0,0,1,96.1,84a17.81,17.81,0,0,1-.56-10.56c1.13-4.66,4.36-7.46,8.73-9a15.62,15.62,0,0,1,8.25-.54c.5.08.61.28.61.76C113.11,68.93,113.12,73.3,113.12,77.66Z"/></g></g></svg>