<svg width="1600" height="980" viewBox="0 0 1600 980" fill="none" xmlns="http://www.w3.org/2000/svg">
<g clip-path="url(#clip0_301_57657)">
<rect width="1600" height="980" fill="#FFC700"/>
<rect width="698" height="980" fill="white"/>
<path d="M1109.99 122.496C1109.99 54.8435 1055.14 3.32468e-05 987.489 2.1418e-05C919.836 9.58917e-06 864.992 54.8435 864.992 122.496C864.992 190.149 919.836 244.993 987.489 244.993C1055.14 244.993 1109.99 190.149 1109.99 122.496Z" fill="url(#paint0_linear_301_57657)"/>
<path d="M987.488 177.187C972.983 177.187 959.072 171.425 948.816 161.169C938.559 150.912 932.797 137.001 932.797 122.496V122.496C932.797 107.991 938.559 94.0802 948.816 83.8236C959.072 73.5671 972.983 67.805 987.488 67.805V67.805C994.677 67.7972 1001.8 69.206 1008.44 71.9506C1015.08 74.6953 1021.12 78.7221 1026.21 83.8011C1031.3 88.88 1035.33 94.9114 1038.09 101.551C1040.84 108.19 1042.26 115.308 1042.27 122.496V122.496C1042.26 129.685 1040.84 136.802 1038.09 143.441C1035.33 150.081 1031.3 156.112 1026.21 161.191C1021.12 166.27 1015.08 170.297 1008.44 173.042C1001.8 175.786 994.677 177.195 987.488 177.187Z" fill="#FFC700"/>
<path d="M1355.39 0.000244141L1600.38 0.000286977C1600.38 64.9764 1574.57 127.291 1528.63 173.236C1482.68 219.181 1420.37 244.993 1355.39 244.993L1355.39 0.000244141V0.000244141Z" fill="#FFB839"/>
<path d="M1109.99 244.992L864.992 244.992L864.992 489.985L1109.99 489.985L1109.99 244.992Z" fill="#E15400"/>
<path d="M1039.92 315.062L935.062 315.062L935.062 419.916L1039.92 419.916L1039.92 315.062Z" fill="#346F85"/>
<path d="M1354.98 244.993L1109.99 244.993L1109.99 489.985L1354.98 489.985L1354.98 244.993Z" fill="white"/>
<path d="M1355.01 244.993L1355.01 489.985L1109.9 489.985C1109.9 457.803 1116.24 425.935 1128.56 396.204C1140.88 366.472 1158.93 339.459 1181.7 316.708C1204.46 293.957 1231.48 275.913 1261.22 263.608C1290.96 251.303 1322.83 244.977 1355.01 244.993V244.993Z" fill="url(#paint1_linear_301_57657)"/>
<path d="M1355.01 244.993C1387.18 244.993 1419.04 251.33 1448.76 263.642C1478.49 275.954 1505.49 294 1528.24 316.749C1550.99 339.499 1569.04 366.507 1581.35 396.231C1593.66 425.955 1600 457.813 1600 489.985L1355.01 489.985L1355.01 244.993Z" fill="#346F85"/>
<path d="M1109.9 489.986L1354.89 489.986L1354.89 735.096C1322.71 735.096 1290.84 728.755 1261.11 716.436C1231.38 704.116 1204.36 686.06 1181.61 663.298C1158.86 640.535 1140.82 613.514 1128.51 583.776C1116.21 554.039 1109.88 522.168 1109.9 489.986V489.986Z" fill="#F26B2F"/>
<path d="M1355.01 489.986L1233.69 489.986C1233.69 474.055 1236.83 458.28 1242.92 443.563C1249.02 428.845 1257.96 415.473 1269.22 404.21C1280.49 392.946 1293.86 384.013 1308.58 377.919C1323.3 371.825 1339.08 368.691 1355.01 368.695V368.695L1355.01 489.986Z" fill="white"/>
<path d="M1355.01 611.306C1322.83 611.306 1291.97 598.524 1269.22 575.772C1246.47 553.02 1233.69 522.162 1233.69 489.986L1355.01 489.986L1355.01 611.306Z" fill="#346F85"/>
<path d="M1355.01 611.306L1355.01 489.986L1476.3 489.986C1476.3 505.916 1473.17 521.692 1467.07 536.411C1460.98 551.13 1452.05 564.504 1440.78 575.77C1429.52 587.036 1416.15 595.973 1401.43 602.07C1386.71 608.168 1370.94 611.306 1355.01 611.306V611.306Z" fill="#6B5844"/>
<path d="M1110.01 980L864.992 980L1110.01 735.007L1110.01 980Z" fill="#FFB839"/>
<path d="M895.542 578.197C898.26 578.188 900.891 577.238 902.988 575.508C905.085 573.779 906.518 571.377 907.043 568.71C907.569 566.043 907.155 563.277 905.871 560.881C904.588 558.485 902.514 556.608 900.003 555.568C897.492 554.529 894.698 554.391 892.097 555.178C889.495 555.965 887.247 557.629 885.734 559.887C884.22 562.145 883.536 564.857 883.796 567.562C884.057 570.268 885.246 572.8 887.162 574.727C889.392 576.938 892.402 578.185 895.542 578.197" fill="white"/>
<path d="M1017.92 578.197C1021.07 578.197 1024.09 576.947 1026.31 574.722C1028.54 572.497 1029.79 569.479 1029.79 566.333C1029.79 563.186 1028.54 560.168 1026.31 557.943C1024.09 555.718 1021.07 554.468 1017.92 554.468C1014.78 554.468 1011.76 555.718 1009.53 557.943C1007.31 560.168 1006.06 563.186 1006.06 566.333C1006.06 569.479 1007.31 572.497 1009.53 574.722C1011.76 576.947 1014.78 578.197 1017.92 578.197Z" fill="white"/>
<path d="M956.704 578.197C959.851 578.197 962.869 576.947 965.094 574.722C967.319 572.497 968.569 569.479 968.569 566.333C968.569 563.186 967.319 560.168 965.094 557.943C962.869 555.718 959.851 554.468 956.704 554.468C953.558 554.468 950.54 555.718 948.315 557.943C946.09 560.168 944.84 563.186 944.84 566.333C944.84 569.479 946.09 572.497 948.315 574.722C950.54 576.947 953.558 578.197 956.704 578.197Z" fill="white"/>
<path d="M1079.14 578.197C1081.86 578.181 1084.49 577.225 1086.58 575.492C1088.67 573.759 1090.1 571.355 1090.62 568.689C1091.14 566.022 1090.72 563.258 1089.43 560.865C1088.15 558.473 1086.07 556.599 1083.56 555.563C1081.05 554.527 1078.26 554.392 1075.66 555.181C1073.06 555.971 1070.81 557.636 1069.3 559.893C1067.79 562.151 1067.11 564.862 1067.37 567.566C1067.63 570.27 1068.82 572.8 1070.73 574.727C1072.97 576.948 1075.99 578.195 1079.14 578.197Z" fill="white"/>
<path d="M895.542 529.446C898.26 529.437 900.891 528.487 902.988 526.757C905.085 525.028 906.518 522.625 907.043 519.959C907.569 517.292 907.155 514.526 905.871 512.13C904.588 509.734 902.514 507.857 900.003 506.817C897.492 505.778 894.698 505.64 892.097 506.427C889.495 507.214 887.247 508.878 885.734 511.136C884.22 513.394 883.536 516.106 883.796 518.811C884.057 521.517 885.246 524.048 887.162 525.976C889.392 528.187 892.402 529.433 895.542 529.446" fill="white"/>
<path d="M1017.92 529.445C1021.07 529.445 1024.09 528.195 1026.31 525.97C1028.54 523.745 1029.79 520.728 1029.79 517.581C1029.79 514.434 1028.54 511.417 1026.31 509.192C1024.09 506.967 1021.07 505.717 1017.92 505.717C1014.78 505.717 1011.76 506.967 1009.53 509.192C1007.31 511.417 1006.06 514.434 1006.06 517.581C1006.06 520.728 1007.31 523.745 1009.53 525.97C1011.76 528.195 1014.78 529.445 1017.92 529.445Z" fill="white"/>
<path d="M956.704 529.445C959.851 529.445 962.869 528.195 965.094 525.97C967.319 523.745 968.569 520.728 968.569 517.581C968.569 514.434 967.319 511.417 965.094 509.192C962.869 506.967 959.851 505.717 956.704 505.717C953.558 505.717 950.54 506.967 948.315 509.192C946.09 511.417 944.84 514.434 944.84 517.581C944.84 520.728 946.09 523.745 948.315 525.97C950.54 528.195 953.558 529.445 956.704 529.445Z" fill="white"/>
<path d="M1079.14 529.445C1081.86 529.43 1084.49 528.474 1086.58 526.741C1088.67 525.008 1090.1 522.604 1090.62 519.937C1091.14 517.271 1090.72 514.507 1089.43 512.114C1088.15 509.721 1086.07 507.848 1083.56 506.812C1081.05 505.776 1078.26 505.641 1075.66 506.43C1073.06 507.219 1070.81 508.884 1069.3 511.142C1067.79 513.4 1067.11 516.111 1067.37 518.815C1067.63 521.519 1068.82 524.049 1070.73 525.976C1072.97 528.197 1075.99 529.444 1079.14 529.445" fill="white"/>
<path d="M895.542 626.948C898.26 626.939 900.891 625.989 902.988 624.26C905.085 622.53 906.518 620.128 907.043 617.461C907.569 614.795 907.155 612.028 905.871 609.633C904.588 607.237 902.514 605.359 900.003 604.32C897.492 603.28 894.698 603.142 892.097 603.929C889.495 604.717 887.247 606.381 885.734 608.638C884.22 610.896 883.536 613.608 883.796 616.314C884.057 619.019 885.246 621.551 887.162 623.478C889.392 625.69 892.402 626.936 895.542 626.948" fill="white"/>
<path d="M1017.92 626.949C1021.07 626.949 1024.09 625.699 1026.31 623.474C1028.54 621.249 1029.79 618.231 1029.79 615.084C1029.79 611.938 1028.54 608.92 1026.31 606.695C1024.09 604.47 1021.07 603.22 1017.92 603.22C1014.78 603.22 1011.76 604.47 1009.53 606.695C1007.31 608.92 1006.06 611.938 1006.06 615.084C1006.06 618.231 1007.31 621.249 1009.53 623.474C1011.76 625.699 1014.78 626.949 1017.92 626.949Z" fill="white"/>
<path d="M956.704 626.949C959.851 626.949 962.869 625.699 965.094 623.474C967.319 621.249 968.569 618.231 968.569 615.084C968.569 611.938 967.319 608.92 965.094 606.695C962.869 604.47 959.851 603.22 956.704 603.22C953.558 603.22 950.54 604.47 948.315 606.695C946.09 608.92 944.84 611.938 944.84 615.084C944.84 618.231 946.09 621.249 948.315 623.474C950.54 625.699 953.558 626.949 956.704 626.949Z" fill="white"/>
<path d="M1079.14 626.949C1081.86 626.933 1084.49 625.977 1086.58 624.244C1088.67 622.511 1090.1 620.107 1090.62 617.441C1091.14 614.774 1090.72 612.01 1089.43 609.617C1088.15 607.225 1086.07 605.351 1083.56 604.315C1081.05 603.279 1078.26 603.144 1075.66 603.933C1073.06 604.723 1070.81 606.388 1069.3 608.645C1067.79 610.903 1067.11 613.614 1067.37 616.318C1067.63 619.022 1068.82 621.552 1070.73 623.479C1072.97 625.7 1075.99 626.947 1079.14 626.949" fill="white"/>
<path d="M895.542 675.7C898.26 675.691 900.891 674.741 902.988 673.011C905.085 671.282 906.518 668.88 907.043 666.213C907.569 663.547 907.155 660.78 905.871 658.384C904.588 655.989 902.514 654.111 900.003 653.072C897.492 652.032 894.698 651.894 892.097 652.681C889.495 653.469 887.247 655.133 885.734 657.39C884.22 659.648 883.536 662.36 883.796 665.066C884.057 667.771 885.246 670.303 887.162 672.23C889.392 674.442 892.402 675.688 895.542 675.7" fill="white"/>
<path d="M1017.92 675.7C1021.07 675.7 1024.09 674.45 1026.31 672.225C1028.54 670 1029.79 666.982 1029.79 663.835C1029.79 660.689 1028.54 657.671 1026.31 655.446C1024.09 653.221 1021.07 651.971 1017.92 651.971C1014.78 651.971 1011.76 653.221 1009.53 655.446C1007.31 657.671 1006.06 660.689 1006.06 663.835C1006.06 666.982 1007.31 670 1009.53 672.225C1011.76 674.45 1014.78 675.7 1017.92 675.7Z" fill="white"/>
<path d="M956.704 675.7C959.851 675.7 962.869 674.45 965.094 672.225C967.319 670 968.569 666.982 968.569 663.835C968.569 660.689 967.319 657.671 965.094 655.446C962.869 653.221 959.851 651.971 956.704 651.971C953.558 651.971 950.54 653.221 948.315 655.446C946.09 657.671 944.84 660.689 944.84 663.835C944.84 666.982 946.09 670 948.315 672.225C950.54 674.45 953.558 675.7 956.704 675.7Z" fill="white"/>
<path d="M1079.14 675.7C1081.86 675.684 1084.49 674.729 1086.58 672.995C1088.67 671.262 1090.1 668.858 1090.62 666.192C1091.14 663.525 1090.72 660.761 1089.43 658.368C1088.15 655.976 1086.07 654.102 1083.56 653.066C1081.05 652.03 1078.26 651.895 1075.66 652.684C1073.06 653.474 1070.81 655.139 1069.3 657.396C1067.79 659.654 1067.11 662.365 1067.37 665.069C1067.63 667.773 1068.82 670.303 1070.73 672.23C1072.97 674.451 1075.99 675.699 1079.14 675.7" fill="white"/>
<path d="M895.542 724.451C898.26 724.442 900.891 723.492 902.988 721.763C905.085 720.033 906.518 717.631 907.043 714.965C907.569 712.298 907.155 709.532 905.871 707.136C904.588 704.74 902.514 702.863 900.003 701.823C897.492 700.783 894.698 700.645 892.097 701.433C889.495 702.22 887.247 703.884 885.734 706.142C884.22 708.399 883.536 711.111 883.796 713.817C884.057 716.522 885.246 719.054 887.162 720.982C889.392 723.193 892.402 724.439 895.542 724.451" fill="white"/>
<path d="M1017.92 724.452C1021.07 724.452 1024.09 723.202 1026.31 720.977C1028.54 718.752 1029.79 715.734 1029.79 712.587C1029.79 709.441 1028.54 706.423 1026.31 704.198C1024.09 701.973 1021.07 700.723 1017.92 700.723C1014.78 700.723 1011.76 701.973 1009.53 704.198C1007.31 706.423 1006.06 709.44 1006.06 712.587C1006.06 715.734 1007.31 718.752 1009.53 720.977C1011.76 723.202 1014.78 724.452 1017.92 724.452Z" fill="white"/>
<path d="M956.704 724.452C959.851 724.452 962.869 723.202 965.094 720.977C967.319 718.752 968.569 715.734 968.569 712.587C968.569 709.441 967.319 706.423 965.094 704.198C962.869 701.973 959.851 700.723 956.704 700.723C953.558 700.723 950.54 701.973 948.315 704.198C946.09 706.423 944.84 709.44 944.84 712.587C944.84 715.734 946.09 718.752 948.315 720.977C950.54 723.202 953.558 724.452 956.704 724.452Z" fill="white"/>
<path d="M1079.14 724.452C1082.28 724.443 1085.29 723.196 1087.52 720.982C1089.73 718.74 1090.98 715.721 1090.99 712.573C1090.99 709.426 1089.74 706.408 1087.52 704.183C1085.29 701.958 1082.27 700.708 1079.13 700.708C1075.98 700.708 1072.96 701.958 1070.74 704.183C1068.51 706.408 1067.26 709.426 1067.26 712.573C1067.26 715.692 1068.5 718.683 1070.71 720.889C1072.91 723.095 1075.9 724.334 1079.02 724.334" fill="white"/>
<path d="M1598.99 979.993L1354 979.993C1354 915.017 1379.81 852.702 1425.76 806.757C1471.7 760.812 1534.02 735 1598.99 735L1598.99 979.993Z" fill="white"/>
<path d="M769 68L699 68L699 138L769 138L769 68Z" fill="url(#paint2_linear_301_57657)"/>
</g>
<defs>
<linearGradient id="paint0_linear_301_57657" x1="865.16" y1="116.085" x2="1109.82" y2="128.907" gradientUnits="userSpaceOnUse">
<stop stop-color="#E87722"/>
<stop offset="1" stop-color="#FFA300"/>
</linearGradient>
<linearGradient id="paint1_linear_301_57657" x1="1110.07" y1="361.078" x2="1354.84" y2="373.912" gradientUnits="userSpaceOnUse">
<stop stop-color="#E87722"/>
<stop offset="1" stop-color="#FFA300"/>
</linearGradient>
<linearGradient id="paint2_linear_301_57657" x1="699.048" y1="101.168" x2="768.952" y2="104.832" gradientUnits="userSpaceOnUse">
<stop stop-color="#E87722"/>
<stop offset="1" stop-color="#FFA300"/>
</linearGradient>
<clipPath id="clip0_301_57657">
<rect width="1600" height="980" fill="white"/>
</clipPath>
</defs>
</svg>
