<svg width="1600" height="980" viewBox="0 0 1600 980" fill="none" xmlns="http://www.w3.org/2000/svg">
<g clip-path="url(#clip0_2_469)">
<rect width="1600" height="980" fill="#FFC700"/>
<rect width="698" height="980" fill="white"/>
<g clip-path="url(#clip1_2_469)">
<path fill-rule="evenodd" clip-rule="evenodd" d="M272.119 731.419C274.363 731.419 276.185 732.12 277.574 733.532L277.607 733.521C278.985 734.933 279.74 736.741 279.685 738.945C279.585 743.318 278.64 745.555 270.463 750.086L251.121 759.917V793.556C251.121 795.229 250.532 796.641 249.366 797.782C248.199 798.924 246.788 799.5 245.144 799.5C243.5 799.5 242.111 798.924 240.989 797.782C239.867 796.641 239.3 795.229 239.3 793.556V765.928L196.649 787.601H228.524C230.09 787.601 231.401 788.155 232.49 789.251C233.567 790.359 234.112 791.703 234.112 793.285C234.112 794.867 233.567 796.189 232.49 797.251C231.401 798.302 230.079 798.833 228.524 798.833H187.961C185.617 798.833 183.662 798.212 182.106 796.98C180.54 795.749 180.118 794.008 179.762 791.827C178.962 787.025 180.84 784.076 185.173 781.805L239.278 754.109V742.64H186.384C184.828 742.64 183.529 742.12 182.484 741.058C181.451 739.995 180.929 738.685 180.929 737.091C180.929 735.498 181.451 734.165 182.484 733.057C183.529 731.961 184.828 731.408 186.384 731.408H205.982V731.385H218.114V731.408H239.267V723.735C239.267 718.447 240.2 714.096 242.067 710.707C243.922 707.317 246.355 704.842 249.343 703.305C252.332 701.757 255.476 700.989 258.765 700.989C262.831 700.989 266.608 701.87 270.075 703.633C270.941 704.074 271.652 704.718 272.219 705.554C272.785 706.39 273.063 707.294 273.063 708.266C273.063 709.588 272.585 710.752 271.63 711.769C270.674 712.786 269.552 713.294 268.253 713.294C267.297 713.294 266.308 713.159 265.264 712.899C263.186 712.639 262.009 712.503 261.753 712.503C258.198 712.503 255.532 713.339 253.754 715.012C251.977 716.695 251.088 719.735 251.088 724.142V731.419H272.119ZM251.088 742.662V748.075L261.664 742.662H251.088ZM98.8378 790.167V793.556C98.8378 795.229 98.249 796.641 97.0825 797.782C95.9159 798.924 94.505 799.5 92.8607 799.5C91.2164 799.5 89.8277 798.924 88.7056 797.782C87.5835 796.641 87.0169 795.229 87.0169 793.556V707.746C87.0169 706.074 87.5835 704.639 88.7056 703.452C89.8166 702.254 91.2053 701.667 92.8496 701.667C94.5827 701.667 96.0159 702.243 97.138 703.384C98.2601 704.537 98.8267 705.983 98.8267 707.746V740.142C105.148 733.442 112.559 730.097 121.058 730.097C126.435 730.097 131.523 731.487 136.334 734.266C141.144 737.046 145.044 741.103 148.032 746.436C151.021 751.77 152.521 758.007 152.521 765.149C152.521 772.29 151.032 778.528 148.032 783.861C145.044 789.195 141.144 793.251 136.334 796.031C131.523 798.811 126.435 800.201 121.058 800.201C112.564 800.201 105.157 796.86 98.8378 790.167ZM140.7 765.137C140.7 772.72 138.745 778.573 134.845 782.72V782.731C130.957 786.878 125.79 788.946 119.38 788.946C115.392 788.946 111.648 788.042 108.137 786.234C104.626 784.426 101.526 782.019 98.8378 779.025V751.261C101.526 748.267 104.626 745.86 108.137 744.052C111.648 742.244 115.392 741.34 119.38 741.34C125.79 741.34 130.945 743.408 134.845 747.555C138.745 751.691 140.7 757.555 140.7 765.137ZM159.198 710.921C159.198 712.774 159.853 714.356 161.153 715.678C162.453 717 164.008 717.667 165.83 717.667H166.608C168.43 717.667 169.986 717 171.285 715.678C172.596 714.356 173.241 712.774 173.241 710.921V710.39C173.241 708.537 172.585 706.955 171.285 705.633C169.986 704.3 168.43 703.644 166.608 703.644H165.83C164.008 703.644 162.453 704.311 161.153 705.633C159.842 706.955 159.198 708.537 159.198 710.39V710.921ZM160.242 793.568C160.242 795.24 160.809 796.652 161.931 797.794V797.782C163.053 798.924 164.442 799.5 166.086 799.5C167.73 799.5 169.141 798.924 170.308 797.782C171.474 796.641 172.063 795.229 172.063 793.556V736.832C172.063 735.069 171.497 733.611 170.374 732.47C169.252 731.329 167.819 730.752 166.086 730.752C164.442 730.752 163.053 731.351 161.931 732.538C160.809 733.724 160.242 735.159 160.242 736.832V793.568ZM286.417 715.678C285.117 714.356 284.462 712.774 284.462 710.921V710.39C284.462 708.537 285.106 706.955 286.417 705.633C287.717 704.311 289.272 703.644 291.094 703.644H291.872C293.694 703.644 295.25 704.3 296.549 705.633C297.849 706.955 298.505 708.537 298.505 710.39V710.921C298.505 712.774 297.86 714.356 296.549 715.678C295.25 717 293.694 717.667 291.872 717.667H291.094C289.272 717.667 287.717 717 286.417 715.678ZM287.195 797.794C286.073 796.652 285.506 795.24 285.506 793.568V736.832C285.506 735.159 286.073 733.724 287.195 732.538C288.317 731.351 289.706 730.752 291.35 730.752C293.083 730.752 294.516 731.329 295.638 732.47C296.76 733.611 297.327 735.069 297.327 736.832V793.556C297.327 795.229 296.738 796.641 295.572 797.782C294.405 798.924 292.994 799.5 291.35 799.5C289.706 799.5 288.317 798.924 287.195 797.782V797.794ZM307.47 793.568C307.47 795.24 308.037 796.652 309.159 797.794V797.782C310.281 798.924 311.67 799.5 313.314 799.5C314.958 799.5 316.369 798.924 317.536 797.782C318.703 796.641 319.291 795.229 319.291 793.556V707.746C319.291 705.983 318.725 704.537 317.603 703.384C316.481 702.243 315.047 701.667 313.314 701.667C311.67 701.667 310.281 702.266 309.159 703.452C308.037 704.639 307.47 706.074 307.47 707.746V793.568ZM337.234 790.98C331.301 784.855 328.324 776.234 328.324 765.126C328.324 758.866 329.446 753.092 331.701 747.804C333.956 742.515 337.423 738.244 342.1 734.978C346.777 731.724 352.543 730.086 359.387 730.086C365.797 730.086 371.352 731.611 376.03 734.651C380.707 737.69 384.262 741.747 386.695 746.821C389.117 751.894 390.339 757.42 390.339 763.42C390.339 765.092 389.795 766.505 388.717 767.646C387.628 768.799 386.184 769.364 384.362 769.364H340.289C340.978 775.533 343.233 780.336 347.055 783.771C350.866 787.206 356.198 788.923 363.042 788.923C366.686 788.923 369.864 788.573 372.597 787.873C375.33 787.172 377.996 786.155 380.596 784.833C381.285 784.483 382.073 784.302 382.94 784.302C384.329 784.302 385.54 784.788 386.584 785.759C387.628 786.731 388.139 787.963 388.139 789.466C388.139 791.409 387.006 793.037 384.762 794.359C381.385 796.302 378.04 797.749 374.752 798.72C371.452 799.692 367.208 800.178 362.009 800.178C351.432 800.178 343.178 797.116 337.245 790.991L337.234 790.98ZM378.64 759.578C378.385 755.261 377.274 751.645 375.33 748.73C373.374 745.826 370.975 743.69 368.119 742.312C365.264 740.945 362.353 740.267 359.409 740.267C356.465 740.267 353.554 740.956 350.699 742.312C347.844 743.679 345.455 745.815 343.544 748.73C341.633 751.634 340.556 755.25 340.289 759.578H378.64Z" fill="url(#paint0_linear_2_469)"/>
</g>
<path d="M95.0033 845.259C95.6489 845.259 96.205 845.185 96.6717 845.037C97.1383 844.889 97.5194 844.683 97.815 844.419C98.1183 844.147 98.34 843.828 98.48 843.462C98.62 843.089 98.69 842.681 98.69 842.237C98.69 841.374 98.3828 840.693 97.7683 840.196C97.1539 839.69 96.2322 839.437 95.0033 839.437H91.3867V845.259H95.0033ZM91.3867 832.122V837.827H94.3733C95.0111 837.827 95.5633 837.757 96.03 837.617C96.5044 837.477 96.8933 837.283 97.1967 837.034C97.5078 836.785 97.7372 836.486 97.885 836.136C98.0328 835.778 98.1067 835.389 98.1067 834.969C98.1067 833.981 97.8111 833.262 97.22 832.811C96.6289 832.352 95.7111 832.122 94.4667 832.122H91.3867ZM94.4667 830.337C95.4933 830.337 96.3761 830.438 97.115 830.641C97.8617 830.843 98.4722 831.131 98.9467 831.504C99.4289 831.877 99.7828 832.336 100.008 832.881C100.234 833.417 100.347 834.024 100.347 834.701C100.347 835.113 100.281 835.509 100.148 835.891C100.024 836.264 99.8333 836.614 99.5767 836.941C99.32 837.267 98.9933 837.563 98.5967 837.827C98.2078 838.084 97.7489 838.294 97.22 838.457C98.4489 838.691 99.3706 839.13 99.985 839.776C100.607 840.413 100.918 841.253 100.918 842.296C100.918 843.003 100.786 843.649 100.522 844.232C100.265 844.816 99.8839 845.317 99.3783 845.737C98.8806 846.157 98.2661 846.484 97.535 846.717C96.8039 846.943 95.9717 847.056 95.0383 847.056H89.135V830.337H94.4667ZM113.197 835.237V847.056H111.961C111.665 847.056 111.478 846.912 111.401 846.624L111.237 845.352C110.724 845.92 110.148 846.379 109.511 846.729C108.873 847.071 108.142 847.242 107.317 847.242C106.672 847.242 106.1 847.137 105.602 846.927C105.112 846.709 104.7 846.406 104.366 846.017C104.031 845.628 103.778 845.158 103.607 844.606C103.444 844.053 103.362 843.443 103.362 842.774V835.237H105.439V842.774C105.439 843.668 105.641 844.361 106.046 844.851C106.458 845.341 107.084 845.586 107.924 845.586C108.538 845.586 109.11 845.442 109.639 845.154C110.176 844.858 110.67 844.454 111.121 843.941V835.237H113.197ZM123.373 837.186C123.28 837.357 123.136 837.442 122.942 837.442C122.825 837.442 122.693 837.399 122.545 837.314C122.397 837.228 122.214 837.135 121.997 837.034C121.787 836.925 121.534 836.828 121.238 836.742C120.943 836.649 120.593 836.602 120.188 836.602C119.838 836.602 119.523 836.649 119.243 836.742C118.963 836.828 118.722 836.948 118.52 837.104C118.326 837.259 118.174 837.442 118.065 837.652C117.964 837.854 117.913 838.076 117.913 838.317C117.913 838.621 117.999 838.873 118.17 839.076C118.349 839.278 118.582 839.453 118.87 839.601C119.158 839.748 119.484 839.881 119.85 839.997C120.216 840.106 120.589 840.227 120.97 840.359C121.359 840.483 121.736 840.623 122.102 840.779C122.467 840.934 122.794 841.129 123.082 841.362C123.369 841.596 123.599 841.883 123.77 842.226C123.949 842.56 124.038 842.964 124.038 843.439C124.038 843.983 123.941 844.489 123.747 844.956C123.552 845.414 123.264 845.815 122.883 846.157C122.502 846.492 122.036 846.756 121.483 846.951C120.931 847.145 120.293 847.242 119.57 847.242C118.746 847.242 117.999 847.11 117.33 846.846C116.661 846.573 116.093 846.227 115.627 845.807L116.117 845.014C116.179 844.913 116.253 844.835 116.338 844.781C116.424 844.726 116.533 844.699 116.665 844.699C116.805 844.699 116.953 844.753 117.108 844.862C117.264 844.971 117.451 845.092 117.668 845.224C117.894 845.356 118.166 845.477 118.485 845.586C118.804 845.694 119.201 845.749 119.675 845.749C120.079 845.749 120.433 845.698 120.737 845.597C121.04 845.488 121.293 845.344 121.495 845.166C121.697 844.987 121.845 844.781 121.938 844.547C122.039 844.314 122.09 844.065 122.09 843.801C122.09 843.474 122.001 843.206 121.822 842.996C121.651 842.778 121.421 842.595 121.133 842.447C120.846 842.292 120.515 842.159 120.142 842.051C119.776 841.934 119.399 841.813 119.01 841.689C118.629 841.564 118.252 841.424 117.878 841.269C117.513 841.106 117.186 840.903 116.898 840.662C116.611 840.421 116.377 840.126 116.198 839.776C116.027 839.418 115.942 838.986 115.942 838.481C115.942 838.029 116.035 837.598 116.222 837.186C116.408 836.766 116.681 836.4 117.038 836.089C117.396 835.77 117.836 835.517 118.357 835.331C118.878 835.144 119.473 835.051 120.142 835.051C120.919 835.051 121.616 835.175 122.23 835.424C122.852 835.665 123.389 835.999 123.84 836.427L123.373 837.186ZM128.778 835.237V847.056H126.701V835.237H128.778ZM129.221 831.527C129.221 831.729 129.178 831.92 129.093 832.099C129.015 832.27 128.906 832.426 128.766 832.566C128.634 832.698 128.474 832.803 128.288 832.881C128.109 832.958 127.918 832.997 127.716 832.997C127.514 832.997 127.323 832.958 127.144 832.881C126.973 832.803 126.822 832.698 126.689 832.566C126.557 832.426 126.452 832.27 126.374 832.099C126.297 831.92 126.258 831.729 126.258 831.527C126.258 831.325 126.297 831.134 126.374 830.956C126.452 830.769 126.557 830.609 126.689 830.477C126.822 830.337 126.973 830.228 127.144 830.151C127.323 830.073 127.514 830.034 127.716 830.034C127.918 830.034 128.109 830.073 128.288 830.151C128.474 830.228 128.634 830.337 128.766 830.477C128.906 830.609 129.015 830.769 129.093 830.956C129.178 831.134 129.221 831.325 129.221 831.527ZM134.15 836.952C134.407 836.664 134.679 836.404 134.967 836.171C135.254 835.937 135.558 835.739 135.877 835.576C136.203 835.404 136.545 835.276 136.903 835.191C137.269 835.097 137.662 835.051 138.082 835.051C138.727 835.051 139.295 835.159 139.785 835.377C140.283 835.587 140.695 835.891 141.022 836.287C141.356 836.676 141.609 837.147 141.78 837.699C141.951 838.251 142.037 838.862 142.037 839.531V847.056H139.948V839.531C139.948 838.636 139.742 837.944 139.33 837.454C138.925 836.956 138.307 836.707 137.475 836.707C136.86 836.707 136.285 836.855 135.748 837.151C135.219 837.446 134.729 837.847 134.278 838.352V847.056H132.19V835.237H133.438C133.734 835.237 133.917 835.381 133.987 835.669L134.15 836.952ZM153.111 839.857C153.111 839.375 153.041 838.936 152.901 838.539C152.769 838.134 152.57 837.788 152.306 837.501C152.049 837.205 151.734 836.979 151.361 836.824C150.988 836.661 150.564 836.579 150.089 836.579C149.094 836.579 148.304 836.871 147.721 837.454C147.145 838.029 146.788 838.831 146.648 839.857H153.111ZM154.791 845.399C154.534 845.71 154.227 845.982 153.869 846.216C153.512 846.441 153.127 846.628 152.714 846.776C152.31 846.923 151.89 847.032 151.454 847.102C151.019 847.18 150.587 847.219 150.159 847.219C149.343 847.219 148.588 847.083 147.896 846.811C147.212 846.531 146.617 846.126 146.111 845.597C145.613 845.061 145.224 844.399 144.944 843.614C144.664 842.828 144.524 841.926 144.524 840.907C144.524 840.083 144.649 839.313 144.898 838.597C145.154 837.882 145.52 837.263 145.994 836.742C146.469 836.213 147.048 835.801 147.733 835.506C148.417 835.202 149.187 835.051 150.043 835.051C150.75 835.051 151.404 835.171 152.003 835.412C152.609 835.646 153.13 835.988 153.566 836.439C154.009 836.882 154.355 837.434 154.604 838.096C154.853 838.749 154.978 839.496 154.978 840.336C154.978 840.662 154.943 840.88 154.873 840.989C154.803 841.098 154.67 841.152 154.476 841.152H146.578C146.601 841.899 146.702 842.548 146.881 843.101C147.068 843.653 147.324 844.116 147.651 844.489C147.978 844.854 148.367 845.131 148.818 845.317C149.269 845.496 149.774 845.586 150.334 845.586C150.855 845.586 151.303 845.527 151.676 845.411C152.057 845.286 152.384 845.154 152.656 845.014C152.928 844.874 153.154 844.746 153.333 844.629C153.519 844.504 153.679 844.442 153.811 844.442C153.982 844.442 154.114 844.508 154.208 844.641L154.791 845.399ZM164.412 837.186C164.318 837.357 164.175 837.442 163.98 837.442C163.863 837.442 163.731 837.399 163.583 837.314C163.436 837.228 163.253 837.135 163.035 837.034C162.825 836.925 162.572 836.828 162.277 836.742C161.981 836.649 161.631 836.602 161.227 836.602C160.877 836.602 160.562 836.649 160.282 836.742C160.002 836.828 159.761 836.948 159.558 837.104C159.364 837.259 159.212 837.442 159.103 837.652C159.002 837.854 158.952 838.076 158.952 838.317C158.952 838.621 159.037 838.873 159.208 839.076C159.387 839.278 159.621 839.453 159.908 839.601C160.196 839.748 160.523 839.881 160.888 839.997C161.254 840.106 161.627 840.227 162.008 840.359C162.397 840.483 162.775 840.623 163.14 840.779C163.506 840.934 163.832 841.129 164.12 841.362C164.408 841.596 164.637 841.883 164.808 842.226C164.987 842.56 165.077 842.964 165.077 843.439C165.077 843.983 164.98 844.489 164.785 844.956C164.591 845.414 164.303 845.815 163.922 846.157C163.541 846.492 163.074 846.756 162.522 846.951C161.97 847.145 161.332 847.242 160.608 847.242C159.784 847.242 159.037 847.11 158.368 846.846C157.7 846.573 157.132 846.227 156.665 845.807L157.155 845.014C157.217 844.913 157.291 844.835 157.377 844.781C157.462 844.726 157.571 844.699 157.703 844.699C157.843 844.699 157.991 844.753 158.147 844.862C158.302 844.971 158.489 845.092 158.707 845.224C158.932 845.356 159.205 845.477 159.523 845.586C159.842 845.694 160.239 845.749 160.713 845.749C161.118 845.749 161.472 845.698 161.775 845.597C162.078 845.488 162.331 845.344 162.533 845.166C162.736 844.987 162.883 844.781 162.977 844.547C163.078 844.314 163.128 844.065 163.128 843.801C163.128 843.474 163.039 843.206 162.86 842.996C162.689 842.778 162.46 842.595 162.172 842.447C161.884 842.292 161.553 842.159 161.18 842.051C160.815 841.934 160.437 841.813 160.048 841.689C159.667 841.564 159.29 841.424 158.917 841.269C158.551 841.106 158.225 840.903 157.937 840.662C157.649 840.421 157.416 840.126 157.237 839.776C157.066 839.418 156.98 838.986 156.98 838.481C156.98 838.029 157.073 837.598 157.26 837.186C157.447 836.766 157.719 836.4 158.077 836.089C158.435 835.77 158.874 835.517 159.395 835.331C159.916 835.144 160.511 835.051 161.18 835.051C161.958 835.051 162.654 835.175 163.268 835.424C163.891 835.665 164.427 835.999 164.878 836.427L164.412 837.186ZM174.506 837.186C174.413 837.357 174.269 837.442 174.075 837.442C173.958 837.442 173.826 837.399 173.678 837.314C173.53 837.228 173.347 837.135 173.13 837.034C172.92 836.925 172.667 836.828 172.371 836.742C172.076 836.649 171.726 836.602 171.321 836.602C170.971 836.602 170.656 836.649 170.376 836.742C170.096 836.828 169.855 836.948 169.653 837.104C169.458 837.259 169.307 837.442 169.198 837.652C169.097 837.854 169.046 838.076 169.046 838.317C169.046 838.621 169.132 838.873 169.303 839.076C169.482 839.278 169.715 839.453 170.003 839.601C170.291 839.748 170.617 839.881 170.983 839.997C171.348 840.106 171.722 840.227 172.103 840.359C172.492 840.483 172.869 840.623 173.235 840.779C173.6 840.934 173.927 841.129 174.215 841.362C174.502 841.596 174.732 841.883 174.903 842.226C175.082 842.56 175.171 842.964 175.171 843.439C175.171 843.983 175.074 844.489 174.88 844.956C174.685 845.414 174.397 845.815 174.016 846.157C173.635 846.492 173.168 846.756 172.616 846.951C172.064 847.145 171.426 847.242 170.703 847.242C169.878 847.242 169.132 847.11 168.463 846.846C167.794 846.573 167.226 846.227 166.76 845.807L167.25 845.014C167.312 844.913 167.386 844.835 167.471 844.781C167.557 844.726 167.666 844.699 167.798 844.699C167.938 844.699 168.086 844.753 168.241 844.862C168.397 844.971 168.583 845.092 168.801 845.224C169.027 845.356 169.299 845.477 169.618 845.586C169.937 845.694 170.333 845.749 170.808 845.749C171.212 845.749 171.566 845.698 171.87 845.597C172.173 845.488 172.426 845.344 172.628 845.166C172.83 844.987 172.978 844.781 173.071 844.547C173.172 844.314 173.223 844.065 173.223 843.801C173.223 843.474 173.133 843.206 172.955 842.996C172.783 842.778 172.554 842.595 172.266 842.447C171.978 842.292 171.648 842.159 171.275 842.051C170.909 841.934 170.532 841.813 170.143 841.689C169.762 841.564 169.385 841.424 169.011 841.269C168.646 841.106 168.319 840.903 168.031 840.662C167.743 840.421 167.51 840.126 167.331 839.776C167.16 839.418 167.075 838.986 167.075 838.481C167.075 838.029 167.168 837.598 167.355 837.186C167.541 836.766 167.813 836.4 168.171 836.089C168.529 835.77 168.968 835.517 169.49 835.331C170.011 835.144 170.606 835.051 171.275 835.051C172.052 835.051 172.748 835.175 173.363 835.424C173.985 835.665 174.522 835.999 174.973 836.427L174.506 837.186ZM186.441 832.181V838.026H193.312V839.869H186.441V847.056H184.177V830.337H194.479V832.181H186.441ZM199.028 835.237V847.056H196.952V835.237H199.028ZM199.472 831.527C199.472 831.729 199.429 831.92 199.343 832.099C199.266 832.27 199.157 832.426 199.017 832.566C198.885 832.698 198.725 832.803 198.538 832.881C198.36 832.958 198.169 832.997 197.967 832.997C197.765 832.997 197.574 832.958 197.395 832.881C197.224 832.803 197.072 832.698 196.94 832.566C196.808 832.426 196.703 832.27 196.625 832.099C196.547 831.92 196.508 831.729 196.508 831.527C196.508 831.325 196.547 831.134 196.625 830.956C196.703 830.769 196.808 830.609 196.94 830.477C197.072 830.337 197.224 830.228 197.395 830.151C197.574 830.073 197.765 830.034 197.967 830.034C198.169 830.034 198.36 830.073 198.538 830.151C198.725 830.228 198.885 830.337 199.017 830.477C199.157 830.609 199.266 830.769 199.343 830.956C199.429 831.134 199.472 831.325 199.472 831.527ZM204.587 829.871V847.056H202.511V829.871H204.587ZM210.148 835.237V847.056H208.072V835.237H210.148ZM210.592 831.527C210.592 831.729 210.549 831.92 210.463 832.099C210.385 832.27 210.277 832.426 210.137 832.566C210.004 832.698 209.845 832.803 209.658 832.881C209.479 832.958 209.289 832.997 209.087 832.997C208.884 832.997 208.694 832.958 208.515 832.881C208.344 832.803 208.192 832.698 208.06 832.566C207.928 832.426 207.823 832.27 207.745 832.099C207.667 831.92 207.628 831.729 207.628 831.527C207.628 831.325 207.667 831.134 207.745 830.956C207.823 830.769 207.928 830.609 208.06 830.477C208.192 830.337 208.344 830.228 208.515 830.151C208.694 830.073 208.884 830.034 209.087 830.034C209.289 830.034 209.479 830.073 209.658 830.151C209.845 830.228 210.004 830.337 210.137 830.477C210.277 830.609 210.385 830.769 210.463 830.956C210.549 831.134 210.592 831.325 210.592 831.527ZM215.52 836.952C215.777 836.664 216.049 836.404 216.337 836.171C216.625 835.937 216.928 835.739 217.247 835.576C217.574 835.404 217.916 835.276 218.274 835.191C218.639 835.097 219.032 835.051 219.452 835.051C220.098 835.051 220.665 835.159 221.155 835.377C221.653 835.587 222.065 835.891 222.392 836.287C222.726 836.676 222.979 837.147 223.15 837.699C223.321 838.251 223.407 838.862 223.407 839.531V847.056H221.319V839.531C221.319 838.636 221.113 837.944 220.7 837.454C220.296 836.956 219.678 836.707 218.845 836.707C218.231 836.707 217.655 836.855 217.119 837.151C216.59 837.446 216.1 837.847 215.649 838.352V847.056H213.56V835.237H214.809C215.104 835.237 215.287 835.381 215.357 835.669L215.52 836.952ZM230.69 841.281C231.11 841.281 231.479 841.222 231.798 841.106C232.117 840.989 232.385 840.826 232.603 840.616C232.821 840.406 232.984 840.157 233.093 839.869C233.202 839.573 233.256 839.251 233.256 838.901C233.256 838.177 233.035 837.602 232.591 837.174C232.156 836.746 231.522 836.532 230.69 836.532C229.85 836.532 229.208 836.746 228.765 837.174C228.329 837.602 228.111 838.177 228.111 838.901C228.111 839.251 228.166 839.573 228.275 839.869C228.391 840.157 228.559 840.406 228.776 840.616C228.994 840.826 229.263 840.989 229.581 841.106C229.9 841.222 230.27 841.281 230.69 841.281ZM234.435 847.697C234.435 847.409 234.353 847.176 234.19 846.997C234.026 846.818 233.805 846.678 233.525 846.577C233.253 846.476 232.934 846.406 232.568 846.367C232.203 846.321 231.814 846.286 231.401 846.262C230.997 846.239 230.585 846.216 230.165 846.192C229.745 846.169 229.34 846.13 228.951 846.076C228.516 846.278 228.158 846.534 227.878 846.846C227.606 847.149 227.47 847.507 227.47 847.919C227.47 848.183 227.536 848.428 227.668 848.654C227.808 848.887 228.018 849.086 228.298 849.249C228.578 849.42 228.928 849.552 229.348 849.646C229.776 849.747 230.278 849.797 230.853 849.797C231.413 849.797 231.915 849.747 232.358 849.646C232.801 849.544 233.175 849.401 233.478 849.214C233.789 849.027 234.026 848.806 234.19 848.549C234.353 848.292 234.435 848.008 234.435 847.697ZM236.546 835.704V836.474C236.546 836.731 236.383 836.894 236.056 836.964L234.715 837.139C234.979 837.652 235.111 838.22 235.111 838.842C235.111 839.418 234.999 839.943 234.773 840.417C234.555 840.884 234.252 841.284 233.863 841.619C233.474 841.953 233.008 842.21 232.463 842.389C231.919 842.568 231.328 842.657 230.69 842.657C230.138 842.657 229.616 842.591 229.126 842.459C228.878 842.614 228.687 842.782 228.555 842.961C228.423 843.132 228.356 843.307 228.356 843.486C228.356 843.766 228.469 843.979 228.695 844.127C228.928 844.267 229.231 844.368 229.605 844.431C229.978 844.493 230.402 844.532 230.876 844.547C231.359 844.563 231.849 844.59 232.346 844.629C232.852 844.66 233.342 844.718 233.816 844.804C234.299 844.889 234.726 845.029 235.1 845.224C235.473 845.418 235.773 845.687 235.998 846.029C236.231 846.371 236.348 846.814 236.348 847.359C236.348 847.864 236.22 848.354 235.963 848.829C235.714 849.303 235.353 849.723 234.878 850.089C234.404 850.462 233.82 850.758 233.128 850.976C232.444 851.201 231.67 851.314 230.806 851.314C229.943 851.314 229.189 851.228 228.543 851.057C227.898 850.886 227.361 850.657 226.933 850.369C226.505 850.081 226.183 849.747 225.965 849.366C225.755 848.992 225.65 848.599 225.65 848.187C225.65 847.604 225.833 847.11 226.198 846.706C226.564 846.301 227.065 845.978 227.703 845.737C227.353 845.582 227.073 845.376 226.863 845.119C226.661 844.854 226.56 844.501 226.56 844.057C226.56 843.886 226.591 843.711 226.653 843.532C226.715 843.346 226.809 843.163 226.933 842.984C227.065 842.797 227.225 842.622 227.411 842.459C227.598 842.296 227.816 842.152 228.065 842.027C227.481 841.701 227.026 841.269 226.7 840.732C226.373 840.188 226.21 839.558 226.21 838.842C226.21 838.267 226.319 837.746 226.536 837.279C226.762 836.804 227.073 836.404 227.47 836.077C227.866 835.743 228.337 835.486 228.881 835.307C229.434 835.128 230.036 835.039 230.69 835.039C231.203 835.039 231.681 835.097 232.125 835.214C232.568 835.323 232.973 835.486 233.338 835.704H236.546ZM248.654 838.819C247.829 839.254 247.207 839.783 246.787 840.406C246.375 841.028 246.169 841.704 246.169 842.436C246.169 842.941 246.262 843.388 246.449 843.777C246.636 844.158 246.881 844.481 247.184 844.746C247.487 845.01 247.833 845.212 248.222 845.352C248.611 845.484 249.008 845.551 249.412 845.551C250.283 845.551 251.065 845.391 251.757 845.072C252.457 844.753 253.068 844.326 253.589 843.789L248.654 838.819ZM259.434 847.056H257.416C257.19 847.056 257.007 847.028 256.867 846.974C256.727 846.919 256.576 846.807 256.412 846.636L254.721 844.932C253.989 845.64 253.146 846.204 252.189 846.624C251.24 847.036 250.194 847.242 249.051 847.242C248.428 847.242 247.818 847.137 247.219 846.927C246.628 846.717 246.095 846.414 245.621 846.017C245.146 845.613 244.765 845.123 244.477 844.547C244.189 843.972 244.046 843.322 244.046 842.599C244.046 842.054 244.135 841.541 244.314 841.059C244.501 840.569 244.757 840.118 245.084 839.706C245.411 839.293 245.796 838.924 246.239 838.597C246.682 838.271 247.168 837.991 247.697 837.757C247.223 837.151 246.873 836.567 246.647 836.007C246.422 835.439 246.309 834.852 246.309 834.246C246.309 833.678 246.41 833.145 246.612 832.647C246.822 832.149 247.122 831.718 247.511 831.352C247.899 830.979 248.37 830.687 248.922 830.477C249.482 830.259 250.108 830.151 250.801 830.151C251.415 830.151 251.975 830.252 252.481 830.454C252.986 830.648 253.422 830.909 253.787 831.236C254.153 831.562 254.441 831.943 254.651 832.379C254.868 832.807 254.993 833.254 255.024 833.721L253.729 833.977C253.472 834.039 253.282 833.919 253.157 833.616C253.103 833.413 253.013 833.203 252.889 832.986C252.772 832.768 252.617 832.569 252.422 832.391C252.236 832.212 252.006 832.064 251.734 831.947C251.469 831.831 251.158 831.772 250.801 831.772C250.412 831.772 250.058 831.834 249.739 831.959C249.428 832.083 249.159 832.258 248.934 832.484C248.716 832.702 248.549 832.962 248.432 833.266C248.316 833.561 248.257 833.884 248.257 834.234C248.257 834.506 248.288 834.767 248.351 835.016C248.413 835.264 248.51 835.517 248.642 835.774C248.782 836.031 248.957 836.291 249.167 836.556C249.377 836.82 249.63 837.1 249.926 837.396L254.732 842.284C255.028 841.755 255.265 841.207 255.444 840.639C255.623 840.063 255.739 839.492 255.794 838.924C255.809 838.776 255.856 838.659 255.934 838.574C256.012 838.488 256.121 838.446 256.261 838.446H257.532C257.524 839.34 257.384 840.219 257.112 841.082C256.84 841.938 256.447 842.743 255.934 843.497L259.434 847.056ZM269.999 847.056H267.735V830.337H269.999V847.056ZM275.563 836.952C275.819 836.664 276.092 836.404 276.379 836.171C276.667 835.937 276.97 835.739 277.289 835.576C277.616 835.404 277.958 835.276 278.316 835.191C278.682 835.097 279.074 835.051 279.494 835.051C280.14 835.051 280.708 835.159 281.198 835.377C281.695 835.587 282.108 835.891 282.434 836.287C282.769 836.676 283.022 837.147 283.193 837.699C283.364 838.251 283.449 838.862 283.449 839.531V847.056H281.361V839.531C281.361 838.636 281.155 837.944 280.743 837.454C280.338 836.956 279.72 836.707 278.888 836.707C278.273 836.707 277.698 836.855 277.161 837.151C276.632 837.446 276.142 837.847 275.691 838.352V847.056H273.603V835.237H274.851C275.147 835.237 275.329 835.381 275.399 835.669L275.563 836.952ZM287.201 847.056V837.011L285.895 836.859C285.731 836.82 285.595 836.762 285.486 836.684C285.385 836.598 285.335 836.478 285.335 836.322V835.471H287.201V834.327C287.201 833.651 287.295 833.052 287.481 832.531C287.676 832.002 287.948 831.558 288.298 831.201C288.656 830.835 289.084 830.559 289.581 830.372C290.079 830.186 290.639 830.092 291.261 830.092C291.79 830.092 292.276 830.17 292.72 830.326L292.673 831.364C292.658 831.551 292.553 831.652 292.358 831.667C292.171 831.683 291.919 831.691 291.6 831.691C291.242 831.691 290.915 831.737 290.62 831.831C290.332 831.924 290.083 832.076 289.873 832.286C289.663 832.496 289.5 832.772 289.383 833.114C289.274 833.456 289.22 833.88 289.22 834.386V835.471H292.626V836.976H289.29V847.056H287.201ZM299.206 835.051C300.069 835.051 300.847 835.194 301.539 835.482C302.232 835.77 302.823 836.178 303.313 836.707C303.803 837.236 304.176 837.878 304.433 838.632C304.697 839.379 304.829 840.215 304.829 841.141C304.829 842.074 304.697 842.914 304.433 843.661C304.176 844.407 303.803 845.045 303.313 845.574C302.823 846.103 302.232 846.511 301.539 846.799C300.847 847.079 300.069 847.219 299.206 847.219C298.335 847.219 297.549 847.079 296.849 846.799C296.157 846.511 295.566 846.103 295.076 845.574C294.586 845.045 294.209 844.407 293.944 843.661C293.688 842.914 293.559 842.074 293.559 841.141C293.559 840.215 293.688 839.379 293.944 838.632C294.209 837.878 294.586 837.236 295.076 836.707C295.566 836.178 296.157 835.77 296.849 835.482C297.549 835.194 298.335 835.051 299.206 835.051ZM299.206 845.597C300.373 845.597 301.244 845.208 301.819 844.431C302.395 843.645 302.683 842.552 302.683 841.152C302.683 839.744 302.395 838.648 301.819 837.862C301.244 837.077 300.373 836.684 299.206 836.684C298.615 836.684 298.098 836.785 297.654 836.987C297.219 837.189 296.853 837.481 296.558 837.862C296.27 838.243 296.052 838.714 295.904 839.274C295.764 839.826 295.694 840.452 295.694 841.152C295.694 842.552 295.982 843.645 296.558 844.431C297.141 845.208 298.024 845.597 299.206 845.597ZM309.435 837.606C309.808 836.797 310.267 836.167 310.812 835.716C311.356 835.257 312.021 835.027 312.807 835.027C313.056 835.027 313.293 835.054 313.518 835.109C313.752 835.163 313.958 835.249 314.137 835.366L313.985 836.917C313.938 837.112 313.822 837.209 313.635 837.209C313.526 837.209 313.367 837.186 313.157 837.139C312.947 837.092 312.709 837.069 312.445 837.069C312.072 837.069 311.737 837.123 311.442 837.232C311.154 837.341 310.893 837.504 310.66 837.722C310.434 837.932 310.228 838.197 310.042 838.516C309.863 838.827 309.699 839.184 309.552 839.589V847.056H307.463V835.237H308.653C308.879 835.237 309.034 835.28 309.12 835.366C309.206 835.451 309.264 835.599 309.295 835.809L309.435 837.606ZM315.963 847.056V835.237H317.211C317.507 835.237 317.689 835.381 317.759 835.669L317.911 836.882C318.347 836.346 318.837 835.906 319.381 835.564C319.925 835.222 320.555 835.051 321.271 835.051C322.064 835.051 322.706 835.272 323.196 835.716C323.694 836.159 324.052 836.758 324.269 837.512C324.44 837.084 324.658 836.715 324.923 836.404C325.195 836.093 325.498 835.836 325.833 835.634C326.167 835.432 326.521 835.284 326.894 835.191C327.275 835.097 327.66 835.051 328.049 835.051C328.672 835.051 329.224 835.152 329.706 835.354C330.196 835.548 330.608 835.836 330.943 836.217C331.285 836.598 331.545 837.069 331.724 837.629C331.903 838.181 331.993 838.815 331.993 839.531V847.056H329.904V839.531C329.904 838.605 329.702 837.905 329.298 837.431C328.893 836.948 328.31 836.707 327.548 836.707C327.205 836.707 326.879 836.769 326.568 836.894C326.264 837.011 325.996 837.186 325.763 837.419C325.529 837.652 325.343 837.948 325.203 838.306C325.07 838.656 325.004 839.064 325.004 839.531V847.056H322.916V839.531C322.916 838.582 322.725 837.874 322.344 837.407C321.963 836.941 321.407 836.707 320.676 836.707C320.163 836.707 319.688 836.847 319.253 837.127C318.817 837.399 318.417 837.773 318.051 838.247V847.056H315.963ZM341.554 841.736C340.597 841.767 339.781 841.844 339.104 841.969C338.435 842.086 337.887 842.241 337.459 842.436C337.039 842.63 336.732 842.859 336.537 843.124C336.351 843.388 336.257 843.684 336.257 844.011C336.257 844.322 336.308 844.59 336.409 844.816C336.51 845.041 336.646 845.228 336.817 845.376C336.996 845.516 337.202 845.621 337.436 845.691C337.677 845.753 337.933 845.784 338.206 845.784C338.571 845.784 338.906 845.749 339.209 845.679C339.512 845.601 339.796 845.492 340.061 845.352C340.333 845.212 340.589 845.045 340.831 844.851C341.079 844.656 341.321 844.434 341.554 844.186V841.736ZM334.846 836.906C335.499 836.276 336.203 835.805 336.957 835.494C337.712 835.183 338.548 835.027 339.466 835.027C340.127 835.027 340.714 835.136 341.227 835.354C341.741 835.572 342.172 835.875 342.522 836.264C342.872 836.653 343.137 837.123 343.316 837.676C343.494 838.228 343.584 838.834 343.584 839.496V847.056H342.662C342.46 847.056 342.304 847.024 342.196 846.962C342.087 846.892 342.001 846.76 341.939 846.566L341.706 845.446C341.394 845.733 341.091 845.99 340.796 846.216C340.5 846.433 340.189 846.62 339.862 846.776C339.536 846.923 339.186 847.036 338.812 847.114C338.447 847.199 338.038 847.242 337.587 847.242C337.128 847.242 336.697 847.18 336.292 847.056C335.888 846.923 335.534 846.729 335.231 846.472C334.935 846.216 334.698 845.893 334.519 845.504C334.348 845.107 334.262 844.641 334.262 844.104C334.262 843.637 334.391 843.19 334.647 842.762C334.904 842.327 335.32 841.942 335.896 841.607C336.471 841.273 337.222 841.001 338.147 840.791C339.073 840.573 340.208 840.448 341.554 840.417V839.496C341.554 838.578 341.356 837.886 340.959 837.419C340.562 836.944 339.983 836.707 339.221 836.707C338.707 836.707 338.276 836.773 337.926 836.906C337.583 837.03 337.284 837.174 337.027 837.337C336.778 837.493 336.561 837.637 336.374 837.769C336.195 837.893 336.016 837.956 335.837 837.956C335.697 837.956 335.577 837.921 335.476 837.851C335.374 837.773 335.289 837.679 335.219 837.571L334.846 836.906ZM357.554 847.056H355.478V836.976H349.388V844.069C349.388 844.567 349.508 844.936 349.749 845.177C349.99 845.418 350.302 845.539 350.683 845.539C350.9 845.539 351.087 845.512 351.243 845.457C351.406 845.395 351.546 845.329 351.663 845.259C351.779 845.189 351.877 845.127 351.954 845.072C352.04 845.01 352.114 844.979 352.176 844.979C352.285 844.979 352.382 845.045 352.468 845.177L353.074 846.169C352.717 846.503 352.285 846.768 351.779 846.962C351.274 847.149 350.753 847.242 350.216 847.242C349.283 847.242 348.563 846.982 348.058 846.461C347.56 845.939 347.311 845.189 347.311 844.209V836.976H345.888C345.763 836.976 345.658 836.941 345.573 836.871C345.487 836.793 345.444 836.676 345.444 836.521V835.692L347.381 835.436L347.859 831.796C347.883 831.679 347.933 831.586 348.011 831.516C348.097 831.438 348.205 831.399 348.338 831.399H349.388V835.471H357.554V847.056ZM358.068 831.446C358.068 831.648 358.025 831.838 357.939 832.017C357.862 832.188 357.753 832.34 357.613 832.472C357.48 832.604 357.325 832.709 357.146 832.787C356.967 832.865 356.777 832.904 356.574 832.904C356.372 832.904 356.182 832.865 356.003 832.787C355.832 832.709 355.68 832.604 355.548 832.472C355.415 832.34 355.31 832.188 355.233 832.017C355.155 831.838 355.116 831.648 355.116 831.446C355.116 831.243 355.155 831.053 355.233 830.874C355.31 830.687 355.415 830.528 355.548 830.396C355.68 830.256 355.832 830.147 356.003 830.069C356.182 829.991 356.372 829.952 356.574 829.952C356.777 829.952 356.967 829.991 357.146 830.069C357.325 830.147 357.48 830.256 357.613 830.396C357.753 830.528 357.862 830.687 357.939 830.874C358.025 831.053 358.068 831.243 358.068 831.446ZM365.948 835.051C366.811 835.051 367.589 835.194 368.281 835.482C368.973 835.77 369.564 836.178 370.054 836.707C370.544 837.236 370.918 837.878 371.174 838.632C371.439 839.379 371.571 840.215 371.571 841.141C371.571 842.074 371.439 842.914 371.174 843.661C370.918 844.407 370.544 845.045 370.054 845.574C369.564 846.103 368.973 846.511 368.281 846.799C367.589 847.079 366.811 847.219 365.948 847.219C365.077 847.219 364.291 847.079 363.591 846.799C362.899 846.511 362.308 846.103 361.818 845.574C361.328 845.045 360.95 844.407 360.686 843.661C360.429 842.914 360.301 842.074 360.301 841.141C360.301 840.215 360.429 839.379 360.686 838.632C360.95 837.878 361.328 837.236 361.818 836.707C362.308 836.178 362.899 835.77 363.591 835.482C364.291 835.194 365.077 835.051 365.948 835.051ZM365.948 845.597C367.114 845.597 367.985 845.208 368.561 844.431C369.137 843.645 369.424 842.552 369.424 841.152C369.424 839.744 369.137 838.648 368.561 837.862C367.985 837.077 367.114 836.684 365.948 836.684C365.357 836.684 364.839 836.785 364.396 836.987C363.96 837.189 363.595 837.481 363.299 837.862C363.012 838.243 362.794 838.714 362.646 839.274C362.506 839.826 362.436 840.452 362.436 841.152C362.436 842.552 362.724 843.645 363.299 844.431C363.883 845.208 364.765 845.597 365.948 845.597ZM376.165 836.952C376.422 836.664 376.694 836.404 376.982 836.171C377.269 835.937 377.573 835.739 377.892 835.576C378.218 835.404 378.56 835.276 378.918 835.191C379.284 835.097 379.677 835.051 380.097 835.051C380.742 835.051 381.31 835.159 381.8 835.377C382.298 835.587 382.71 835.891 383.037 836.287C383.371 836.676 383.624 837.147 383.795 837.699C383.966 838.251 384.052 838.862 384.052 839.531V847.056H381.963V839.531C381.963 838.636 381.757 837.944 381.345 837.454C380.94 836.956 380.322 836.707 379.49 836.707C378.875 836.707 378.3 836.855 377.763 837.151C377.234 837.446 376.744 837.847 376.293 838.352V847.056H374.205V835.237H375.453C375.749 835.237 375.932 835.381 376.002 835.669L376.165 836.952ZM93.7667 873.434C94.42 873.434 94.9956 873.356 95.4933 873.201C95.9989 873.037 96.4189 872.812 96.7533 872.524C97.0956 872.228 97.3522 871.878 97.5233 871.474C97.6944 871.069 97.78 870.622 97.78 870.132C97.78 869.137 97.4533 868.386 96.8 867.881C96.1467 867.375 95.1667 867.122 93.86 867.122H91.3867V873.434H93.7667ZM101.49 882.056H99.4833C99.0711 882.056 98.7678 881.896 98.5733 881.577L94.2333 875.604C94.1011 875.417 93.9572 875.285 93.8017 875.207C93.6539 875.122 93.4206 875.079 93.1017 875.079H91.3867V882.056H89.135V865.337H93.86C94.9178 865.337 95.8317 865.446 96.6017 865.664C97.3717 865.874 98.0056 866.181 98.5033 866.586C99.0089 866.99 99.3822 867.48 99.6233 868.056C99.8644 868.623 99.985 869.261 99.985 869.969C99.985 870.56 99.8917 871.112 99.705 871.626C99.5183 872.139 99.2461 872.602 98.8883 873.014C98.5383 873.418 98.1067 873.764 97.5933 874.052C97.0878 874.34 96.5122 874.558 95.8667 874.706C96.1544 874.869 96.4033 875.106 96.6133 875.417L101.49 882.056ZM110.432 874.857C110.432 874.375 110.362 873.936 110.222 873.539C110.09 873.134 109.891 872.788 109.627 872.501C109.37 872.205 109.055 871.979 108.682 871.824C108.309 871.661 107.885 871.579 107.41 871.579C106.415 871.579 105.625 871.871 105.042 872.454C104.466 873.029 104.109 873.831 103.969 874.857H110.432ZM112.112 880.399C111.855 880.71 111.548 880.982 111.19 881.216C110.833 881.441 110.448 881.628 110.035 881.776C109.631 881.923 109.211 882.032 108.775 882.102C108.34 882.18 107.908 882.219 107.48 882.219C106.664 882.219 105.909 882.083 105.217 881.811C104.533 881.531 103.938 881.126 103.432 880.597C102.934 880.061 102.545 879.399 102.265 878.614C101.985 877.828 101.845 876.926 101.845 875.907C101.845 875.083 101.97 874.313 102.219 873.597C102.475 872.882 102.841 872.263 103.315 871.742C103.79 871.213 104.369 870.801 105.054 870.506C105.738 870.202 106.508 870.051 107.364 870.051C108.071 870.051 108.725 870.171 109.324 870.412C109.93 870.646 110.451 870.988 110.887 871.439C111.33 871.882 111.676 872.434 111.925 873.096C112.174 873.749 112.299 874.496 112.299 875.336C112.299 875.662 112.264 875.88 112.194 875.989C112.124 876.098 111.991 876.152 111.797 876.152H103.899C103.922 876.899 104.023 877.548 104.202 878.101C104.389 878.653 104.645 879.116 104.972 879.489C105.299 879.854 105.688 880.131 106.139 880.317C106.59 880.496 107.095 880.586 107.655 880.586C108.176 880.586 108.624 880.527 108.997 880.411C109.378 880.286 109.705 880.154 109.977 880.014C110.249 879.874 110.475 879.746 110.654 879.629C110.84 879.504 111 879.442 111.132 879.442C111.303 879.442 111.435 879.508 111.529 879.641L112.112 880.399ZM118.387 882.242C117.453 882.242 116.734 881.982 116.228 881.461C115.731 880.939 115.482 880.189 115.482 879.209V871.976H114.058C113.934 871.976 113.829 871.941 113.743 871.871C113.658 871.793 113.615 871.676 113.615 871.521V870.692L115.552 870.447L116.03 866.796C116.053 866.679 116.104 866.586 116.182 866.516C116.267 866.438 116.376 866.399 116.508 866.399H117.558V870.471H120.977V871.976H117.558V879.069C117.558 879.567 117.679 879.936 117.92 880.177C118.161 880.418 118.472 880.539 118.853 880.539C119.071 880.539 119.258 880.512 119.413 880.457C119.577 880.395 119.717 880.329 119.833 880.259C119.95 880.189 120.047 880.127 120.125 880.072C120.211 880.01 120.284 879.979 120.347 879.979C120.456 879.979 120.553 880.045 120.638 880.177L121.245 881.169C120.887 881.503 120.456 881.768 119.95 881.962C119.444 882.149 118.923 882.242 118.387 882.242ZM125.093 872.606C125.466 871.797 125.925 871.167 126.469 870.716C127.014 870.257 127.679 870.027 128.464 870.027C128.713 870.027 128.95 870.054 129.176 870.109C129.409 870.163 129.615 870.249 129.794 870.366L129.643 871.917C129.596 872.112 129.479 872.209 129.293 872.209C129.184 872.209 129.024 872.186 128.814 872.139C128.604 872.092 128.367 872.069 128.103 872.069C127.729 872.069 127.395 872.123 127.099 872.232C126.811 872.341 126.551 872.504 126.318 872.722C126.092 872.932 125.886 873.197 125.699 873.516C125.52 873.827 125.357 874.184 125.209 874.589V882.056H123.121V870.237H124.311C124.536 870.237 124.692 870.28 124.778 870.366C124.863 870.451 124.921 870.599 124.953 870.809L125.093 872.606ZM133.814 870.237V882.056H131.737V870.237H133.814ZM134.257 866.527C134.257 866.729 134.214 866.92 134.129 867.099C134.051 867.27 133.942 867.426 133.802 867.566C133.67 867.698 133.51 867.803 133.324 867.881C133.145 867.958 132.954 867.997 132.752 867.997C132.55 867.997 132.359 867.958 132.18 867.881C132.009 867.803 131.857 867.698 131.725 867.566C131.593 867.426 131.488 867.27 131.41 867.099C131.332 866.92 131.294 866.729 131.294 866.527C131.294 866.325 131.332 866.134 131.41 865.956C131.488 865.769 131.593 865.609 131.725 865.477C131.857 865.337 132.009 865.228 132.18 865.151C132.359 865.073 132.55 865.034 132.752 865.034C132.954 865.034 133.145 865.073 133.324 865.151C133.51 865.228 133.67 865.337 133.802 865.477C133.942 865.609 134.051 865.769 134.129 865.956C134.214 866.134 134.257 866.325 134.257 866.527ZM145.136 874.857C145.136 874.375 145.066 873.936 144.926 873.539C144.794 873.134 144.595 872.788 144.331 872.501C144.074 872.205 143.759 871.979 143.386 871.824C143.012 871.661 142.589 871.579 142.114 871.579C141.119 871.579 140.329 871.871 139.746 872.454C139.17 873.029 138.812 873.831 138.672 874.857H145.136ZM146.816 880.399C146.559 880.71 146.252 880.982 145.894 881.216C145.536 881.441 145.151 881.628 144.739 881.776C144.335 881.923 143.915 882.032 143.479 882.102C143.044 882.18 142.612 882.219 142.184 882.219C141.367 882.219 140.613 882.083 139.921 881.811C139.236 881.531 138.641 881.126 138.136 880.597C137.638 880.061 137.249 879.399 136.969 878.614C136.689 877.828 136.549 876.926 136.549 875.907C136.549 875.083 136.674 874.313 136.922 873.597C137.179 872.882 137.545 872.263 138.019 871.742C138.494 871.213 139.073 870.801 139.757 870.506C140.442 870.202 141.212 870.051 142.067 870.051C142.775 870.051 143.429 870.171 144.027 870.412C144.634 870.646 145.155 870.988 145.591 871.439C146.034 871.882 146.38 872.434 146.629 873.096C146.878 873.749 147.002 874.496 147.002 875.336C147.002 875.662 146.967 875.88 146.897 875.989C146.827 876.098 146.695 876.152 146.501 876.152H138.602C138.626 876.899 138.727 877.548 138.906 878.101C139.092 878.653 139.349 879.116 139.676 879.489C140.002 879.854 140.391 880.131 140.842 880.317C141.294 880.496 141.799 880.586 142.359 880.586C142.88 880.586 143.327 880.527 143.701 880.411C144.082 880.286 144.409 880.154 144.681 880.014C144.953 879.874 145.179 879.746 145.357 879.629C145.544 879.504 145.704 879.442 145.836 879.442C146.007 879.442 146.139 879.508 146.232 879.641L146.816 880.399ZM159.429 870.237L154.611 882.056H152.744L147.926 870.237H149.618C149.789 870.237 149.929 870.28 150.038 870.366C150.146 870.451 150.22 870.552 150.259 870.669L153.258 878.276C153.351 878.563 153.433 878.843 153.503 879.116C153.573 879.388 153.639 879.66 153.701 879.932C153.763 879.66 153.829 879.388 153.899 879.116C153.969 878.843 154.055 878.563 154.156 878.276L157.189 870.669C157.236 870.544 157.314 870.443 157.423 870.366C157.531 870.28 157.66 870.237 157.808 870.237H159.429ZM167.488 876.736C166.531 876.767 165.715 876.844 165.038 876.969C164.369 877.086 163.821 877.241 163.393 877.436C162.973 877.63 162.666 877.859 162.471 878.124C162.285 878.388 162.191 878.684 162.191 879.011C162.191 879.322 162.242 879.59 162.343 879.816C162.444 880.041 162.58 880.228 162.751 880.376C162.93 880.516 163.136 880.621 163.37 880.691C163.611 880.753 163.868 880.784 164.14 880.784C164.505 880.784 164.84 880.749 165.143 880.679C165.446 880.601 165.73 880.492 165.995 880.352C166.267 880.212 166.524 880.045 166.765 879.851C167.014 879.656 167.255 879.434 167.488 879.186V876.736ZM160.78 871.906C161.433 871.276 162.137 870.805 162.891 870.494C163.646 870.183 164.482 870.027 165.4 870.027C166.061 870.027 166.648 870.136 167.161 870.354C167.675 870.572 168.106 870.875 168.456 871.264C168.806 871.653 169.071 872.123 169.25 872.676C169.429 873.228 169.518 873.834 169.518 874.496V882.056H168.596C168.394 882.056 168.239 882.024 168.13 881.962C168.021 881.892 167.935 881.76 167.873 881.566L167.64 880.446C167.329 880.733 167.025 880.99 166.73 881.216C166.434 881.433 166.123 881.62 165.796 881.776C165.47 881.923 165.12 882.036 164.746 882.114C164.381 882.199 163.973 882.242 163.521 882.242C163.063 882.242 162.631 882.18 162.226 882.056C161.822 881.923 161.468 881.729 161.165 881.472C160.869 881.216 160.632 880.893 160.453 880.504C160.282 880.107 160.196 879.641 160.196 879.104C160.196 878.637 160.325 878.19 160.581 877.762C160.838 877.327 161.254 876.942 161.83 876.607C162.405 876.273 163.156 876.001 164.081 875.791C165.007 875.573 166.143 875.448 167.488 875.417V874.496C167.488 873.578 167.29 872.886 166.893 872.419C166.496 871.944 165.917 871.707 165.155 871.707C164.641 871.707 164.21 871.773 163.86 871.906C163.518 872.03 163.218 872.174 162.961 872.337C162.713 872.493 162.495 872.637 162.308 872.769C162.129 872.893 161.95 872.956 161.771 872.956C161.631 872.956 161.511 872.921 161.41 872.851C161.309 872.773 161.223 872.679 161.153 872.571L160.78 871.906ZM174.828 864.871V882.056H172.751V864.871H174.828ZM189.591 874.006C190.236 874.006 190.804 873.92 191.294 873.749C191.792 873.578 192.208 873.341 192.542 873.037C192.885 872.726 193.141 872.357 193.312 871.929C193.484 871.501 193.569 871.031 193.569 870.517C193.569 869.452 193.239 868.619 192.577 868.021C191.924 867.422 190.929 867.122 189.591 867.122H186.907V874.006H189.591ZM189.591 865.337C190.649 865.337 191.566 865.462 192.344 865.711C193.13 865.952 193.779 866.298 194.292 866.749C194.806 867.2 195.187 867.744 195.436 868.382C195.692 869.02 195.821 869.732 195.821 870.517C195.821 871.295 195.685 872.007 195.412 872.652C195.14 873.298 194.74 873.854 194.211 874.321C193.69 874.787 193.04 875.153 192.262 875.417C191.492 875.674 190.602 875.802 189.591 875.802H186.907V882.056H184.656V865.337H189.591ZM202.546 870.051C203.409 870.051 204.187 870.194 204.879 870.482C205.571 870.77 206.163 871.178 206.653 871.707C207.143 872.236 207.516 872.878 207.773 873.632C208.037 874.379 208.169 875.215 208.169 876.141C208.169 877.074 208.037 877.914 207.773 878.661C207.516 879.407 207.143 880.045 206.653 880.574C206.163 881.103 205.571 881.511 204.879 881.799C204.187 882.079 203.409 882.219 202.546 882.219C201.675 882.219 200.889 882.079 200.189 881.799C199.497 881.511 198.906 881.103 198.416 880.574C197.926 880.045 197.549 879.407 197.284 878.661C197.028 877.914 196.899 877.074 196.899 876.141C196.899 875.215 197.028 874.379 197.284 873.632C197.549 872.878 197.926 872.236 198.416 871.707C198.906 871.178 199.497 870.77 200.189 870.482C200.889 870.194 201.675 870.051 202.546 870.051ZM202.546 880.597C203.713 880.597 204.584 880.208 205.159 879.431C205.735 878.645 206.023 877.552 206.023 876.152C206.023 874.744 205.735 873.648 205.159 872.862C204.584 872.077 203.713 871.684 202.546 871.684C201.955 871.684 201.438 871.785 200.994 871.987C200.559 872.189 200.193 872.481 199.898 872.862C199.61 873.243 199.392 873.714 199.244 874.274C199.104 874.826 199.034 875.452 199.034 876.152C199.034 877.552 199.322 878.645 199.898 879.431C200.481 880.208 201.364 880.597 202.546 880.597ZM212.775 872.606C213.148 871.797 213.607 871.167 214.152 870.716C214.696 870.257 215.361 870.027 216.147 870.027C216.395 870.027 216.633 870.054 216.858 870.109C217.092 870.163 217.298 870.249 217.477 870.366L217.325 871.917C217.278 872.112 217.162 872.209 216.975 872.209C216.866 872.209 216.707 872.186 216.497 872.139C216.287 872.092 216.049 872.069 215.785 872.069C215.412 872.069 215.077 872.123 214.782 872.232C214.494 872.341 214.233 872.504 214 872.722C213.774 872.932 213.568 873.197 213.382 873.516C213.203 873.827 213.039 874.184 212.892 874.589V882.056H210.803V870.237H211.993C212.219 870.237 212.374 870.28 212.46 870.366C212.545 870.451 212.604 870.599 212.635 870.809L212.775 872.606ZM222.931 882.242C221.998 882.242 221.278 881.982 220.773 881.461C220.275 880.939 220.026 880.189 220.026 879.209V871.976H218.603C218.478 871.976 218.373 871.941 218.288 871.871C218.202 871.793 218.159 871.676 218.159 871.521V870.692L220.096 870.447L220.574 866.796C220.598 866.679 220.648 866.586 220.726 866.516C220.811 866.438 220.92 866.399 221.053 866.399H222.103V870.471H225.521V871.976H222.103V879.069C222.103 879.567 222.223 879.936 222.464 880.177C222.705 880.418 223.016 880.539 223.398 880.539C223.615 880.539 223.802 880.512 223.958 880.457C224.121 880.395 224.261 880.329 224.378 880.259C224.494 880.189 224.591 880.127 224.669 880.072C224.755 880.01 224.829 879.979 224.891 879.979C225 879.979 225.097 880.045 225.183 880.177L225.789 881.169C225.431 881.503 225 881.768 224.494 881.962C223.989 882.149 223.468 882.242 222.931 882.242ZM234.07 876.736C233.114 876.767 232.297 876.844 231.62 876.969C230.951 877.086 230.403 877.241 229.975 877.436C229.555 877.63 229.248 877.859 229.054 878.124C228.867 878.388 228.774 878.684 228.774 879.011C228.774 879.322 228.824 879.59 228.925 879.816C229.026 880.041 229.162 880.228 229.334 880.376C229.512 880.516 229.719 880.621 229.952 880.691C230.193 880.753 230.45 880.784 230.722 880.784C231.087 880.784 231.422 880.749 231.725 880.679C232.029 880.601 232.312 880.492 232.577 880.352C232.849 880.212 233.106 880.045 233.347 879.851C233.596 879.656 233.837 879.434 234.07 879.186V876.736ZM227.362 871.906C228.015 871.276 228.719 870.805 229.474 870.494C230.228 870.183 231.064 870.027 231.982 870.027C232.643 870.027 233.23 870.136 233.744 870.354C234.257 870.572 234.689 870.875 235.039 871.264C235.389 871.653 235.653 872.123 235.832 872.676C236.011 873.228 236.1 873.834 236.1 874.496V882.056H235.179C234.976 882.056 234.821 882.024 234.712 881.962C234.603 881.892 234.517 881.76 234.455 881.566L234.222 880.446C233.911 880.733 233.607 880.99 233.312 881.216C233.016 881.433 232.705 881.62 232.379 881.776C232.052 881.923 231.702 882.036 231.329 882.114C230.963 882.199 230.555 882.242 230.104 882.242C229.645 882.242 229.213 882.18 228.809 882.056C228.404 881.923 228.05 881.729 227.747 881.472C227.451 881.216 227.214 880.893 227.035 880.504C226.864 880.107 226.779 879.641 226.779 879.104C226.779 878.637 226.907 878.19 227.164 877.762C227.42 877.327 227.836 876.942 228.412 876.607C228.987 876.273 229.738 876.001 230.664 875.791C231.589 875.573 232.725 875.448 234.07 875.417V874.496C234.07 873.578 233.872 872.886 233.475 872.419C233.079 871.944 232.499 871.707 231.737 871.707C231.224 871.707 230.792 871.773 230.442 871.906C230.1 872.03 229.8 872.174 229.544 872.337C229.295 872.493 229.077 872.637 228.89 872.769C228.711 872.893 228.532 872.956 228.354 872.956C228.214 872.956 228.093 872.921 227.992 872.851C227.891 872.773 227.805 872.679 227.735 872.571L227.362 871.906ZM241.41 864.871V882.056H239.333V864.871H241.41ZM255.73 870.051C256.593 870.051 257.371 870.194 258.063 870.482C258.755 870.77 259.346 871.178 259.836 871.707C260.326 872.236 260.7 872.878 260.956 873.632C261.221 874.379 261.353 875.215 261.353 876.141C261.353 877.074 261.221 877.914 260.956 878.661C260.7 879.407 260.326 880.045 259.836 880.574C259.346 881.103 258.755 881.511 258.063 881.799C257.371 882.079 256.593 882.219 255.73 882.219C254.858 882.219 254.073 882.079 253.373 881.799C252.681 881.511 252.09 881.103 251.6 880.574C251.11 880.045 250.732 879.407 250.468 878.661C250.211 877.914 250.083 877.074 250.083 876.141C250.083 875.215 250.211 874.379 250.468 873.632C250.732 872.878 251.11 872.236 251.6 871.707C252.09 871.178 252.681 870.77 253.373 870.482C254.073 870.194 254.858 870.051 255.73 870.051ZM255.73 880.597C256.896 880.597 257.767 880.208 258.343 879.431C258.918 878.645 259.206 877.552 259.206 876.152C259.206 874.744 258.918 873.648 258.343 872.862C257.767 872.077 256.896 871.684 255.73 871.684C255.138 871.684 254.621 871.785 254.178 871.987C253.742 872.189 253.377 872.481 253.081 872.862C252.793 873.243 252.576 873.714 252.428 874.274C252.288 874.826 252.218 875.452 252.218 876.152C252.218 877.552 252.506 878.645 253.081 879.431C253.665 880.208 254.547 880.597 255.73 880.597ZM264.506 882.056V872.011L263.199 871.859C263.036 871.82 262.9 871.762 262.791 871.684C262.69 871.598 262.639 871.478 262.639 871.322V870.471H264.506V869.327C264.506 868.651 264.599 868.052 264.786 867.531C264.981 867.002 265.253 866.558 265.603 866.201C265.961 865.835 266.388 865.559 266.886 865.372C267.384 865.186 267.944 865.092 268.566 865.092C269.095 865.092 269.581 865.17 270.024 865.326L269.978 866.364C269.962 866.551 269.857 866.652 269.663 866.667C269.476 866.683 269.223 866.691 268.904 866.691C268.547 866.691 268.22 866.737 267.924 866.831C267.637 866.924 267.388 867.076 267.178 867.286C266.968 867.496 266.804 867.772 266.688 868.114C266.579 868.456 266.524 868.88 266.524 869.386V870.471H269.931V871.976H266.594V882.056H264.506ZM286.047 875.849L283.422 869.047C283.344 868.845 283.263 868.612 283.177 868.347C283.092 868.075 283.01 867.787 282.932 867.484C282.769 868.114 282.602 868.639 282.431 869.059L279.806 875.849H286.047ZM290.761 882.056H289.011C288.808 882.056 288.645 882.005 288.521 881.904C288.396 881.803 288.303 881.674 288.241 881.519L286.677 877.482H279.176L277.612 881.519C277.566 881.659 277.476 881.783 277.344 881.892C277.212 882.001 277.048 882.056 276.854 882.056H275.104L281.789 865.337H284.076L290.761 882.056ZM304.264 878.602C304.388 878.602 304.497 878.653 304.59 878.754L305.489 879.722C304.804 880.516 303.972 881.134 302.992 881.577C302.02 882.021 300.841 882.242 299.457 882.242C298.259 882.242 297.17 882.036 296.19 881.624C295.21 881.204 294.374 880.621 293.682 879.874C292.99 879.119 292.453 878.217 292.072 877.167C291.691 876.117 291.5 874.962 291.5 873.702C291.5 872.442 291.699 871.287 292.095 870.237C292.492 869.187 293.048 868.285 293.764 867.531C294.487 866.776 295.35 866.193 296.354 865.781C297.357 865.361 298.465 865.151 299.679 865.151C300.869 865.151 301.919 865.341 302.829 865.722C303.739 866.103 304.54 866.621 305.232 867.274L304.485 868.312C304.439 868.39 304.376 868.456 304.299 868.511C304.229 868.557 304.131 868.581 304.007 868.581C303.867 868.581 303.696 868.507 303.494 868.359C303.291 868.203 303.027 868.032 302.7 867.846C302.374 867.659 301.965 867.492 301.475 867.344C300.985 867.188 300.382 867.111 299.667 867.111C298.804 867.111 298.014 867.262 297.299 867.566C296.583 867.861 295.965 868.293 295.444 868.861C294.93 869.428 294.53 870.121 294.242 870.937C293.954 871.754 293.81 872.676 293.81 873.702C293.81 874.744 293.958 875.674 294.254 876.491C294.557 877.307 294.965 877.999 295.479 878.567C296 879.127 296.61 879.555 297.31 879.851C298.018 880.146 298.78 880.294 299.597 880.294C300.095 880.294 300.542 880.267 300.939 880.212C301.343 880.15 301.712 880.057 302.047 879.932C302.389 879.808 302.704 879.652 302.992 879.466C303.287 879.271 303.579 879.042 303.867 878.777C303.999 878.661 304.131 878.602 304.264 878.602ZM312.745 873.434C313.398 873.434 313.973 873.356 314.471 873.201C314.977 873.037 315.397 872.812 315.731 872.524C316.073 872.228 316.33 871.878 316.501 871.474C316.672 871.069 316.758 870.622 316.758 870.132C316.758 869.137 316.431 868.386 315.778 867.881C315.125 867.375 314.145 867.122 312.838 867.122H310.365V873.434H312.745ZM320.468 882.056H318.461C318.049 882.056 317.746 881.896 317.551 881.577L313.211 875.604C313.079 875.417 312.935 875.285 312.78 875.207C312.632 875.122 312.398 875.079 312.08 875.079H310.365V882.056H308.113V865.337H312.838C313.896 865.337 314.81 865.446 315.58 865.664C316.35 865.874 316.983 866.181 317.481 866.586C317.987 866.99 318.36 867.48 318.601 868.056C318.842 868.623 318.963 869.261 318.963 869.969C318.963 870.56 318.87 871.112 318.683 871.626C318.496 872.139 318.224 872.602 317.866 873.014C317.516 873.418 317.085 873.764 316.571 874.052C316.066 874.34 315.49 874.558 314.845 874.706C315.132 874.869 315.381 875.106 315.591 875.417L320.468 882.056ZM331.62 875.849L328.995 869.047C328.917 868.845 328.836 868.612 328.75 868.347C328.665 868.075 328.583 867.787 328.505 867.484C328.342 868.114 328.175 868.639 328.003 869.059L325.378 875.849H331.62ZM336.333 882.056H334.583C334.381 882.056 334.218 882.005 334.093 881.904C333.969 881.803 333.876 881.674 333.813 881.519L332.25 877.482H324.748L323.185 881.519C323.138 881.659 323.049 881.783 322.917 881.892C322.785 882.001 322.621 882.056 322.427 882.056H320.677L327.362 865.337H329.648L336.333 882.056Z" fill="#6B5844"/>
<path d="M1109.99 122.496C1109.99 54.8435 1055.14 -2.77883e-05 987.489 -3.96172e-05C919.836 -5.1446e-05 864.992 54.8434 864.992 122.496C864.992 190.149 919.836 244.993 987.489 244.993C1055.14 244.993 1109.99 190.149 1109.99 122.496Z" fill="url(#paint1_linear_2_469)"/>
<path d="M987.49 177.187C972.985 177.187 959.074 171.425 948.817 161.169C938.561 150.912 932.799 137.001 932.799 122.496V122.496C932.799 107.991 938.561 94.0802 948.817 83.8237C959.074 73.5671 972.985 67.805 987.49 67.805V67.805C994.678 67.7973 1001.8 69.206 1008.44 71.9507C1015.09 74.6953 1021.12 78.7222 1026.21 83.8011C1031.3 88.88 1035.33 94.9115 1038.09 101.551C1040.85 108.19 1042.27 115.308 1042.27 122.496V122.496C1042.27 129.685 1040.85 136.802 1038.09 143.441C1035.33 150.081 1031.3 156.112 1026.21 161.191C1021.12 166.27 1015.09 170.297 1008.44 173.042C1001.8 175.786 994.678 177.195 987.49 177.187Z" fill="#FFC700"/>
<path d="M1355.39 3.05176e-05L1600.38 7.33536e-05C1600.38 64.9762 1574.57 127.291 1528.63 173.236C1482.68 219.181 1420.37 244.993 1355.39 244.993L1355.39 3.05176e-05V3.05176e-05Z" fill="#FFB839"/>
<path d="M1109.99 244.992L864.992 244.992L864.992 489.985L1109.99 489.985L1109.99 244.992Z" fill="#E15400"/>
<path d="M1039.92 315.062L935.062 315.062L935.062 419.916L1039.92 419.916L1039.92 315.062Z" fill="#346F85"/>
<path d="M1354.98 244.993L1109.99 244.992L1109.99 489.985L1354.98 489.985L1354.98 244.993Z" fill="white"/>
<path d="M1355.01 244.993L1355.01 489.985L1109.9 489.985C1109.9 457.802 1116.24 425.935 1128.56 396.203C1140.88 366.472 1158.93 339.459 1181.7 316.708C1204.46 293.956 1231.48 275.913 1261.22 263.608C1290.95 251.303 1322.83 244.977 1355.01 244.993V244.993Z" fill="url(#paint2_linear_2_469)"/>
<path d="M1355.01 244.993C1387.18 244.993 1419.04 251.329 1448.76 263.641C1478.49 275.954 1505.49 294 1528.24 316.749C1550.99 339.499 1569.04 366.507 1581.35 396.231C1593.66 425.955 1600 457.812 1600 489.985L1355.01 489.985L1355.01 244.993Z" fill="#346F85"/>
<path d="M1109.9 489.985L1354.89 489.985L1354.89 735.096C1322.71 735.096 1290.84 728.755 1261.11 716.435C1231.38 704.116 1204.36 686.06 1181.61 663.297C1158.86 640.535 1140.82 613.514 1128.51 583.776C1116.21 554.039 1109.88 522.168 1109.9 489.985V489.985Z" fill="#F26B2F"/>
<path d="M1355.01 489.985L1233.69 489.985C1233.69 474.055 1236.83 458.28 1242.92 443.563C1249.02 428.845 1257.96 415.473 1269.22 404.209C1280.49 392.946 1293.86 384.013 1308.58 377.919C1323.3 371.825 1339.08 368.691 1355.01 368.695V368.695L1355.01 489.985Z" fill="white"/>
<path d="M1355.01 611.306C1322.83 611.306 1291.97 598.524 1269.22 575.772C1246.47 553.02 1233.69 522.162 1233.69 489.985L1355.01 489.985L1355.01 611.306Z" fill="#346F85"/>
<path d="M1355.01 611.306L1355.01 489.985L1476.3 489.986C1476.3 505.916 1473.17 521.691 1467.07 536.411C1460.98 551.13 1452.05 564.504 1440.78 575.77C1429.52 587.036 1416.15 595.973 1401.43 602.07C1386.71 608.167 1370.94 611.306 1355.01 611.306V611.306Z" fill="#6B5844"/>
<path d="M1110.02 980L864.992 980L1110.02 735.007L1110.02 980Z" fill="#FFB839"/>
<path d="M895.544 578.197C898.262 578.188 900.893 577.238 902.99 575.508C905.087 573.779 906.52 571.377 907.045 568.71C907.571 566.043 907.157 563.277 905.873 560.881C904.59 558.485 902.516 556.608 900.005 555.568C897.494 554.529 894.7 554.391 892.099 555.178C889.497 555.965 887.249 557.629 885.736 559.887C884.222 562.145 883.538 564.857 883.798 567.562C884.059 570.268 885.248 572.8 887.164 574.727C889.394 576.938 892.404 578.185 895.544 578.197" fill="white"/>
<path d="M1017.92 578.197C1021.07 578.197 1024.09 576.947 1026.31 574.722C1028.54 572.497 1029.79 569.479 1029.79 566.333C1029.79 563.186 1028.54 560.168 1026.31 557.943C1024.09 555.718 1021.07 554.468 1017.92 554.468C1014.78 554.468 1011.76 555.718 1009.53 557.943C1007.31 560.168 1006.06 563.186 1006.06 566.333C1006.06 569.479 1007.31 572.497 1009.53 574.722C1011.76 576.947 1014.78 578.197 1017.92 578.197Z" fill="white"/>
<path d="M956.705 578.197C959.852 578.197 962.87 576.947 965.095 574.722C967.32 572.497 968.57 569.479 968.57 566.333C968.57 563.186 967.32 560.168 965.095 557.943C962.87 555.718 959.852 554.468 956.705 554.468C953.559 554.468 950.541 555.718 948.316 557.943C946.091 560.168 944.841 563.186 944.841 566.333C944.841 569.479 946.091 572.497 948.316 574.722C950.541 576.947 953.559 578.197 956.705 578.197Z" fill="white"/>
<path d="M1079.14 578.197C1081.86 578.181 1084.49 577.225 1086.58 575.492C1088.67 573.759 1090.1 571.355 1090.62 568.689C1091.14 566.022 1090.72 563.258 1089.43 560.865C1088.15 558.473 1086.07 556.599 1083.56 555.563C1081.05 554.527 1078.26 554.392 1075.66 555.181C1073.06 555.971 1070.81 557.636 1069.3 559.893C1067.79 562.151 1067.11 564.862 1067.37 567.566C1067.63 570.27 1068.82 572.8 1070.73 574.727C1072.97 576.948 1075.99 578.195 1079.14 578.197Z" fill="white"/>
<path d="M895.544 529.445C898.262 529.437 900.893 528.487 902.99 526.757C905.087 525.028 906.52 522.625 907.045 519.959C907.571 517.292 907.157 514.526 905.873 512.13C904.59 509.734 902.516 507.857 900.005 506.817C897.494 505.777 894.7 505.639 892.099 506.427C889.497 507.214 887.249 508.878 885.736 511.136C884.222 513.394 883.538 516.106 883.798 518.811C884.059 521.516 885.248 524.048 887.164 525.976C889.394 528.187 892.404 529.433 895.544 529.445" fill="white"/>
<path d="M1017.92 529.445C1021.07 529.445 1024.09 528.195 1026.31 525.97C1028.54 523.745 1029.79 520.727 1029.79 517.581C1029.79 514.434 1028.54 511.416 1026.31 509.191C1024.09 506.966 1021.07 505.716 1017.92 505.716C1014.78 505.716 1011.76 506.966 1009.53 509.191C1007.31 511.416 1006.06 514.434 1006.06 517.581C1006.06 520.727 1007.31 523.745 1009.53 525.97C1011.76 528.195 1014.78 529.445 1017.92 529.445Z" fill="white"/>
<path d="M956.705 529.445C959.852 529.445 962.87 528.195 965.095 525.97C967.32 523.745 968.57 520.727 968.57 517.581C968.57 514.434 967.32 511.416 965.095 509.191C962.87 506.966 959.852 505.716 956.705 505.716C953.559 505.716 950.541 506.966 948.316 509.191C946.091 511.416 944.841 514.434 944.841 517.581C944.841 520.727 946.091 523.745 948.316 525.97C950.541 528.195 953.559 529.445 956.705 529.445Z" fill="white"/>
<path d="M1079.14 529.445C1081.86 529.43 1084.49 528.474 1086.58 526.741C1088.67 525.008 1090.1 522.604 1090.62 519.937C1091.14 517.271 1090.72 514.507 1089.43 512.114C1088.15 509.721 1086.07 507.848 1083.56 506.812C1081.05 505.775 1078.26 505.641 1075.66 506.43C1073.06 507.219 1070.81 508.884 1069.3 511.142C1067.79 513.399 1067.11 516.111 1067.37 518.815C1067.63 521.519 1068.82 524.049 1070.73 525.976C1072.97 528.197 1075.99 529.444 1079.14 529.445" fill="white"/>
<path d="M895.544 626.948C898.262 626.939 900.893 625.989 902.99 624.26C905.087 622.53 906.52 620.128 907.045 617.461C907.571 614.795 907.157 612.028 905.873 609.632C904.59 607.237 902.516 605.359 900.005 604.32C897.494 603.28 894.7 603.142 892.099 603.929C889.497 604.717 887.249 606.381 885.736 608.638C884.222 610.896 883.538 613.608 883.798 616.314C884.059 619.019 885.248 621.551 887.164 623.478C889.394 625.69 892.404 626.936 895.544 626.948" fill="white"/>
<path d="M1017.92 626.949C1021.07 626.949 1024.09 625.699 1026.31 623.474C1028.54 621.249 1029.79 618.231 1029.79 615.084C1029.79 611.937 1028.54 608.92 1026.31 606.695C1024.09 604.47 1021.07 603.22 1017.92 603.22C1014.78 603.22 1011.76 604.47 1009.53 606.695C1007.31 608.92 1006.06 611.937 1006.06 615.084C1006.06 618.231 1007.31 621.249 1009.53 623.474C1011.76 625.699 1014.78 626.949 1017.92 626.949Z" fill="white"/>
<path d="M956.705 626.949C959.852 626.949 962.87 625.699 965.095 623.474C967.32 621.249 968.57 618.231 968.57 615.084C968.57 611.937 967.32 608.92 965.095 606.695C962.87 604.47 959.852 603.22 956.705 603.22C953.559 603.22 950.541 604.47 948.316 606.695C946.091 608.92 944.841 611.937 944.841 615.084C944.841 618.231 946.091 621.249 948.316 623.474C950.541 625.699 953.559 626.949 956.705 626.949Z" fill="white"/>
<path d="M1079.14 626.948C1081.86 626.933 1084.49 625.977 1086.58 624.244C1088.67 622.511 1090.1 620.107 1090.62 617.44C1091.14 614.774 1090.72 612.01 1089.43 609.617C1088.15 607.224 1086.07 605.351 1083.56 604.315C1081.05 603.279 1078.26 603.144 1075.66 603.933C1073.06 604.722 1070.81 606.387 1069.3 608.645C1067.79 610.903 1067.11 613.614 1067.37 616.318C1067.63 619.022 1068.82 621.552 1070.73 623.479C1072.97 625.7 1075.99 626.947 1079.14 626.948" fill="white"/>
<path d="M895.544 675.7C898.262 675.691 900.893 674.741 902.99 673.011C905.087 671.282 906.52 668.88 907.045 666.213C907.571 663.547 907.157 660.78 905.873 658.384C904.59 655.989 902.516 654.111 900.005 653.072C897.494 652.032 894.7 651.894 892.099 652.681C889.497 653.469 887.249 655.133 885.736 657.39C884.222 659.648 883.538 662.36 883.798 665.066C884.059 667.771 885.248 670.303 887.164 672.23C889.394 674.441 892.404 675.688 895.544 675.7" fill="white"/>
<path d="M1017.92 675.7C1021.07 675.7 1024.09 674.45 1026.31 672.225C1028.54 670 1029.79 666.982 1029.79 663.835C1029.79 660.689 1028.54 657.671 1026.31 655.446C1024.09 653.221 1021.07 651.971 1017.92 651.971C1014.78 651.971 1011.76 653.221 1009.53 655.446C1007.31 657.671 1006.06 660.689 1006.06 663.835C1006.06 666.982 1007.31 670 1009.53 672.225C1011.76 674.45 1014.78 675.7 1017.92 675.7Z" fill="white"/>
<path d="M956.705 675.7C959.852 675.7 962.87 674.45 965.095 672.225C967.32 670 968.57 666.982 968.57 663.835C968.57 660.689 967.32 657.671 965.095 655.446C962.87 653.221 959.852 651.971 956.705 651.971C953.559 651.971 950.541 653.221 948.316 655.446C946.091 657.671 944.841 660.689 944.841 663.835C944.841 666.982 946.091 670 948.316 672.225C950.541 674.45 953.559 675.7 956.705 675.7Z" fill="white"/>
<path d="M1079.14 675.7C1081.86 675.684 1084.49 674.729 1086.58 672.995C1088.67 671.262 1090.1 668.858 1090.62 666.192C1091.14 663.525 1090.72 660.761 1089.43 658.368C1088.15 655.976 1086.07 654.102 1083.56 653.066C1081.05 652.03 1078.26 651.895 1075.66 652.684C1073.06 653.474 1070.81 655.139 1069.3 657.396C1067.79 659.654 1067.11 662.365 1067.37 665.069C1067.63 667.773 1068.82 670.303 1070.73 672.23C1072.97 674.451 1075.99 675.699 1079.14 675.7" fill="white"/>
<path d="M895.544 724.451C898.262 724.442 900.893 723.492 902.99 721.763C905.087 720.033 906.52 717.631 907.045 714.965C907.571 712.298 907.157 709.532 905.873 707.136C904.59 704.74 902.516 702.863 900.005 701.823C897.494 700.783 894.7 700.645 892.099 701.433C889.497 702.22 887.249 703.884 885.736 706.142C884.222 708.399 883.538 711.112 883.798 713.817C884.059 716.522 885.248 719.054 887.164 720.982C889.394 723.193 892.404 724.439 895.544 724.451" fill="white"/>
<path d="M1017.92 724.452C1021.07 724.452 1024.09 723.202 1026.31 720.977C1028.54 718.752 1029.79 715.734 1029.79 712.587C1029.79 709.44 1028.54 706.423 1026.31 704.198C1024.09 701.973 1021.07 700.723 1017.92 700.723C1014.78 700.723 1011.76 701.973 1009.53 704.198C1007.31 706.423 1006.06 709.44 1006.06 712.587C1006.06 715.734 1007.31 718.752 1009.53 720.977C1011.76 723.202 1014.78 724.452 1017.92 724.452Z" fill="white"/>
<path d="M956.705 724.452C959.852 724.452 962.87 723.202 965.095 720.977C967.32 718.752 968.57 715.734 968.57 712.587C968.57 709.44 967.32 706.423 965.095 704.198C962.87 701.973 959.852 700.723 956.705 700.723C953.559 700.723 950.541 701.973 948.316 704.198C946.091 706.423 944.841 709.44 944.841 712.587C944.841 715.734 946.091 718.752 948.316 720.977C950.541 723.202 953.559 724.452 956.705 724.452Z" fill="white"/>
<path d="M1079.14 724.452C1082.28 724.443 1085.29 723.196 1087.52 720.982C1089.73 718.739 1090.98 715.721 1090.99 712.572C1090.99 709.426 1089.74 706.408 1087.52 704.183C1085.29 701.958 1082.27 700.708 1079.13 700.708C1075.98 700.708 1072.96 701.958 1070.74 704.183C1068.51 706.408 1067.26 709.426 1067.26 712.572C1067.26 715.692 1068.5 718.683 1070.71 720.889C1072.91 723.095 1075.91 724.334 1079.02 724.334" fill="white"/>
<path d="M1598.99 979.993L1354 979.993C1354 915.017 1379.81 852.702 1425.76 806.757C1471.7 760.812 1534.02 735 1598.99 735L1598.99 979.993Z" fill="white"/>
<path d="M769 67.9999L699 67.9999L699 138L769 138L769 67.9999Z" fill="url(#paint3_linear_2_469)"/>
</g>
<defs>
<linearGradient id="paint0_linear_2_469" x1="87.2248" y1="747.998" x2="383.361" y2="795.448" gradientUnits="userSpaceOnUse">
<stop stop-color="#E87722"/>
<stop offset="1" stop-color="#FFA300"/>
</linearGradient>
<linearGradient id="paint1_linear_2_469" x1="865.16" y1="116.085" x2="1109.82" y2="128.907" gradientUnits="userSpaceOnUse">
<stop stop-color="#E87722"/>
<stop offset="1" stop-color="#FFA300"/>
</linearGradient>
<linearGradient id="paint2_linear_2_469" x1="1110.07" y1="361.078" x2="1354.84" y2="373.912" gradientUnits="userSpaceOnUse">
<stop stop-color="#E87722"/>
<stop offset="1" stop-color="#FFA300"/>
</linearGradient>
<linearGradient id="paint3_linear_2_469" x1="699.048" y1="101.168" x2="768.952" y2="104.832" gradientUnits="userSpaceOnUse">
<stop stop-color="#E87722"/>
<stop offset="1" stop-color="#FFA300"/>
</linearGradient>
<clipPath id="clip0_2_469">
<rect width="1600" height="980" fill="white"/>
</clipPath>
<clipPath id="clip1_2_469">
<rect width="303.333" height="99.1667" fill="white" transform="translate(87.0057 701)"/>
</clipPath>
</defs>
</svg>
