<svg width="6787" height="3338" viewBox="0 0 6787 3338" fill="none" xmlns="http://www.w3.org/2000/svg">
<rect width="6787" height="3338" fill="url(#paint0_linear_18_110652)"/>
<path d="M257.32 1636.4H308.84V1652.08H275.08V1684.56H302.28V1700.56H275.08V1738.16H314.12V1754H257.32V1636.4ZM348.968 1715.92L323.208 1680.56H343.688L358.728 1703.28L372.968 1680.56H393.928L368.008 1714.96L396.168 1754H376.328L358.888 1728.08L342.248 1754H321.448L348.968 1715.92ZM409.805 1680.56H426.445V1694.16C432.312 1683.81 441.485 1678.64 453.965 1678.64C464.312 1678.64 472.685 1681.95 479.085 1688.56C485.485 1695.07 488.685 1704.51 488.685 1716.88C488.685 1724.56 487.085 1731.33 483.885 1737.2C480.792 1743.07 476.525 1747.6 471.085 1750.8C465.752 1754 459.778 1755.6 453.165 1755.6C446.978 1755.6 441.592 1754.53 437.005 1752.4C432.525 1750.16 429.005 1747.01 426.445 1742.96L426.605 1792.88H409.805V1680.56ZM449.165 1741.04C456.098 1741.04 461.432 1738.85 465.165 1734.48C468.898 1730 470.765 1724.29 470.765 1717.36C470.765 1710.11 468.898 1704.35 465.165 1700.08C461.538 1695.71 456.205 1693.52 449.165 1693.52C445.325 1693.52 441.698 1694.48 438.285 1696.4C434.978 1698.21 432.312 1700.88 430.285 1704.4C428.365 1707.81 427.405 1711.81 427.405 1716.4V1717.52C427.405 1722.11 428.365 1726.21 430.285 1729.84C432.312 1733.36 434.978 1736.13 438.285 1738.16C441.592 1740.08 445.218 1741.04 449.165 1741.04ZM508.581 1636.4H525.701V1754H508.581V1636.4ZM584.194 1755.6C576.62 1755.6 569.9 1753.89 564.034 1750.48C558.167 1747.07 553.634 1742.43 550.434 1736.56C547.234 1730.69 545.634 1724.19 545.634 1717.04C545.634 1710 547.18 1703.55 550.274 1697.68C553.474 1691.81 558.007 1687.17 563.874 1683.76C569.74 1680.35 576.514 1678.64 584.194 1678.64C591.874 1678.64 598.594 1680.35 604.354 1683.76C610.22 1687.17 614.7 1691.81 617.794 1697.68C620.994 1703.55 622.594 1710 622.594 1717.04C622.594 1724.19 620.994 1730.69 617.794 1736.56C614.594 1742.43 610.06 1747.07 604.194 1750.48C598.434 1753.89 591.767 1755.6 584.194 1755.6ZM584.674 1741.52C590.86 1741.52 595.714 1739.23 599.234 1734.64C602.86 1730.05 604.674 1724.29 604.674 1717.36C604.674 1710.43 602.754 1704.61 598.914 1699.92C595.074 1695.12 590.007 1692.72 583.714 1692.72C577.634 1692.72 572.727 1695.07 568.994 1699.76C565.367 1704.45 563.554 1710.32 563.554 1717.36C563.554 1724.19 565.527 1729.95 569.474 1734.64C573.42 1739.23 578.487 1741.52 584.674 1741.52ZM640.568 1680.56H657.848V1694.96C659.554 1690.05 662.328 1686.11 666.168 1683.12C670.008 1680.13 674.381 1678.64 679.288 1678.64C682.701 1678.64 685.048 1678.96 686.328 1679.6L683.928 1697.04C682.968 1696.4 680.888 1696.08 677.688 1696.08C672.674 1696.08 668.088 1697.68 663.928 1700.88C659.874 1704.08 657.848 1709.2 657.848 1716.24V1754H640.568V1680.56ZM731.028 1755.6C724.414 1755.6 718.281 1754.05 712.628 1750.96C707.081 1747.76 702.601 1743.28 699.188 1737.52C695.881 1731.65 694.228 1724.83 694.228 1717.04C694.228 1709.36 695.668 1702.64 698.548 1696.88C701.534 1691.12 705.748 1686.64 711.188 1683.44C716.628 1680.24 723.028 1678.64 730.388 1678.64C734.654 1678.64 738.654 1679.39 742.388 1680.88C746.121 1682.37 749.268 1684.24 751.828 1686.48C754.388 1688.61 756.094 1690.75 756.948 1692.88L757.268 1680.56H773.748V1754H757.428L757.108 1741.04C755.294 1744.88 751.988 1748.29 747.188 1751.28C742.388 1754.16 737.001 1755.6 731.028 1755.6ZM733.908 1741.2C739.988 1741.2 745.108 1739.12 749.268 1734.96C753.428 1730.69 755.508 1725.15 755.508 1718.32V1717.2C755.508 1712.61 754.548 1708.51 752.628 1704.88C750.708 1701.25 748.094 1698.43 744.788 1696.4C741.481 1694.37 737.854 1693.36 733.908 1693.36C727.081 1693.36 721.801 1695.6 718.068 1700.08C714.334 1704.45 712.468 1710.16 712.468 1717.2C712.468 1724.35 714.281 1730.16 717.908 1734.64C721.641 1739.01 726.974 1741.2 733.908 1741.2ZM803.385 1694.64H790.425V1680.56H803.385V1650.64L820.825 1646.8V1680.56H837.785V1694.64H820.825V1754H803.385V1694.64ZM886.069 1755.6C878.495 1755.6 871.775 1753.89 865.909 1750.48C860.042 1747.07 855.509 1742.43 852.309 1736.56C849.109 1730.69 847.509 1724.19 847.509 1717.04C847.509 1710 849.055 1703.55 852.149 1697.68C855.349 1691.81 859.882 1687.17 865.749 1683.76C871.615 1680.35 878.389 1678.64 886.069 1678.64C893.749 1678.64 900.469 1680.35 906.229 1683.76C912.095 1687.17 916.575 1691.81 919.669 1697.68C922.869 1703.55 924.469 1710 924.469 1717.04C924.469 1724.19 922.869 1730.69 919.669 1736.56C916.469 1742.43 911.935 1747.07 906.069 1750.48C900.309 1753.89 893.642 1755.6 886.069 1755.6ZM886.549 1741.52C892.735 1741.52 897.589 1739.23 901.109 1734.64C904.735 1730.05 906.549 1724.29 906.549 1717.36C906.549 1710.43 904.629 1704.61 900.789 1699.92C896.949 1695.12 891.882 1692.72 885.589 1692.72C879.509 1692.72 874.602 1695.07 870.869 1699.76C867.242 1704.45 865.429 1710.32 865.429 1717.36C865.429 1724.19 867.402 1729.95 871.349 1734.64C875.295 1739.23 880.362 1741.52 886.549 1741.52ZM942.443 1680.56H959.723V1694.96C961.429 1690.05 964.203 1686.11 968.043 1683.12C971.883 1680.13 976.256 1678.64 981.163 1678.64C984.576 1678.64 986.923 1678.96 988.203 1679.6L985.803 1697.04C984.843 1696.4 982.763 1696.08 979.563 1696.08C974.549 1696.08 969.963 1697.68 965.803 1700.88C961.749 1704.08 959.723 1709.2 959.723 1716.24V1754H942.443V1680.56ZM1021.54 1756.24L991.143 1680.56H1010.66L1026.34 1727.28L1029.86 1738.64L1033.38 1727.28L1049.86 1680.56H1068.74L1023.62 1794.32H1005.7L1021.54 1756.24Z" fill="white"/>
<path d="M3155.68 301L3132 256.52C3127.1 256.733 3122.72 256.84 3118.88 256.84H3114.4V301H3096.96V183.4H3123.68C3137.23 183.4 3148.38 186.227 3157.12 191.88C3165.87 197.427 3170.24 206.493 3170.24 219.08C3170.24 226.973 3168.38 233.8 3164.64 239.56C3161.02 245.213 3155.58 249.587 3148.32 252.68L3176.32 301H3155.68ZM3125.76 242.28C3136.22 242.28 3143.36 240.04 3147.2 235.56C3151.15 230.973 3153.12 225.533 3153.12 219.24C3153.12 205.267 3143.79 198.28 3125.12 198.28H3114.4V242.28H3125.76ZM3228.22 302.6C3219.47 302.6 3212.17 300.893 3206.3 297.48C3200.43 293.96 3196.11 289.32 3193.34 283.56C3190.57 277.693 3189.18 271.293 3189.18 264.36C3189.18 256.573 3190.78 249.747 3193.98 243.88C3197.29 238.013 3201.82 233.533 3207.58 230.44C3213.34 227.24 3219.85 225.64 3227.1 225.64C3238.41 225.64 3246.78 228.787 3252.22 235.08C3257.77 241.267 3260.54 250.013 3260.54 261.32C3260.54 264.2 3260.38 267.187 3260.06 270.28H3207.26C3208.43 276.787 3210.73 281.48 3214.14 284.36C3217.66 287.24 3222.51 288.68 3228.7 288.68C3233.82 288.68 3238.03 288.253 3241.34 287.4C3244.65 286.547 3247.69 285.373 3250.46 283.88L3255.74 296.2C3253.07 297.907 3249.45 299.4 3244.86 300.68C3240.27 301.96 3234.73 302.6 3228.22 302.6ZM3243.74 258.28C3243.85 251.667 3242.41 247.027 3239.42 244.36C3236.43 241.587 3232.17 240.2 3226.62 240.2C3215.42 240.2 3208.97 246.227 3207.26 258.28H3243.74ZM3311.14 302.6C3304.52 302.6 3298.39 301.053 3292.74 297.96C3287.19 294.76 3282.71 290.28 3279.3 284.52C3275.99 278.653 3274.34 271.827 3274.34 264.04C3274.34 256.36 3275.78 249.64 3278.66 243.88C3281.64 238.12 3285.86 233.64 3291.3 230.44C3296.74 227.24 3303.14 225.64 3310.5 225.64C3314.76 225.64 3318.76 226.387 3322.5 227.88C3326.23 229.373 3329.38 231.24 3331.94 233.48C3334.5 235.613 3336.2 237.747 3337.06 239.88L3337.38 227.56H3353.86V301H3337.54L3337.22 288.04C3335.4 291.88 3332.1 295.293 3327.3 298.28C3322.5 301.16 3317.11 302.6 3311.14 302.6ZM3314.02 288.2C3320.1 288.2 3325.22 286.12 3329.38 281.96C3333.54 277.693 3335.62 272.147 3335.62 265.32V264.2C3335.62 259.613 3334.66 255.507 3332.74 251.88C3330.82 248.253 3328.2 245.427 3324.9 243.4C3321.59 241.373 3317.96 240.36 3314.02 240.36C3307.19 240.36 3301.91 242.6 3298.18 247.08C3294.44 251.453 3292.58 257.16 3292.58 264.2C3292.58 271.347 3294.39 277.16 3298.02 281.64C3301.75 286.013 3307.08 288.2 3314.02 288.2ZM3411.33 302.6C3404.08 302.6 3397.52 301.053 3391.65 297.96C3385.89 294.76 3381.31 290.227 3377.89 284.36C3374.48 278.387 3372.77 271.4 3372.77 263.4C3372.77 255.827 3374.32 249.213 3377.41 243.56C3380.61 237.8 3385.04 233.373 3390.69 230.28C3396.45 227.187 3403.07 225.64 3410.53 225.64C3416.19 225.64 3421.04 226.387 3425.09 227.88C3429.25 229.267 3432.51 231.027 3434.85 233.16L3427.17 247.08C3422.69 242.6 3417.63 240.36 3411.97 240.36C3405.15 240.36 3399.92 242.44 3396.29 246.6C3392.77 250.76 3391.01 256.307 3391.01 263.24C3391.01 271.133 3392.83 277.267 3396.45 281.64C3400.19 286.013 3405.36 288.2 3411.97 288.2C3415.28 288.2 3418.48 287.72 3421.57 286.76C3424.77 285.8 3427.23 284.68 3428.93 283.4L3435.17 295.56C3432.83 297.373 3429.52 299.027 3425.25 300.52C3421.09 301.907 3416.45 302.6 3411.33 302.6ZM3458.03 241.64H3445.07V227.56H3458.03V197.64L3475.47 193.8V227.56H3492.43V241.64H3475.47V301H3458.03V241.64ZM3507.75 227.56H3525.67V301H3507.75V227.56ZM3516.55 213.8C3513.24 213.8 3510.47 212.68 3508.23 210.44C3505.99 208.2 3504.87 205.427 3504.87 202.12C3504.87 199.133 3505.99 196.573 3508.23 194.44C3510.47 192.307 3513.24 191.24 3516.55 191.24C3519.75 191.24 3522.47 192.307 3524.71 194.44C3526.95 196.573 3528.07 199.133 3528.07 202.12C3528.07 205.427 3526.95 208.2 3524.71 210.44C3522.58 212.68 3519.86 213.8 3516.55 213.8ZM3537.91 227.56H3557.59L3573.43 260.68L3578.55 273.96L3583.67 260.68L3599.35 227.56H3618.55L3579.99 301H3576.63L3537.91 227.56ZM3662.44 302.6C3653.69 302.6 3646.39 300.893 3640.52 297.48C3634.65 293.96 3630.33 289.32 3627.56 283.56C3624.79 277.693 3623.4 271.293 3623.4 264.36C3623.4 256.573 3625 249.747 3628.2 243.88C3631.51 238.013 3636.04 233.533 3641.8 230.44C3647.56 227.24 3654.07 225.64 3661.32 225.64C3672.63 225.64 3681 228.787 3686.44 235.08C3691.99 241.267 3694.76 250.013 3694.76 261.32C3694.76 264.2 3694.6 267.187 3694.28 270.28H3641.48C3642.65 276.787 3644.95 281.48 3648.36 284.36C3651.88 287.24 3656.73 288.68 3662.92 288.68C3668.04 288.68 3672.25 288.253 3675.56 287.4C3678.87 286.547 3681.91 285.373 3684.68 283.88L3689.96 296.2C3687.29 297.907 3683.67 299.4 3679.08 300.68C3674.49 301.96 3668.95 302.6 3662.44 302.6ZM3677.96 258.28C3678.07 251.667 3676.63 247.027 3673.64 244.36C3670.65 241.587 3666.39 240.2 3660.84 240.2C3649.64 240.2 3643.19 246.227 3641.48 258.28H3677.96Z" fill="white"/>
<path d="M3071.65 3050.4H3097.57C3112.19 3050.4 3122.85 3053.55 3129.57 3059.84C3136.4 3066.03 3139.81 3074.56 3139.81 3085.44C3139.81 3098.03 3136.13 3107.68 3128.77 3114.4C3121.41 3121.12 3110.48 3124.48 3095.97 3124.48H3089.73V3168H3071.65V3050.4ZM3096.45 3108.64C3105.84 3108.64 3112.4 3106.56 3116.13 3102.4C3119.87 3098.24 3121.73 3093.23 3121.73 3087.36C3121.73 3081.07 3119.92 3075.95 3116.29 3072C3112.67 3068.05 3106.59 3066.08 3098.05 3066.08H3089.73V3108.64H3096.45ZM3154.9 3094.56H3172.18V3108.96C3173.88 3104.05 3176.66 3100.11 3180.5 3097.12C3184.34 3094.13 3188.71 3092.64 3193.62 3092.64C3197.03 3092.64 3199.38 3092.96 3200.66 3093.6L3198.26 3111.04C3197.3 3110.4 3195.22 3110.08 3192.02 3110.08C3187 3110.08 3182.42 3111.68 3178.26 3114.88C3174.2 3118.08 3172.18 3123.2 3172.18 3130.24V3168H3154.9V3094.56ZM3247.12 3169.6C3239.54 3169.6 3232.82 3167.89 3226.96 3164.48C3221.09 3161.07 3216.56 3156.43 3213.36 3150.56C3210.16 3144.69 3208.56 3138.19 3208.56 3131.04C3208.56 3124 3210.1 3117.55 3213.2 3111.68C3216.4 3105.81 3220.93 3101.17 3226.8 3097.76C3232.66 3094.35 3239.44 3092.64 3247.12 3092.64C3254.8 3092.64 3261.52 3094.35 3267.28 3097.76C3273.14 3101.17 3277.62 3105.81 3280.72 3111.68C3283.92 3117.55 3285.52 3124 3285.52 3131.04C3285.52 3138.19 3283.92 3144.69 3280.72 3150.56C3277.52 3156.43 3272.98 3161.07 3267.12 3164.48C3261.36 3167.89 3254.69 3169.6 3247.12 3169.6ZM3247.6 3155.52C3253.78 3155.52 3258.64 3153.23 3262.16 3148.64C3265.78 3144.05 3267.6 3138.29 3267.6 3131.36C3267.6 3124.43 3265.68 3118.61 3261.84 3113.92C3258 3109.12 3252.93 3106.72 3246.64 3106.72C3240.56 3106.72 3235.65 3109.07 3231.92 3113.76C3228.29 3118.45 3226.48 3124.32 3226.48 3131.36C3226.48 3138.19 3228.45 3143.95 3232.4 3148.64C3236.34 3153.23 3241.41 3155.52 3247.6 3155.52ZM3336.45 3169.6C3329.84 3169.6 3323.7 3168.05 3318.05 3164.96C3312.5 3161.76 3308.02 3157.28 3304.61 3151.52C3301.3 3145.65 3299.65 3138.83 3299.65 3131.04C3299.65 3123.36 3301.09 3116.64 3303.97 3110.88C3306.96 3105.12 3311.17 3100.64 3316.61 3097.44C3322.05 3094.24 3328.45 3092.64 3335.81 3092.64C3340.08 3092.64 3344.08 3093.39 3347.81 3094.88C3351.54 3096.37 3354.69 3098.24 3357.25 3100.48C3359.81 3102.61 3361.52 3104.75 3362.37 3106.88L3362.69 3094.56H3379.17V3168H3362.85L3362.53 3155.04C3360.72 3158.88 3357.41 3162.29 3352.61 3165.28C3347.81 3168.16 3342.42 3169.6 3336.45 3169.6ZM3339.33 3155.2C3345.41 3155.2 3350.53 3153.12 3354.69 3148.96C3358.85 3144.69 3360.93 3139.15 3360.93 3132.32V3131.2C3360.93 3126.61 3359.97 3122.51 3358.05 3118.88C3356.13 3115.25 3353.52 3112.43 3350.21 3110.4C3346.9 3108.37 3343.28 3107.36 3339.33 3107.36C3332.5 3107.36 3327.22 3109.6 3323.49 3114.08C3319.76 3118.45 3317.89 3124.16 3317.89 3131.2C3317.89 3138.35 3319.7 3144.16 3323.33 3148.64C3327.06 3153.01 3332.4 3155.2 3339.33 3155.2ZM3436.65 3169.6C3429.39 3169.6 3422.83 3168.05 3416.97 3164.96C3411.21 3161.76 3406.62 3157.23 3403.21 3151.36C3399.79 3145.39 3398.09 3138.4 3398.09 3130.4C3398.09 3122.83 3399.63 3116.21 3402.73 3110.56C3405.93 3104.8 3410.35 3100.37 3416.01 3097.28C3421.77 3094.19 3428.38 3092.64 3435.85 3092.64C3441.5 3092.64 3446.35 3093.39 3450.41 3094.88C3454.57 3096.27 3457.82 3098.03 3460.17 3100.16L3452.49 3114.08C3448.01 3109.6 3442.94 3107.36 3437.29 3107.36C3430.46 3107.36 3425.23 3109.44 3421.61 3113.6C3418.09 3117.76 3416.33 3123.31 3416.33 3130.24C3416.33 3138.13 3418.14 3144.27 3421.77 3148.64C3425.5 3153.01 3430.67 3155.2 3437.29 3155.2C3440.59 3155.2 3443.79 3154.72 3446.89 3153.76C3450.09 3152.8 3452.54 3151.68 3454.25 3150.4L3460.49 3162.56C3458.14 3164.37 3454.83 3166.03 3450.57 3167.52C3446.41 3168.91 3441.77 3169.6 3436.65 3169.6ZM3483.34 3108.64H3470.38V3094.56H3483.34V3064.64L3500.78 3060.8V3094.56H3517.74V3108.64H3500.78V3168H3483.34V3108.64ZM3533.06 3094.56H3550.98V3168H3533.06V3094.56ZM3541.86 3080.8C3538.56 3080.8 3535.78 3079.68 3533.54 3077.44C3531.3 3075.2 3530.18 3072.43 3530.18 3069.12C3530.18 3066.13 3531.3 3063.57 3533.54 3061.44C3535.78 3059.31 3538.56 3058.24 3541.86 3058.24C3545.06 3058.24 3547.78 3059.31 3550.02 3061.44C3552.26 3063.57 3553.38 3066.13 3553.38 3069.12C3553.38 3072.43 3552.26 3075.2 3550.02 3077.44C3547.89 3079.68 3545.17 3080.8 3541.86 3080.8ZM3563.23 3094.56H3582.91L3598.75 3127.68L3603.87 3140.96L3608.99 3127.68L3624.67 3094.56H3643.87L3605.31 3168H3601.95L3563.23 3094.56ZM3687.75 3169.6C3679.01 3169.6 3671.7 3167.89 3665.83 3164.48C3659.97 3160.96 3655.65 3156.32 3652.87 3150.56C3650.1 3144.69 3648.71 3138.29 3648.71 3131.36C3648.71 3123.57 3650.31 3116.75 3653.51 3110.88C3656.82 3105.01 3661.35 3100.53 3667.11 3097.44C3672.87 3094.24 3679.38 3092.64 3686.63 3092.64C3697.94 3092.64 3706.31 3095.79 3711.75 3102.08C3717.3 3108.27 3720.07 3117.01 3720.07 3128.32C3720.07 3131.2 3719.91 3134.19 3719.59 3137.28H3666.79C3667.97 3143.79 3670.26 3148.48 3673.67 3151.36C3677.19 3154.24 3682.05 3155.68 3688.23 3155.68C3693.35 3155.68 3697.57 3155.25 3700.87 3154.4C3704.18 3153.55 3707.22 3152.37 3709.99 3150.88L3715.27 3163.2C3712.61 3164.91 3708.98 3166.4 3704.39 3167.68C3699.81 3168.96 3694.26 3169.6 3687.75 3169.6ZM3703.27 3125.28C3703.38 3118.67 3701.94 3114.03 3698.95 3111.36C3695.97 3108.59 3691.7 3107.2 3686.15 3107.2C3674.95 3107.2 3668.5 3113.23 3666.79 3125.28H3703.27Z" fill="white"/>
<path d="M5706.57 1652.08H5676.49V1636.4H5754.73V1652.08H5724.33V1754H5706.57V1652.08ZM5790.53 1755.6C5783.91 1755.6 5777.78 1754.05 5772.13 1750.96C5766.58 1747.76 5762.1 1743.28 5758.69 1737.52C5755.38 1731.65 5753.73 1724.83 5753.73 1717.04C5753.73 1709.36 5755.17 1702.64 5758.05 1696.88C5761.03 1691.12 5765.25 1686.64 5770.69 1683.44C5776.13 1680.24 5782.53 1678.64 5789.89 1678.64C5794.15 1678.64 5798.15 1679.39 5801.89 1680.88C5805.62 1682.37 5808.77 1684.24 5811.33 1686.48C5813.89 1688.61 5815.59 1690.75 5816.45 1692.88L5816.77 1680.56H5833.25V1754H5816.93L5816.61 1741.04C5814.79 1744.88 5811.49 1748.29 5806.69 1751.28C5801.89 1754.16 5796.5 1755.6 5790.53 1755.6ZM5793.41 1741.2C5799.49 1741.2 5804.61 1739.12 5808.77 1734.96C5812.93 1730.69 5815.01 1725.15 5815.01 1718.32V1717.2C5815.01 1712.61 5814.05 1708.51 5812.13 1704.88C5810.21 1701.25 5807.59 1698.43 5804.29 1696.4C5800.98 1694.37 5797.35 1693.36 5793.41 1693.36C5786.58 1693.36 5781.3 1695.6 5777.57 1700.08C5773.83 1704.45 5771.97 1710.16 5771.97 1717.2C5771.97 1724.35 5773.78 1730.16 5777.41 1734.64C5781.14 1739.01 5786.47 1741.2 5793.41 1741.2ZM5881.77 1755.6C5876.65 1755.6 5871.31 1754.96 5865.77 1753.68C5860.33 1752.29 5856.43 1750.69 5854.09 1748.88L5859.85 1735.28C5866.25 1739.76 5873.55 1742 5881.77 1742C5889.98 1742 5894.09 1739.6 5894.09 1734.8C5894.09 1732.67 5893.23 1731.01 5891.53 1729.84C5889.82 1728.67 5886.78 1727.28 5882.41 1725.68L5876.33 1723.44C5869.93 1720.88 5864.86 1717.84 5861.13 1714.32C5857.39 1710.69 5855.53 1705.95 5855.53 1700.08C5855.53 1693.36 5858.14 1688.13 5863.37 1684.4C5868.7 1680.56 5875.79 1678.64 5884.65 1678.64C5889.02 1678.64 5893.29 1679.12 5897.45 1680.08C5901.71 1681.04 5904.97 1682.27 5907.21 1683.76L5900.97 1697.52C5899.58 1696.13 5897.34 1694.96 5894.25 1694C5891.26 1692.93 5887.9 1692.4 5884.17 1692.4C5876.59 1692.4 5872.81 1694.69 5872.81 1699.28C5872.81 1701.84 5873.82 1703.81 5875.85 1705.2C5877.87 1706.48 5881.18 1707.92 5885.77 1709.52C5886.19 1709.63 5887.85 1710.21 5890.73 1711.28C5897.55 1713.95 5902.62 1716.99 5905.93 1720.4C5909.23 1723.81 5910.89 1728.19 5910.89 1733.52C5910.89 1740.77 5908.11 1746.27 5902.57 1750C5897.13 1753.73 5890.19 1755.6 5881.77 1755.6ZM5995.23 1754H5974.91L5960.03 1730L5955.87 1721.84L5946.27 1732.24V1754H5929.63V1636.4H5946.11V1700.88L5945.79 1713.36L5973.79 1680.56H5995.07L5967.39 1711.28L5995.23 1754ZM6015.23 1706.16H6070.11V1721.52H6015.23V1706.16ZM6131.62 1755.6C6125.01 1755.6 6118.87 1754.05 6113.22 1750.96C6107.67 1747.76 6103.19 1743.28 6099.78 1737.52C6096.47 1731.65 6094.82 1724.83 6094.82 1717.04C6094.82 1705.41 6098.07 1696.13 6104.58 1689.2C6111.09 1682.16 6119.89 1678.64 6130.98 1678.64C6137.17 1678.64 6142.82 1680.19 6147.94 1683.28C6153.06 1686.27 6156.53 1689.89 6158.34 1694.16L6157.54 1681.68V1636.4H6174.5V1754H6158.02L6157.7 1741.04C6155.89 1744.88 6152.58 1748.29 6147.78 1751.28C6142.98 1754.16 6137.59 1755.6 6131.62 1755.6ZM6134.5 1741.04C6140.58 1741.04 6145.7 1738.96 6149.86 1734.8C6154.02 1730.53 6156.1 1724.99 6156.1 1718.16V1717.04C6156.1 1712.45 6155.14 1708.35 6153.22 1704.72C6151.3 1701.09 6148.69 1698.27 6145.38 1696.24C6142.07 1694.21 6138.45 1693.2 6134.5 1693.2C6127.67 1693.2 6122.39 1695.44 6118.66 1699.92C6114.93 1704.29 6113.06 1710 6113.06 1717.04C6113.06 1724.19 6114.87 1730 6118.5 1734.48C6122.23 1738.85 6127.57 1741.04 6134.5 1741.04ZM6196.94 1680.56H6214.22V1694.96C6215.93 1690.05 6218.7 1686.11 6222.54 1683.12C6226.38 1680.13 6230.76 1678.64 6235.66 1678.64C6239.08 1678.64 6241.42 1678.96 6242.7 1679.6L6240.3 1697.04C6239.34 1696.4 6237.26 1696.08 6234.06 1696.08C6229.05 1696.08 6224.46 1697.68 6220.3 1700.88C6216.25 1704.08 6214.22 1709.2 6214.22 1716.24V1754H6196.94V1680.56ZM6256.2 1680.56H6274.12V1754H6256.2V1680.56ZM6265 1666.8C6261.7 1666.8 6258.92 1665.68 6256.68 1663.44C6254.44 1661.2 6253.32 1658.43 6253.32 1655.12C6253.32 1652.13 6254.44 1649.57 6256.68 1647.44C6258.92 1645.31 6261.7 1644.24 6265 1644.24C6268.2 1644.24 6270.92 1645.31 6273.16 1647.44C6275.4 1649.57 6276.52 1652.13 6276.52 1655.12C6276.52 1658.43 6275.4 1661.2 6273.16 1663.44C6271.03 1665.68 6268.31 1666.8 6265 1666.8ZM6286.37 1680.56H6306.05L6321.89 1713.68L6327.01 1726.96L6332.13 1713.68L6347.81 1680.56H6367.01L6328.45 1754H6325.09L6286.37 1680.56ZM6410.89 1755.6C6402.15 1755.6 6394.84 1753.89 6388.97 1750.48C6383.11 1746.96 6378.79 1742.32 6376.01 1736.56C6373.24 1730.69 6371.85 1724.29 6371.85 1717.36C6371.85 1709.57 6373.45 1702.75 6376.65 1696.88C6379.96 1691.01 6384.49 1686.53 6390.25 1683.44C6396.01 1680.24 6402.52 1678.64 6409.77 1678.64C6421.08 1678.64 6429.45 1681.79 6434.89 1688.08C6440.44 1694.27 6443.21 1703.01 6443.21 1714.32C6443.21 1717.2 6443.05 1720.19 6442.73 1723.28H6389.93C6391.11 1729.79 6393.4 1734.48 6396.81 1737.36C6400.33 1740.24 6405.19 1741.68 6411.37 1741.68C6416.49 1741.68 6420.71 1741.25 6424.01 1740.4C6427.32 1739.55 6430.36 1738.37 6433.13 1736.88L6438.41 1749.2C6435.75 1750.91 6432.12 1752.4 6427.53 1753.68C6422.95 1754.96 6417.4 1755.6 6410.89 1755.6ZM6426.41 1711.28C6426.52 1704.67 6425.08 1700.03 6422.09 1697.36C6419.11 1694.59 6414.84 1693.2 6409.29 1693.2C6398.09 1693.2 6391.64 1699.23 6389.93 1711.28H6426.41ZM6461.33 1680.56H6478.29L6478.45 1694C6480.48 1689.52 6483.68 1685.84 6488.05 1682.96C6492.42 1680.08 6497.54 1678.64 6503.41 1678.64C6510.98 1678.64 6516.8 1680.24 6520.85 1683.44C6524.9 1686.53 6527.62 1690.91 6529.01 1696.56C6530.4 1702.21 6531.09 1709.57 6531.09 1718.64V1754H6513.81V1719.12C6513.81 1709.84 6512.9 1703.17 6511.09 1699.12C6509.28 1694.96 6505.54 1692.88 6499.89 1692.88C6496.69 1692.88 6493.44 1693.89 6490.13 1695.92C6486.82 1697.84 6484.05 1700.67 6481.81 1704.4C6479.68 1708.13 6478.61 1712.51 6478.61 1717.52V1754H6461.33V1680.56Z" fill="white"/>
<path d="M2606.82 1768.66L4945.44 850.102L5150.92 923.567L5050.37 1117.24L2711.75 2035.79L2606.82 1768.66Z" fill="url(#paint1_linear_18_110652)"/>
<path d="M4194.23 1243.52L4216.83 1234.58C4229.57 1229.55 4238.87 1228.34 4244.75 1230.95C4250.63 1233.56 4254.77 1237.89 4257.16 1243.94C4258.75 1247.97 4259.38 1252.15 4259.04 1256.47C4258.67 1260.72 4256.9 1264.5 4253.73 1267.8C4260.03 1266.99 4265.23 1267.87 4269.32 1270.44C4273.49 1272.99 4276.55 1276.72 4278.5 1281.63C4280.54 1286.79 4281.52 1291.62 4281.44 1296.13C4281.35 1300.63 4279.28 1305.18 4275.23 1309.77C4271.17 1314.35 4264.35 1318.54 4254.75 1322.34L4229.37 1332.38L4194.23 1243.52ZM4233.93 1271.44C4239.65 1269.18 4243.18 1266.2 4244.51 1262.5C4245.81 1258.72 4245.62 1254.7 4243.93 1250.43C4240.9 1242.77 4233.91 1241.11 4222.95 1245.45L4212.07 1249.75L4222.44 1275.98L4233.93 1271.44ZM4252.07 1310.26C4259.41 1307.36 4263.75 1303.96 4265.1 1300.07C4266.5 1296.07 4266.31 1291.81 4264.52 1287.3C4262.83 1283.03 4260.08 1280.3 4256.25 1279.11C4252.42 1277.92 4247.57 1278.49 4241.69 1280.81L4226.7 1286.74L4238.17 1315.75L4252.07 1310.26ZM4283.22 1246.91L4296.76 1241.56L4318.7 1297.05L4305.16 1302.4L4283.22 1246.91ZM4285.75 1233.89C4283.25 1234.87 4280.82 1234.86 4278.46 1233.83C4276.1 1232.81 4274.43 1231.05 4273.44 1228.55C4272.55 1226.3 4272.63 1224.03 4273.68 1221.75C4274.74 1219.46 4276.51 1217.83 4279.01 1216.84C4281.43 1215.88 4283.8 1215.88 4286.13 1216.82C4288.46 1217.76 4290.07 1219.36 4290.97 1221.62C4291.96 1224.12 4291.94 1226.55 4290.91 1228.91C4289.97 1231.24 4288.25 1232.9 4285.75 1233.89ZM4339.77 1241.6L4341.07 1236.05L4327.79 1241.72L4318.24 1245.5L4313.99 1234.74L4357.14 1217.67L4348.28 1268.43L4347.07 1274.22L4359.94 1268.57L4373.87 1262.78L4378.12 1273.54L4330.61 1292.33L4339.77 1241.6ZM4378.8 1221.13L4369.86 1224.67L4365.74 1214.27L4374.69 1210.73L4369.96 1198.77C4367.09 1191.51 4366.61 1185.23 4368.51 1179.91C4370.46 1174.47 4374.82 1170.42 4381.59 1167.74C4384.33 1166.66 4387.74 1166.2 4391.81 1166.36L4394.15 1179.69C4393.33 1179.27 4392.2 1179.02 4390.77 1178.93C4389.39 1178.73 4388.01 1178.9 4386.64 1179.45C4381.24 1181.58 4379.89 1186.17 4382.58 1193.21L4387.5 1205.67L4400.56 1200.5L4404.67 1210.9L4391.62 1216.06L4409.45 1261.15L4396.64 1266.22L4378.8 1221.13ZM4414.26 1195.08L4427.8 1189.73L4449.74 1245.22L4436.2 1250.57L4414.26 1195.08ZM4416.79 1182.06C4414.3 1183.05 4411.87 1183.03 4409.5 1182.01C4407.14 1180.98 4405.47 1179.22 4404.48 1176.72C4403.59 1174.47 4403.67 1172.2 4404.72 1169.92C4405.78 1167.64 4407.55 1166 4410.05 1165.01C4412.47 1164.06 4414.84 1164.05 4417.17 1164.99C4419.5 1165.94 4421.12 1167.53 4422.01 1169.79C4423 1172.29 4422.98 1174.72 4421.96 1177.08C4421.01 1179.41 4419.29 1181.07 4416.79 1182.06ZM4433.77 1148.78L4446.7 1143.67L4481.84 1232.52L4468.91 1237.64L4433.77 1148.78ZM4526.88 1216.11C4520.27 1218.72 4514.24 1219.62 4508.79 1218.79C4503.3 1217.88 4498.65 1215.67 4494.83 1212.15C4490.99 1208.54 4488.03 1204.12 4485.95 1198.88C4483.63 1193 4482.8 1187.36 4483.46 1181.97C4484.21 1176.55 4486.29 1171.81 4489.72 1167.76C4493.12 1163.62 4497.55 1160.46 4503.03 1158.3C4511.58 1154.92 4518.84 1154.79 4524.83 1157.92C4530.87 1160.94 4535.58 1166.72 4538.96 1175.26C4539.82 1177.44 4540.59 1179.74 4541.28 1182.17L4501.38 1197.95C4504.21 1202.52 4507.35 1205.38 4510.79 1206.53C4514.31 1207.66 4518.41 1207.3 4523.08 1205.45C4526.95 1203.92 4530 1202.34 4532.25 1200.7C4534.49 1199.07 4536.44 1197.28 4538.09 1195.32L4545.76 1203.05C4544.25 1205.14 4541.96 1207.35 4538.88 1209.68C4535.79 1212.02 4531.79 1214.16 4526.88 1216.11ZM4525.36 1177.98C4523.46 1172.96 4520.99 1169.88 4517.94 1168.76C4514.85 1167.55 4511.21 1167.78 4507.02 1169.44C4498.56 1172.79 4495.48 1179.27 4497.8 1188.89L4525.36 1177.98ZM4613.84 1181.71C4606.18 1184.74 4600.01 1184.57 4595.32 1181.21C4590.72 1177.81 4586.82 1172.08 4583.63 1164.02L4571.35 1132.95L4584.4 1127.79L4595.4 1155.6C4597.22 1160.19 4598.88 1163.68 4600.38 1166.07C4601.93 1168.34 4603.71 1169.78 4605.72 1170.39C4607.81 1170.96 4610.43 1170.62 4613.57 1169.38C4615.83 1168.49 4617.75 1166.98 4619.33 1164.86C4620.92 1162.74 4621.93 1160.34 4622.36 1157.66C4622.83 1154.86 4622.55 1152.13 4621.49 1149.47L4609.06 1118.04L4622 1112.92L4643.94 1168.41L4633.31 1172.62L4628.65 1165.09C4627.88 1169.03 4626.27 1172.37 4623.81 1175.11C4621.43 1177.83 4618.11 1180.03 4613.84 1181.71ZM4680.89 1155.19C4677.02 1156.72 4672.8 1157.83 4668.23 1158.53C4663.7 1159.1 4660.28 1159.06 4657.97 1158.39L4658.26 1146.39C4664.43 1147.86 4670.62 1147.37 4676.83 1144.92C4683.03 1142.46 4685.42 1139.42 4683.98 1135.8C4683.35 1134.19 4682.21 1133.19 4680.57 1132.82C4678.93 1132.44 4676.21 1132.3 4672.43 1132.4L4667.17 1132.52C4661.57 1132.5 4656.83 1131.72 4652.96 1130.17C4649.06 1128.55 4646.23 1125.52 4644.47 1121.09C4642.47 1116.01 4642.88 1111.28 4645.71 1106.9C4648.59 1102.4 4653.38 1098.83 4660.07 1096.19C4663.37 1094.88 4666.74 1093.97 4670.17 1093.45C4673.68 1092.9 4676.5 1092.85 4678.64 1093.31L4678.04 1105.57C4676.58 1104.94 4674.54 1104.72 4671.91 1104.92C4669.34 1105.01 4666.64 1105.61 4663.82 1106.73C4658.1 1108.99 4655.92 1111.85 4657.29 1115.32C4658.06 1117.25 4659.41 1118.44 4661.36 1118.88C4663.27 1119.25 4666.2 1119.35 4670.14 1119.18C4670.5 1119.14 4671.92 1119.09 4674.42 1119.03C4680.37 1119.01 4685.11 1119.79 4688.63 1121.38C4692.14 1122.97 4694.7 1125.78 4696.29 1129.81C4698.46 1135.29 4698.01 1140.27 4694.93 1144.75C4691.94 1149.19 4687.26 1152.68 4680.89 1155.19ZM4742.68 1130.76C4736.07 1133.37 4730.04 1134.26 4724.59 1133.44C4719.11 1132.53 4714.46 1130.32 4710.64 1126.79C4706.79 1123.19 4703.83 1118.77 4701.76 1113.53C4699.43 1107.65 4698.6 1102.01 4699.26 1096.62C4700.01 1091.2 4702.1 1086.46 4705.52 1082.4C4708.92 1078.26 4713.36 1075.11 4718.84 1072.94C4727.38 1069.56 4734.65 1069.44 4740.64 1072.57C4746.68 1075.59 4751.39 1081.37 4754.77 1089.91C4755.63 1092.08 4756.4 1094.39 4757.08 1096.82L4717.19 1112.6C4720.02 1117.17 4723.15 1120.03 4726.59 1121.18C4730.11 1122.31 4734.21 1121.94 4738.88 1120.09C4742.75 1118.56 4745.81 1116.98 4748.05 1115.35C4750.3 1113.72 4752.24 1111.92 4753.89 1109.97L4761.56 1117.7C4760.06 1119.78 4757.76 1121.99 4754.68 1124.33C4751.6 1126.67 4747.6 1128.81 4742.68 1130.76ZM4741.16 1092.63C4739.27 1087.6 4736.79 1084.53 4733.74 1083.41C4730.65 1082.2 4727.02 1082.43 4722.83 1084.09C4714.36 1087.43 4711.29 1093.92 4713.6 1103.53L4741.16 1092.63ZM4758 1059.13L4771.06 1053.97L4775.36 1064.85C4775.18 1060.63 4776.1 1056.82 4778.11 1053.41C4780.12 1050.01 4782.98 1047.58 4786.68 1046.11C4789.26 1045.09 4791.13 1044.63 4792.29 1044.73L4795.69 1058.62C4794.77 1058.43 4793.1 1058.81 4790.69 1059.76C4786.9 1061.26 4783.91 1063.84 4781.72 1067.5C4779.62 1071.13 4779.62 1075.61 4781.72 1080.92L4793 1109.45L4779.95 1114.62L4758 1059.13ZM4843.33 1090.95C4839.47 1092.48 4835.24 1093.59 4830.67 1094.28C4826.15 1094.86 4822.73 1094.81 4820.41 1094.14L4820.7 1082.14C4826.87 1083.62 4833.06 1083.13 4839.27 1080.67C4845.48 1078.22 4847.86 1075.18 4846.43 1071.55C4845.79 1069.94 4844.65 1068.94 4843.01 1068.57C4841.37 1068.19 4838.66 1068.05 4834.88 1068.15L4829.61 1068.27C4824.01 1068.25 4819.28 1067.47 4815.4 1065.93C4811.5 1064.3 4808.67 1061.27 4806.92 1056.84C4804.91 1051.76 4805.32 1047.03 4808.15 1042.65C4811.04 1038.15 4815.82 1034.58 4822.51 1031.94C4825.82 1030.63 4829.18 1029.72 4832.61 1029.2C4836.12 1028.65 4838.95 1028.61 4841.09 1029.07L4840.48 1041.33C4839.02 1040.69 4836.98 1040.48 4834.36 1040.68C4831.78 1040.76 4829.08 1041.36 4826.26 1042.48C4820.54 1044.74 4818.36 1047.61 4819.73 1051.07C4820.5 1053.01 4821.85 1054.19 4823.8 1054.64C4825.71 1055 4828.64 1055.1 4832.59 1054.94C4832.94 1054.89 4834.36 1054.84 4836.86 1054.78C4842.81 1054.76 4847.55 1055.54 4851.07 1057.13C4854.59 1058.72 4857.14 1061.53 4858.74 1065.56C4860.9 1071.04 4860.45 1076.02 4857.38 1080.5C4854.38 1084.95 4849.7 1088.43 4843.33 1090.95Z" fill="#454D58"/>
<defs>
<linearGradient id="paint0_linear_18_110652" x1="4233" y1="-1041.5" x2="897.5" y2="4173.5" gradientUnits="userSpaceOnUse">
<stop stop-color="#FF9999"/>
<stop offset="1" stop-color="#3B9BE0"/>
</linearGradient>
<linearGradient id="paint1_linear_18_110652" x1="5150.61" y1="924.229" x2="2827.44" y2="1836.72" gradientUnits="userSpaceOnUse">
<stop stop-color="white"/>
<stop offset="1" stop-color="white" stop-opacity="0"/>
</linearGradient>
</defs>
</svg>
