<svg width="1920" height="1080" viewBox="0 0 1920 1080" fill="none" xmlns="http://www.w3.org/2000/svg">
<g clip-path="url(#clip0_301_57707)">
<rect width="1920" height="1080" fill="url(#paint0_linear_301_57707)"/>
<path d="M1279.27 1381.05L1265.23 783.56C1264.62 758.194 1270.89 733.112 1283.38 710.838C1295.88 688.564 1314.17 669.883 1336.42 656.674L1933.46 301.965L2546.56 628.228C2569.38 640.388 2588.5 658.186 2602.02 679.836C2615.54 701.487 2622.97 726.229 2623.58 751.579L2637.62 1349.12C2638.25 1374.52 2632 1399.64 2619.51 1421.95C2607.01 1444.27 2588.71 1462.98 2566.44 1476.22L1969.39 1830.67L1356.24 1504.66C1333.39 1492.48 1314.24 1474.64 1300.73 1452.94C1287.21 1431.24 1279.81 1406.45 1279.27 1381.05Z" fill="url(#paint1_linear_301_57707)"/>
<path fill-rule="evenodd" clip-rule="evenodd" d="M1484 -253L1772.21 -82.7318C1791.9 -71.097 1804 -49.8254 1804 -26.8324V276.832C1804 299.825 1791.9 321.097 1772.21 332.732L1484 503L1195.79 332.732C1176.1 321.097 1164 299.825 1164 276.832V-26.8324C1164 -49.8254 1176.1 -71.097 1195.79 -82.7317L1484 -253Z" stroke="url(#paint2_linear_301_57707)" stroke-width="16"/>
<path fill-rule="evenodd" clip-rule="evenodd" d="M1486.5 -464L1939.98 -198.688C1970.96 -180.559 1990 -147.413 1990 -111.585V361.585C1990 397.413 1970.96 430.558 1939.98 448.688L1486.5 714L1033.02 448.688C1002.04 430.558 983 397.413 983 361.585V-111.585C983 -147.413 1002.04 -180.559 1033.02 -198.688L1486.5 -464Z" stroke="url(#paint3_linear_301_57707)" stroke-width="16"/>
<path fill-rule="evenodd" clip-rule="evenodd" d="M1486.5 -366L1889.54 -138.976C1917.08 -123.463 1934 -95.1005 1934 -64.4432V340.443C1934 371.101 1917.08 399.463 1889.54 414.976L1486.5 642L1083.46 414.976C1055.92 399.463 1039 371.1 1039 340.443V-64.4432C1039 -95.1005 1055.92 -123.463 1083.46 -138.976L1486.5 -366Z" stroke="url(#paint4_linear_301_57707)" stroke-width="16"/>
<path d="M615.37 2533.73L597.74 1351.45C596.976 1301.26 609.793 1251.74 634.901 1207.89C660.008 1164.04 696.521 1127.39 740.766 1101.64L1928.23 410.045L3135.89 1065.92C3180.84 1090.36 3218.39 1125.9 3244.77 1168.96C3271.15 1212.02 3285.44 1261.1 3286.2 1311.26L3303.83 2493.64C3304.65 2543.9 3291.86 2593.49 3266.75 2637.41C3241.64 2681.34 3205.1 2718.06 3160.81 2743.86L1973.34 3434.94L765.58 2779.58C720.563 2755.1 682.975 2719.48 656.604 2676.32C630.232 2633.16 616.01 2583.97 615.37 2533.73Z" fill="url(#paint5_linear_301_57707)"/>
<path d="M1172.41 2057.54L1155.32 1330.47C1154.58 1299.6 1162.2 1269.08 1177.41 1241.97C1192.62 1214.87 1214.88 1192.14 1241.95 1176.06L1968.47 744.427L2714.54 1141.45C2742.3 1156.25 2765.58 1177.9 2782.03 1204.25C2798.48 1230.6 2807.53 1260.7 2808.26 1291.55L2825.35 2018.69C2826.12 2049.6 2818.52 2080.16 2803.31 2107.31C2788.1 2134.46 2765.83 2157.24 2738.73 2173.34L2012.2 2604.67L1266.07 2207.96C1238.26 2193.14 1214.96 2171.43 1198.52 2145.02C1182.07 2118.62 1173.07 2088.44 1172.41 2057.54Z" fill="url(#paint6_linear_301_57707)"/>
<path d="M1319.67 495.418C1319.67 495.418 1304.14 517.768 1324.48 546.668C1324.48 546.668 1327.68 531.951 1359.81 531.951H1398.36C1434.77 531.951 1462.06 496.518 1444.93 459.968C1444.93 459.968 1470.62 462.701 1479.21 446.335C1487.77 429.985 1478.67 423.435 1465.83 423.435H1401.04C1401.04 435.168 1379.1 436.801 1379.1 423.435H1342.69C1342.69 423.435 1315.38 423.435 1314.86 446.885C1314.86 446.885 1321.02 443.068 1327.16 442.535V448.785C1327.16 448.785 1319.67 450.151 1316.18 452.068C1312.71 453.968 1307.62 459.151 1312.45 472.518C1317.26 485.868 1319.14 490.501 1319.14 490.501C1319.14 490.501 1326.92 483.668 1339.5 483.668H1354.23C1380.44 483.668 1375.63 509.568 1349.4 509.568C1323.17 509.568 1319.7 495.401 1319.7 495.401L1319.67 495.418Z" fill="url(#paint7_linear_301_57707)"/>
<path d="M1456.45 468.432C1456.45 468.432 1465.29 468.982 1471.7 463.266C1471.7 463.266 1529.8 509.349 1443.61 602.032C1357.4 694.732 1424.05 754.732 1424.05 754.732C1424.05 754.732 1408.54 769.982 1417.36 799.716C1417.36 799.716 1381.51 779.099 1354.08 744.082C1314.45 693.482 1290.23 616.066 1399.07 554.316C1399.07 554.316 1470.89 517.516 1456.44 468.432H1456.45Z" fill="url(#paint8_linear_301_57707)"/>
<path d="M1367.67 414.715C1367.67 414.715 1379.27 393.631 1406.2 393.631C1427.44 393.631 1432.29 382.531 1432.29 382.531C1432.29 382.531 1441.55 364.548 1488.32 364.548C1531.17 364.548 1560.05 379.098 1583.42 398.531C1583.42 398.531 1520.42 358.731 1458.32 414.715H1367.67V414.715Z" fill="url(#paint9_linear_301_57707)"/>
<path d="M1629.64 548.132C1627.86 482.332 1577.88 411.816 1470.45 415.816C1575.39 325.299 1757.42 527.399 1607.5 633.582C1607.5 633.582 1632.58 597.149 1629.64 548.149V548.132Z" fill="url(#paint10_linear_301_57707)"/>
<path d="M1486.52 423.085C1617.51 419.085 1664.27 579.035 1579.67 651.019L1494.73 692.835C1494.73 692.835 1483.67 656.485 1524.72 613.935C1565.78 571.419 1605.38 491.802 1491.9 439.452C1491.9 439.452 1494.04 428.552 1486.55 423.102L1486.52 423.085Z" fill="url(#paint11_linear_301_57707)"/>
<path d="M1479.72 459.069C1479.72 459.069 1486.15 452.886 1488.3 447.802C1585.73 489.236 1570.39 559.419 1512.21 618.303C1476.52 655.736 1487.58 696.103 1487.58 696.103C1487.58 696.103 1444.05 723.719 1429.05 747.719C1429.05 747.719 1366.01 693.053 1453.31 602.319C1538.98 513.252 1479.72 459.086 1479.72 459.086V459.069Z" fill="url(#paint12_linear_301_57707)"/>
</g>
<defs>
<linearGradient id="paint0_linear_301_57707" x1="2.13782e-05" y1="1080" x2="1455" y2="273" gradientUnits="userSpaceOnUse">
<stop stop-color="#161C28"/>
<stop offset="1" stop-color="#373C4A"/>
</linearGradient>
<linearGradient id="paint1_linear_301_57707" x1="1528" y1="227" x2="1527.82" y2="1066" gradientUnits="userSpaceOnUse">
<stop stop-color="#555B69"/>
<stop offset="0.285875" stop-color="#373C4A"/>
<stop offset="0.732192" stop-color="#161C28"/>
</linearGradient>
<linearGradient id="paint2_linear_301_57707" x1="1473" y1="-539" x2="1699.5" y2="428.5" gradientUnits="userSpaceOnUse">
<stop stop-color="#E9E9E9"/>
<stop offset="0.90312" stop-color="#E9E9E9" stop-opacity="0"/>
</linearGradient>
<linearGradient id="paint3_linear_301_57707" x1="1691" y1="-656.5" x2="1436" y2="593" gradientUnits="userSpaceOnUse">
<stop stop-color="#E9E9E9"/>
<stop offset="1" stop-color="#E9E9E9" stop-opacity="0"/>
</linearGradient>
<linearGradient id="paint4_linear_301_57707" x1="1339" y1="538" x2="1281" y2="68.5" gradientUnits="userSpaceOnUse">
<stop stop-color="#C10F25" stop-opacity="0"/>
<stop offset="1" stop-color="#EF3340"/>
</linearGradient>
<linearGradient id="paint5_linear_301_57707" x1="1146.92" y1="254.944" x2="1146.92" y2="1420" gradientUnits="userSpaceOnUse">
<stop offset="0.222873" stop-color="#373C4A"/>
<stop offset="0.767793" stop-color="#161C28"/>
</linearGradient>
<linearGradient id="paint6_linear_301_57707" x1="1523" y1="478.5" x2="1522.72" y2="1778.5" gradientUnits="userSpaceOnUse">
<stop stop-color="#555B69"/>
<stop offset="0.285875" stop-color="#373C4A"/>
<stop offset="0.63484" stop-color="#161C28"/>
</linearGradient>
<linearGradient id="paint7_linear_301_57707" x1="1396.51" y1="423.435" x2="1396.51" y2="546.668" gradientUnits="userSpaceOnUse">
<stop stop-color="#EF3441"/>
<stop offset="1" stop-color="#333640"/>
</linearGradient>
<linearGradient id="paint8_linear_301_57707" x1="1405.74" y1="463.266" x2="1405.74" y2="799.716" gradientUnits="userSpaceOnUse">
<stop stop-color="#EF3441"/>
<stop offset="1" stop-color="#333640"/>
</linearGradient>
<linearGradient id="paint9_linear_301_57707" x1="1475.54" y1="364.548" x2="1475.54" y2="414.715" gradientUnits="userSpaceOnUse">
<stop stop-color="#EF3441"/>
<stop offset="1" stop-color="#333640"/>
</linearGradient>
<linearGradient id="paint10_linear_301_57707" x1="1567.42" y1="393.096" x2="1567.42" y2="633.582" gradientUnits="userSpaceOnUse">
<stop stop-color="#EF3441"/>
<stop offset="1" stop-color="#333640"/>
</linearGradient>
<linearGradient id="paint11_linear_301_57707" x1="1554.39" y1="423.012" x2="1554.39" y2="692.835" gradientUnits="userSpaceOnUse">
<stop stop-color="#EF3441"/>
<stop offset="1" stop-color="#333640"/>
</linearGradient>
<linearGradient id="paint12_linear_301_57707" x1="1482.85" y1="447.802" x2="1482.85" y2="747.719" gradientUnits="userSpaceOnUse">
<stop stop-color="#EF3441"/>
<stop offset="1" stop-color="#333640"/>
</linearGradient>
<clipPath id="clip0_301_57707">
<rect width="1920" height="1080" fill="white"/>
</clipPath>
</defs>
</svg>
